<mxfile host="65bd71144e">
    <diagram id="Omz8NuV_Lej0NusEcTPA" name="Page-1">
        <mxGraphModel dx="1074" dy="741" grid="1" gridSize="10" guides="1" tooltips="1" connect="1" arrows="1" fold="1" page="1" pageScale="1" pageWidth="827" pageHeight="1169" math="0" shadow="0">
            <root>
                <mxCell id="0"/>
                <mxCell id="1" parent="0"/>
                <mxCell id="237" style="shape=connector;rounded=1;html=1;exitX=1;exitY=0.5;exitDx=0;exitDy=0;entryX=1;entryY=0.115;entryDx=0;entryDy=0;entryPerimeter=0;labelBackgroundColor=default;fontFamily=Helvetica;fontSize=11;fontColor=default;endArrow=none;endFill=0;strokeColor=#CC0000;" parent="1" source="2" target="12" edge="1">
                    <mxGeometry relative="1" as="geometry">
                        <Array as="points">
                            <mxPoint x="650" y="177"/>
                        </Array>
                    </mxGeometry>
                </mxCell>
                <mxCell id="2" value="" style="pointerEvents=1;verticalLabelPosition=bottom;shadow=0;dashed=0;align=center;html=1;verticalAlign=top;shape=mxgraph.electrical.miscellaneous.batteryStack;direction=north;" parent="1" vertex="1">
                    <mxGeometry x="620" y="200" width="60" height="100" as="geometry"/>
                </mxCell>
                <mxCell id="192" style="edgeStyle=none;html=1;exitX=0;exitY=0.5;exitDx=0;exitDy=0;exitPerimeter=0;entryX=0;entryY=0.57;entryDx=0;entryDy=0;entryPerimeter=0;endArrow=none;endFill=0;" parent="1" source="3" target="4" edge="1">
                    <mxGeometry relative="1" as="geometry">
                        <Array as="points"/>
                    </mxGeometry>
                </mxCell>
                <mxCell id="3" value="" style="pointerEvents=1;verticalLabelPosition=bottom;shadow=0;dashed=0;align=center;html=1;verticalAlign=top;shape=mxgraph.electrical.resistors.resistor_2;direction=west;" parent="1" vertex="1">
                    <mxGeometry x="194" y="448" width="96" height="20" as="geometry"/>
                </mxCell>
                <mxCell id="291" style="edgeStyle=none;html=1;exitX=1;exitY=0.57;exitDx=0;exitDy=0;exitPerimeter=0;endArrow=none;endFill=0;strokeColor=#000000;elbow=vertical;" parent="1" source="4" edge="1">
                    <mxGeometry relative="1" as="geometry">
                        <mxPoint x="650" y="460" as="targetPoint"/>
                    </mxGeometry>
                </mxCell>
                <mxCell id="4" value="" style="verticalLabelPosition=bottom;shadow=0;dashed=0;align=center;html=1;verticalAlign=top;shape=mxgraph.electrical.opto_electronics.led_2;pointerEvents=1;direction=east;flipV=0;flipH=0;" parent="1" vertex="1">
                    <mxGeometry x="430" y="423" width="100" height="70" as="geometry"/>
                </mxCell>
                <mxCell id="8" value="5 V" style="text;html=1;align=center;verticalAlign=middle;resizable=0;points=[];autosize=1;strokeColor=none;fillColor=none;fontSize=11;fontFamily=Helvetica;fontColor=default;" parent="1" vertex="1">
                    <mxGeometry x="680" y="250" width="30" height="20" as="geometry"/>
                </mxCell>
                <mxCell id="9" value="220&amp;nbsp;&amp;nbsp;Î©" style="text;html=1;align=center;verticalAlign=middle;resizable=0;points=[];autosize=1;strokeColor=none;fillColor=none;fontSize=11;fontFamily=Helvetica;fontColor=default;" parent="1" vertex="1">
                    <mxGeometry x="220" y="473" width="50" height="20" as="geometry"/>
                </mxCell>
                <mxCell id="10" value="Output" style="text;html=1;align=center;verticalAlign=middle;resizable=0;points=[];autosize=1;strokeColor=none;fillColor=none;fontSize=11;fontFamily=Helvetica;fontColor=default;" parent="1" vertex="1">
                    <mxGeometry x="414" y="473" width="50" height="20" as="geometry"/>
                </mxCell>
                <mxCell id="11" value="&lt;font&gt;&lt;span style=&quot;font-size: 14px&quot;&gt;Nina Mathew&lt;/span&gt;&lt;br&gt;&lt;span style=&quot;font-size: 14px&quot;&gt;TEJ3M Unit #4-19&lt;/span&gt;&lt;br&gt;&lt;div&gt;&lt;span style=&quot;font-size: 14px&quot;&gt;2-Bit Full Adder circuit with an IC chip&lt;/span&gt;&lt;/div&gt;&lt;div style=&quot;font-size: 14px&quot;&gt;&lt;br&gt;&lt;/div&gt;&lt;/font&gt;" style="text;html=1;align=center;verticalAlign=middle;resizable=0;points=[];autosize=1;strokeColor=none;fillColor=none;fontSize=11;fontFamily=Helvetica;fontColor=default;" parent="1" vertex="1">
                    <mxGeometry x="107" y="70" width="250" height="60" as="geometry"/>
                </mxCell>
                <mxCell id="181" style="edgeStyle=none;shape=connector;rounded=1;html=1;exitX=1;exitY=0.885;exitDx=0;exitDy=0;exitPerimeter=0;entryX=1;entryY=0.885;entryDx=0;entryDy=0;entryPerimeter=0;labelBackgroundColor=default;fontFamily=Helvetica;fontSize=11;fontColor=default;endArrow=none;endFill=0;strokeColor=#000000;" parent="1" source="12" target="134" edge="1">
                    <mxGeometry relative="1" as="geometry">
                        <Array as="points">
                            <mxPoint x="610" y="240"/>
                            <mxPoint x="610" y="297"/>
                        </Array>
                    </mxGeometry>
                </mxCell>
                <mxCell id="267" style="edgeStyle=none;shape=connector;rounded=1;html=1;exitX=0;exitY=0.885;exitDx=0;exitDy=0;exitPerimeter=0;entryX=0;entryY=0.75;entryDx=0;entryDy=0;entryPerimeter=0;labelBackgroundColor=default;fontFamily=Helvetica;fontSize=11;fontColor=default;endArrow=none;endFill=0;strokeColor=#330066;" parent="1" source="12" target="246" edge="1">
                    <mxGeometry relative="1" as="geometry">
                        <Array as="points">
                            <mxPoint x="460" y="187"/>
                        </Array>
                    </mxGeometry>
                </mxCell>
                <mxCell id="12" value="" style="pointerEvents=1;verticalLabelPosition=bottom;shadow=0;dashed=0;align=center;html=1;verticalAlign=top;shape=mxgraph.electrical.electro-mechanical.2-way_switch;direction=east;" parent="1" vertex="1">
                    <mxGeometry x="507.5" y="174" width="75" height="26" as="geometry"/>
                </mxCell>
                <mxCell id="13" value="+" style="text;html=1;align=center;verticalAlign=middle;resizable=0;points=[];autosize=1;strokeColor=none;fillColor=none;" parent="1" vertex="1">
                    <mxGeometry x="660" y="190" width="20" height="20" as="geometry"/>
                </mxCell>
                <mxCell id="14" value="-" style="text;html=1;align=center;verticalAlign=middle;resizable=0;points=[];autosize=1;strokeColor=none;fillColor=none;" parent="1" vertex="1">
                    <mxGeometry x="660" y="290" width="20" height="20" as="geometry"/>
                </mxCell>
                <mxCell id="43" value="Input A" style="text;html=1;align=center;verticalAlign=middle;resizable=0;points=[];autosize=1;strokeColor=none;fillColor=none;fontSize=11;fontFamily=Helvetica;fontColor=default;" parent="1" vertex="1">
                    <mxGeometry x="510" y="150" width="50" height="20" as="geometry"/>
                </mxCell>
                <mxCell id="240" style="edgeStyle=none;shape=connector;rounded=1;html=1;exitX=1;exitY=0.115;exitDx=0;exitDy=0;exitPerimeter=0;labelBackgroundColor=default;fontFamily=Helvetica;fontSize=11;fontColor=default;endArrow=none;endFill=0;strokeColor=#CC0000;entryX=1;entryY=0.115;entryDx=0;entryDy=0;entryPerimeter=0;" parent="1" source="134" target="12" edge="1">
                    <mxGeometry relative="1" as="geometry">
                        <mxPoint x="595" y="180" as="targetPoint"/>
                    </mxGeometry>
                </mxCell>
                <mxCell id="268" style="edgeStyle=none;shape=connector;rounded=1;html=1;exitX=0;exitY=0.885;exitDx=0;exitDy=0;exitPerimeter=0;entryX=0;entryY=0.25;entryDx=0;entryDy=0;entryPerimeter=0;labelBackgroundColor=default;fontFamily=Helvetica;fontSize=11;fontColor=default;endArrow=none;endFill=0;strokeColor=#0000CC;" parent="1" source="134" target="258" edge="1">
                    <mxGeometry relative="1" as="geometry">
                        <Array as="points">
                            <mxPoint x="430" y="297"/>
                            <mxPoint x="430" y="360"/>
                            <mxPoint x="430" y="425"/>
                        </Array>
                    </mxGeometry>
                </mxCell>
                <mxCell id="134" value="" style="pointerEvents=1;verticalLabelPosition=bottom;shadow=0;dashed=0;align=center;html=1;verticalAlign=top;shape=mxgraph.electrical.electro-mechanical.2-way_switch;direction=east;" parent="1" vertex="1">
                    <mxGeometry x="507.5" y="274" width="75" height="26" as="geometry"/>
                </mxCell>
                <mxCell id="177" value="Input B" style="text;html=1;align=center;verticalAlign=middle;resizable=0;points=[];autosize=1;strokeColor=none;fillColor=none;fontSize=11;fontFamily=Helvetica;fontColor=default;" parent="1" vertex="1">
                    <mxGeometry x="520" y="240" width="50" height="20" as="geometry"/>
                </mxCell>
                <mxCell id="269" style="edgeStyle=none;shape=connector;rounded=1;html=1;exitX=0;exitY=0.25;exitDx=0;exitDy=0;exitPerimeter=0;labelBackgroundColor=default;fontFamily=Helvetica;fontSize=11;fontColor=default;endArrow=none;endFill=0;strokeColor=#0000CC;" parent="1" source="246" edge="1">
                    <mxGeometry relative="1" as="geometry">
                        <mxPoint x="450" y="297" as="targetPoint"/>
                        <mxPoint x="420" y="199" as="sourcePoint"/>
                        <Array as="points">
                            <mxPoint x="450" y="215"/>
                        </Array>
                    </mxGeometry>
                </mxCell>
                <mxCell id="272" style="edgeStyle=none;shape=connector;rounded=1;html=1;exitX=1;exitY=0.5;exitDx=0;exitDy=0;exitPerimeter=0;labelBackgroundColor=default;fontFamily=Helvetica;fontSize=11;fontColor=default;endArrow=none;endFill=0;strokeColor=#006600;entryX=0;entryY=0.75;entryDx=0;entryDy=0;entryPerimeter=0;" parent="1" source="246" target="259" edge="1">
                    <mxGeometry relative="1" as="geometry">
                        <mxPoint x="230" y="210" as="targetPoint"/>
                    </mxGeometry>
                </mxCell>
                <mxCell id="246" value="" style="verticalLabelPosition=bottom;shadow=0;dashed=0;align=center;html=1;verticalAlign=top;shape=mxgraph.electrical.logic_gates.logic_gate;operation=xor;direction=west;" parent="1" vertex="1">
                    <mxGeometry x="314" y="170" width="100" height="60" as="geometry"/>
                </mxCell>
                <mxCell id="274" style="edgeStyle=none;shape=connector;rounded=1;html=1;exitX=0;exitY=0.75;exitDx=0;exitDy=0;exitPerimeter=0;labelBackgroundColor=default;fontFamily=Helvetica;fontSize=11;fontColor=default;endArrow=none;endFill=0;strokeColor=#006600;" parent="1" source="247" edge="1">
                    <mxGeometry relative="1" as="geometry">
                        <mxPoint x="282" y="198" as="targetPoint"/>
                        <mxPoint x="282" y="303" as="sourcePoint"/>
                    </mxGeometry>
                </mxCell>
                <mxCell id="275" style="edgeStyle=none;html=1;exitX=1;exitY=0.5;exitDx=0;exitDy=0;exitPerimeter=0;entryX=0;entryY=0.75;entryDx=0;entryDy=0;entryPerimeter=0;strokeColor=#000000;endArrow=none;endFill=0;" parent="1" source="247" target="260" edge="1">
                    <mxGeometry relative="1" as="geometry"/>
                </mxCell>
                <mxCell id="247" value="" style="verticalLabelPosition=bottom;shadow=0;dashed=0;align=center;html=1;verticalAlign=top;shape=mxgraph.electrical.logic_gates.logic_gate;operation=and;direction=west;" parent="1" vertex="1">
                    <mxGeometry x="182" y="290" width="100" height="60" as="geometry"/>
                </mxCell>
                <mxCell id="271" style="edgeStyle=none;shape=connector;rounded=1;html=1;entryX=0;entryY=0.25;entryDx=0;entryDy=0;entryPerimeter=0;labelBackgroundColor=default;fontFamily=Helvetica;fontSize=11;fontColor=default;endArrow=none;endFill=0;strokeColor=#CC6600;" parent="1" target="247" edge="1">
                    <mxGeometry relative="1" as="geometry">
                        <Array as="points">
                            <mxPoint x="460" y="403"/>
                            <mxPoint x="390" y="335"/>
                            <mxPoint x="350" y="335"/>
                            <mxPoint x="330" y="335"/>
                            <mxPoint x="300" y="335"/>
                        </Array>
                        <mxPoint x="650" y="403" as="sourcePoint"/>
                    </mxGeometry>
                </mxCell>
                <mxCell id="257" value="Carry In" style="text;html=1;align=center;verticalAlign=middle;resizable=0;points=[];autosize=1;strokeColor=none;fillColor=none;fontSize=11;fontFamily=Helvetica;fontColor=default;" parent="1" vertex="1">
                    <mxGeometry x="542.5" y="370" width="60" height="20" as="geometry"/>
                </mxCell>
                <mxCell id="270" style="edgeStyle=none;shape=connector;rounded=1;html=1;labelBackgroundColor=default;fontFamily=Helvetica;fontSize=11;fontColor=default;endArrow=none;endFill=0;strokeColor=#330066;exitX=0;exitY=0.75;exitDx=0;exitDy=0;exitPerimeter=0;" parent="1" source="258" edge="1">
                    <mxGeometry relative="1" as="geometry">
                        <mxPoint x="460" y="188" as="targetPoint"/>
                        <mxPoint x="450" y="402" as="sourcePoint"/>
                        <Array as="points">
                            <mxPoint x="460" y="395"/>
                        </Array>
                    </mxGeometry>
                </mxCell>
                <mxCell id="276" style="edgeStyle=none;html=1;exitX=1;exitY=0.5;exitDx=0;exitDy=0;exitPerimeter=0;entryX=0;entryY=0.25;entryDx=0;entryDy=0;entryPerimeter=0;endArrow=none;endFill=0;strokeColor=#000000;" parent="1" source="258" target="260" edge="1">
                    <mxGeometry relative="1" as="geometry"/>
                </mxCell>
                <mxCell id="258" value="" style="verticalLabelPosition=bottom;shadow=0;dashed=0;align=center;html=1;verticalAlign=top;shape=mxgraph.electrical.logic_gates.logic_gate;operation=and;direction=west;" parent="1" vertex="1">
                    <mxGeometry x="290" y="380" width="100" height="60" as="geometry"/>
                </mxCell>
                <mxCell id="273" style="edgeStyle=none;shape=connector;rounded=1;html=1;exitX=0;exitY=0.25;exitDx=0;exitDy=0;exitPerimeter=0;labelBackgroundColor=default;fontFamily=Helvetica;fontSize=11;fontColor=default;endArrow=none;endFill=0;strokeColor=#CC6600;" parent="1" source="259" edge="1">
                    <mxGeometry relative="1" as="geometry">
                        <mxPoint x="310" y="334" as="targetPoint"/>
                        <mxPoint x="230" y="219" as="sourcePoint"/>
                        <Array as="points">
                            <mxPoint x="310" y="225"/>
                        </Array>
                    </mxGeometry>
                </mxCell>
                <mxCell id="292" style="edgeStyle=none;html=1;exitX=1;exitY=0.5;exitDx=0;exitDy=0;exitPerimeter=0;endArrow=none;endFill=0;strokeColor=#000000;elbow=vertical;entryX=1;entryY=0.5;entryDx=0;entryDy=0;entryPerimeter=0;" parent="1" source="259" target="3" edge="1">
                    <mxGeometry relative="1" as="geometry">
                        <mxPoint x="40" y="500" as="targetPoint"/>
                        <Array as="points">
                            <mxPoint x="50" y="210"/>
                            <mxPoint x="50" y="460"/>
                        </Array>
                    </mxGeometry>
                </mxCell>
                <mxCell id="259" value="" style="verticalLabelPosition=bottom;shadow=0;dashed=0;align=center;html=1;verticalAlign=top;shape=mxgraph.electrical.logic_gates.logic_gate;operation=xor;direction=west;" parent="1" vertex="1">
                    <mxGeometry x="144" y="180" width="100" height="60" as="geometry"/>
                </mxCell>
                <mxCell id="293" style="edgeStyle=none;html=1;exitX=1;exitY=0.5;exitDx=0;exitDy=0;exitPerimeter=0;entryX=1;entryY=0.5;entryDx=0;entryDy=0;entryPerimeter=0;endArrow=none;endFill=0;strokeColor=#660033;elbow=vertical;" parent="1" source="260" target="285" edge="1">
                    <mxGeometry relative="1" as="geometry">
                        <Array as="points">
                            <mxPoint x="80" y="530"/>
                        </Array>
                    </mxGeometry>
                </mxCell>
                <mxCell id="260" value="" style="verticalLabelPosition=bottom;shadow=0;dashed=0;align=center;html=1;verticalAlign=top;shape=mxgraph.electrical.logic_gates.logic_gate;operation=or;direction=west;" parent="1" vertex="1">
                    <mxGeometry x="80" y="363" width="100" height="60" as="geometry"/>
                </mxCell>
                <mxCell id="281" value="Sum" style="text;html=1;align=center;verticalAlign=middle;resizable=0;points=[];autosize=1;strokeColor=none;fillColor=none;" parent="1" vertex="1">
                    <mxGeometry x="140" y="180" width="40" height="20" as="geometry"/>
                </mxCell>
                <mxCell id="282" value="Carry Out" style="text;html=1;align=center;verticalAlign=middle;resizable=0;points=[];autosize=1;strokeColor=none;fillColor=none;" parent="1" vertex="1">
                    <mxGeometry x="74" y="343" width="70" height="20" as="geometry"/>
                </mxCell>
                <mxCell id="284" style="edgeStyle=none;html=1;exitX=0;exitY=0.5;exitDx=0;exitDy=0;exitPerimeter=0;entryX=0;entryY=0.57;entryDx=0;entryDy=0;entryPerimeter=0;endArrow=none;endFill=0;" parent="1" source="285" target="286" edge="1">
                    <mxGeometry relative="1" as="geometry"/>
                </mxCell>
                <mxCell id="285" value="" style="pointerEvents=1;verticalLabelPosition=bottom;shadow=0;dashed=0;align=center;html=1;verticalAlign=top;shape=mxgraph.electrical.resistors.resistor_2;direction=west;" parent="1" vertex="1">
                    <mxGeometry x="182" y="518" width="96" height="20" as="geometry"/>
                </mxCell>
                <mxCell id="290" style="edgeStyle=none;html=1;exitX=1;exitY=0.57;exitDx=0;exitDy=0;exitPerimeter=0;endArrow=none;endFill=0;strokeColor=#000000;elbow=vertical;entryX=0;entryY=0.5;entryDx=0;entryDy=0;" parent="1" source="286" target="2" edge="1">
                    <mxGeometry relative="1" as="geometry">
                        <mxPoint x="650" y="510" as="targetPoint"/>
                        <Array as="points">
                            <mxPoint x="650" y="533"/>
                        </Array>
                    </mxGeometry>
                </mxCell>
                <mxCell id="286" value="" style="verticalLabelPosition=bottom;shadow=0;dashed=0;align=center;html=1;verticalAlign=top;shape=mxgraph.electrical.opto_electronics.led_2;pointerEvents=1;direction=east;flipV=0;flipH=0;" parent="1" vertex="1">
                    <mxGeometry x="407.5" y="493" width="100" height="70" as="geometry"/>
                </mxCell>
                <mxCell id="287" value="220&amp;nbsp;&amp;nbsp;Î©" style="text;html=1;align=center;verticalAlign=middle;resizable=0;points=[];autosize=1;strokeColor=none;fillColor=none;fontSize=11;fontFamily=Helvetica;fontColor=default;" parent="1" vertex="1">
                    <mxGeometry x="260" y="510" width="50" height="20" as="geometry"/>
                </mxCell>
                <mxCell id="288" value="Output" style="text;html=1;align=center;verticalAlign=middle;resizable=0;points=[];autosize=1;strokeColor=none;fillColor=none;fontSize=11;fontFamily=Helvetica;fontColor=default;" parent="1" vertex="1">
                    <mxGeometry x="480" y="530" width="50" height="20" as="geometry"/>
                </mxCell>
                <mxCell id="466" style="shape=connector;rounded=1;html=1;exitX=1;exitY=0.5;exitDx=0;exitDy=0;entryX=1;entryY=0.115;entryDx=0;entryDy=0;entryPerimeter=0;labelBackgroundColor=default;fontFamily=Helvetica;fontSize=11;fontColor=default;endArrow=none;endFill=0;strokeColor=#CC0000;" edge="1" source="467" target="477" parent="1">
                    <mxGeometry relative="1" as="geometry">
                        <Array as="points">
                            <mxPoint x="670" y="667"/>
                        </Array>
                    </mxGeometry>
                </mxCell>
                <mxCell id="467" value="" style="pointerEvents=1;verticalLabelPosition=bottom;shadow=0;dashed=0;align=center;html=1;verticalAlign=top;shape=mxgraph.electrical.miscellaneous.batteryStack;direction=north;" vertex="1" parent="1">
                    <mxGeometry x="640" y="690" width="60" height="100" as="geometry"/>
                </mxCell>
                <mxCell id="468" style="edgeStyle=none;html=1;exitX=0;exitY=0.5;exitDx=0;exitDy=0;exitPerimeter=0;entryX=0;entryY=0.57;entryDx=0;entryDy=0;entryPerimeter=0;endArrow=none;endFill=0;" edge="1" source="469" target="471" parent="1">
                    <mxGeometry relative="1" as="geometry">
                        <Array as="points"/>
                    </mxGeometry>
                </mxCell>
                <mxCell id="469" value="" style="pointerEvents=1;verticalLabelPosition=bottom;shadow=0;dashed=0;align=center;html=1;verticalAlign=top;shape=mxgraph.electrical.resistors.resistor_2;direction=west;" vertex="1" parent="1">
                    <mxGeometry x="214" y="938" width="96" height="20" as="geometry"/>
                </mxCell>
                <mxCell id="470" style="edgeStyle=none;html=1;exitX=1;exitY=0.57;exitDx=0;exitDy=0;exitPerimeter=0;endArrow=none;endFill=0;strokeColor=#000000;elbow=vertical;" edge="1" source="471" parent="1">
                    <mxGeometry relative="1" as="geometry">
                        <mxPoint x="670" y="950" as="targetPoint"/>
                    </mxGeometry>
                </mxCell>
                <mxCell id="471" value="" style="verticalLabelPosition=bottom;shadow=0;dashed=0;align=center;html=1;verticalAlign=top;shape=mxgraph.electrical.opto_electronics.led_2;pointerEvents=1;direction=east;flipV=0;flipH=0;" vertex="1" parent="1">
                    <mxGeometry x="450" y="913" width="100" height="70" as="geometry"/>
                </mxCell>
                <mxCell id="472" value="5 V" style="text;html=1;align=center;verticalAlign=middle;resizable=0;points=[];autosize=1;strokeColor=none;fillColor=none;fontSize=11;fontFamily=Helvetica;fontColor=default;" vertex="1" parent="1">
                    <mxGeometry x="700" y="740" width="30" height="20" as="geometry"/>
                </mxCell>
                <mxCell id="473" value="220&amp;nbsp;&amp;nbsp;Î©" style="text;html=1;align=center;verticalAlign=middle;resizable=0;points=[];autosize=1;strokeColor=none;fillColor=none;fontSize=11;fontFamily=Helvetica;fontColor=default;" vertex="1" parent="1">
                    <mxGeometry x="240" y="963" width="50" height="20" as="geometry"/>
                </mxCell>
                <mxCell id="474" value="Output" style="text;html=1;align=center;verticalAlign=middle;resizable=0;points=[];autosize=1;strokeColor=none;fillColor=none;fontSize=11;fontFamily=Helvetica;fontColor=default;" vertex="1" parent="1">
                    <mxGeometry x="434" y="963" width="50" height="20" as="geometry"/>
                </mxCell>
                <mxCell id="475" style="edgeStyle=none;shape=connector;rounded=1;html=1;exitX=1;exitY=0.885;exitDx=0;exitDy=0;exitPerimeter=0;entryX=1;entryY=0.885;entryDx=0;entryDy=0;entryPerimeter=0;labelBackgroundColor=default;fontFamily=Helvetica;fontSize=11;fontColor=default;endArrow=none;endFill=0;strokeColor=#000000;" edge="1" source="477" target="483" parent="1">
                    <mxGeometry relative="1" as="geometry">
                        <Array as="points">
                            <mxPoint x="630" y="730"/>
                            <mxPoint x="630" y="787"/>
                        </Array>
                    </mxGeometry>
                </mxCell>
                <mxCell id="476" style="edgeStyle=none;shape=connector;rounded=1;html=1;exitX=0;exitY=0.885;exitDx=0;exitDy=0;exitPerimeter=0;entryX=0;entryY=0.75;entryDx=0;entryDy=0;entryPerimeter=0;labelBackgroundColor=default;fontFamily=Helvetica;fontSize=11;fontColor=default;endArrow=none;endFill=0;strokeColor=#330066;" edge="1" source="477" target="487" parent="1">
                    <mxGeometry relative="1" as="geometry">
                        <Array as="points">
                            <mxPoint x="480" y="677"/>
                        </Array>
                    </mxGeometry>
                </mxCell>
                <mxCell id="477" value="" style="pointerEvents=1;verticalLabelPosition=bottom;shadow=0;dashed=0;align=center;html=1;verticalAlign=top;shape=mxgraph.electrical.electro-mechanical.2-way_switch;direction=east;" vertex="1" parent="1">
                    <mxGeometry x="527.5" y="664" width="75" height="26" as="geometry"/>
                </mxCell>
                <mxCell id="478" value="+" style="text;html=1;align=center;verticalAlign=middle;resizable=0;points=[];autosize=1;strokeColor=none;fillColor=none;" vertex="1" parent="1">
                    <mxGeometry x="680" y="680" width="20" height="20" as="geometry"/>
                </mxCell>
                <mxCell id="479" value="-" style="text;html=1;align=center;verticalAlign=middle;resizable=0;points=[];autosize=1;strokeColor=none;fillColor=none;" vertex="1" parent="1">
                    <mxGeometry x="680" y="780" width="20" height="20" as="geometry"/>
                </mxCell>
                <mxCell id="480" value="Input A" style="text;html=1;align=center;verticalAlign=middle;resizable=0;points=[];autosize=1;strokeColor=none;fillColor=none;fontSize=11;fontFamily=Helvetica;fontColor=default;" vertex="1" parent="1">
                    <mxGeometry x="530" y="640" width="50" height="20" as="geometry"/>
                </mxCell>
                <mxCell id="481" style="edgeStyle=none;shape=connector;rounded=1;html=1;exitX=1;exitY=0.115;exitDx=0;exitDy=0;exitPerimeter=0;labelBackgroundColor=default;fontFamily=Helvetica;fontSize=11;fontColor=default;endArrow=none;endFill=0;strokeColor=#CC0000;entryX=1;entryY=0.115;entryDx=0;entryDy=0;entryPerimeter=0;" edge="1" source="483" target="477" parent="1">
                    <mxGeometry relative="1" as="geometry">
                        <mxPoint x="615" y="670" as="targetPoint"/>
                    </mxGeometry>
                </mxCell>
                <mxCell id="482" style="edgeStyle=none;shape=connector;rounded=1;html=1;exitX=0;exitY=0.885;exitDx=0;exitDy=0;exitPerimeter=0;entryX=0;entryY=0.25;entryDx=0;entryDy=0;entryPerimeter=0;labelBackgroundColor=default;fontFamily=Helvetica;fontSize=11;fontColor=default;endArrow=none;endFill=0;strokeColor=#0000CC;" edge="1" source="483" target="495" parent="1">
                    <mxGeometry relative="1" as="geometry">
                        <Array as="points">
                            <mxPoint x="450" y="787"/>
                            <mxPoint x="450" y="850"/>
                            <mxPoint x="450" y="915"/>
                        </Array>
                    </mxGeometry>
                </mxCell>
                <mxCell id="483" value="" style="pointerEvents=1;verticalLabelPosition=bottom;shadow=0;dashed=0;align=center;html=1;verticalAlign=top;shape=mxgraph.electrical.electro-mechanical.2-way_switch;direction=east;" vertex="1" parent="1">
                    <mxGeometry x="527.5" y="764" width="75" height="26" as="geometry"/>
                </mxCell>
                <mxCell id="484" value="Input B" style="text;html=1;align=center;verticalAlign=middle;resizable=0;points=[];autosize=1;strokeColor=none;fillColor=none;fontSize=11;fontFamily=Helvetica;fontColor=default;" vertex="1" parent="1">
                    <mxGeometry x="540" y="730" width="50" height="20" as="geometry"/>
                </mxCell>
                <mxCell id="485" style="edgeStyle=none;shape=connector;rounded=1;html=1;exitX=0;exitY=0.25;exitDx=0;exitDy=0;exitPerimeter=0;labelBackgroundColor=default;fontFamily=Helvetica;fontSize=11;fontColor=default;endArrow=none;endFill=0;strokeColor=#0000CC;" edge="1" source="487" parent="1">
                    <mxGeometry relative="1" as="geometry">
                        <mxPoint x="470" y="787" as="targetPoint"/>
                        <mxPoint x="440" y="689" as="sourcePoint"/>
                        <Array as="points">
                            <mxPoint x="470" y="705"/>
                        </Array>
                    </mxGeometry>
                </mxCell>
                <mxCell id="486" style="edgeStyle=none;shape=connector;rounded=1;html=1;exitX=1;exitY=0.5;exitDx=0;exitDy=0;exitPerimeter=0;labelBackgroundColor=default;fontFamily=Helvetica;fontSize=11;fontColor=default;endArrow=none;endFill=0;strokeColor=#006600;entryX=0;entryY=0.75;entryDx=0;entryDy=0;entryPerimeter=0;" edge="1" source="487" target="498" parent="1">
                    <mxGeometry relative="1" as="geometry">
                        <mxPoint x="250" y="700" as="targetPoint"/>
                    </mxGeometry>
                </mxCell>
                <mxCell id="487" value="" style="verticalLabelPosition=bottom;shadow=0;dashed=0;align=center;html=1;verticalAlign=top;shape=mxgraph.electrical.logic_gates.logic_gate;operation=xor;direction=west;" vertex="1" parent="1">
                    <mxGeometry x="334" y="660" width="100" height="60" as="geometry"/>
                </mxCell>
                <mxCell id="488" style="edgeStyle=none;shape=connector;rounded=1;html=1;exitX=0;exitY=0.75;exitDx=0;exitDy=0;exitPerimeter=0;labelBackgroundColor=default;fontFamily=Helvetica;fontSize=11;fontColor=default;endArrow=none;endFill=0;strokeColor=#006600;" edge="1" source="490" parent="1">
                    <mxGeometry relative="1" as="geometry">
                        <mxPoint x="302" y="688" as="targetPoint"/>
                        <mxPoint x="302" y="793" as="sourcePoint"/>
                    </mxGeometry>
                </mxCell>
                <mxCell id="489" style="edgeStyle=none;html=1;exitX=1;exitY=0.5;exitDx=0;exitDy=0;exitPerimeter=0;entryX=0;entryY=0.75;entryDx=0;entryDy=0;entryPerimeter=0;strokeColor=#000000;endArrow=none;endFill=0;" edge="1" source="490" target="500" parent="1">
                    <mxGeometry relative="1" as="geometry"/>
                </mxCell>
                <mxCell id="490" value="" style="verticalLabelPosition=bottom;shadow=0;dashed=0;align=center;html=1;verticalAlign=top;shape=mxgraph.electrical.logic_gates.logic_gate;operation=and;direction=west;" vertex="1" parent="1">
                    <mxGeometry x="202" y="780" width="100" height="60" as="geometry"/>
                </mxCell>
                <mxCell id="491" style="edgeStyle=none;shape=connector;rounded=1;html=1;entryX=0;entryY=0.25;entryDx=0;entryDy=0;entryPerimeter=0;labelBackgroundColor=default;fontFamily=Helvetica;fontSize=11;fontColor=default;endArrow=none;endFill=0;strokeColor=#CC6600;" edge="1" target="490" parent="1">
                    <mxGeometry relative="1" as="geometry">
                        <Array as="points">
                            <mxPoint x="738" y="530"/>
                            <mxPoint x="738" y="893"/>
                            <mxPoint x="488" y="893"/>
                            <mxPoint x="418" y="825"/>
                            <mxPoint x="378" y="825"/>
                            <mxPoint x="358" y="825"/>
                            <mxPoint x="328" y="825"/>
                        </Array>
                        <mxPoint x="648" y="530" as="sourcePoint"/>
                        <mxPoint x="310" y="825" as="targetPoint"/>
                    </mxGeometry>
                </mxCell>
                <mxCell id="493" style="edgeStyle=none;shape=connector;rounded=1;html=1;labelBackgroundColor=default;fontFamily=Helvetica;fontSize=11;fontColor=default;endArrow=none;endFill=0;strokeColor=#330066;exitX=0;exitY=0.75;exitDx=0;exitDy=0;exitPerimeter=0;" edge="1" source="495" parent="1">
                    <mxGeometry relative="1" as="geometry">
                        <mxPoint x="480" y="678" as="targetPoint"/>
                        <mxPoint x="470" y="892" as="sourcePoint"/>
                        <Array as="points">
                            <mxPoint x="480" y="885"/>
                        </Array>
                    </mxGeometry>
                </mxCell>
                <mxCell id="494" style="edgeStyle=none;html=1;exitX=1;exitY=0.5;exitDx=0;exitDy=0;exitPerimeter=0;entryX=0;entryY=0.25;entryDx=0;entryDy=0;entryPerimeter=0;endArrow=none;endFill=0;strokeColor=#000000;" edge="1" source="495" target="500" parent="1">
                    <mxGeometry relative="1" as="geometry"/>
                </mxCell>
                <mxCell id="495" value="" style="verticalLabelPosition=bottom;shadow=0;dashed=0;align=center;html=1;verticalAlign=top;shape=mxgraph.electrical.logic_gates.logic_gate;operation=and;direction=west;" vertex="1" parent="1">
                    <mxGeometry x="310" y="870" width="100" height="60" as="geometry"/>
                </mxCell>
                <mxCell id="496" style="edgeStyle=none;shape=connector;rounded=1;html=1;exitX=0;exitY=0.25;exitDx=0;exitDy=0;exitPerimeter=0;labelBackgroundColor=default;fontFamily=Helvetica;fontSize=11;fontColor=default;endArrow=none;endFill=0;strokeColor=#CC6600;" edge="1" source="498" parent="1">
                    <mxGeometry relative="1" as="geometry">
                        <mxPoint x="330" y="824" as="targetPoint"/>
                        <mxPoint x="250" y="709" as="sourcePoint"/>
                        <Array as="points">
                            <mxPoint x="330" y="715"/>
                        </Array>
                    </mxGeometry>
                </mxCell>
                <mxCell id="497" style="edgeStyle=none;html=1;exitX=1;exitY=0.5;exitDx=0;exitDy=0;exitPerimeter=0;endArrow=none;endFill=0;strokeColor=#000000;elbow=vertical;entryX=1;entryY=0.5;entryDx=0;entryDy=0;entryPerimeter=0;" edge="1" source="498" target="469" parent="1">
                    <mxGeometry relative="1" as="geometry">
                        <mxPoint x="60" y="990" as="targetPoint"/>
                        <Array as="points">
                            <mxPoint x="70" y="700"/>
                            <mxPoint x="70" y="950"/>
                        </Array>
                    </mxGeometry>
                </mxCell>
                <mxCell id="498" value="" style="verticalLabelPosition=bottom;shadow=0;dashed=0;align=center;html=1;verticalAlign=top;shape=mxgraph.electrical.logic_gates.logic_gate;operation=xor;direction=west;" vertex="1" parent="1">
                    <mxGeometry x="164" y="670" width="100" height="60" as="geometry"/>
                </mxCell>
                <mxCell id="499" style="edgeStyle=none;html=1;exitX=1;exitY=0.5;exitDx=0;exitDy=0;exitPerimeter=0;entryX=1;entryY=0.5;entryDx=0;entryDy=0;entryPerimeter=0;endArrow=none;endFill=0;strokeColor=#660033;elbow=vertical;" edge="1" source="500" target="504" parent="1">
                    <mxGeometry relative="1" as="geometry">
                        <Array as="points">
                            <mxPoint x="100" y="1020"/>
                        </Array>
                    </mxGeometry>
                </mxCell>
                <mxCell id="500" value="" style="verticalLabelPosition=bottom;shadow=0;dashed=0;align=center;html=1;verticalAlign=top;shape=mxgraph.electrical.logic_gates.logic_gate;operation=or;direction=west;" vertex="1" parent="1">
                    <mxGeometry x="100" y="853" width="100" height="60" as="geometry"/>
                </mxCell>
                <mxCell id="501" value="Sum" style="text;html=1;align=center;verticalAlign=middle;resizable=0;points=[];autosize=1;strokeColor=none;fillColor=none;" vertex="1" parent="1">
                    <mxGeometry x="530" y="963" width="40" height="20" as="geometry"/>
                </mxCell>
                <mxCell id="502" value="Carry Out" style="text;html=1;align=center;verticalAlign=middle;resizable=0;points=[];autosize=1;strokeColor=none;fillColor=none;" vertex="1" parent="1">
                    <mxGeometry x="500" y="1033" width="70" height="20" as="geometry"/>
                </mxCell>
                <mxCell id="503" style="edgeStyle=none;html=1;exitX=0;exitY=0.5;exitDx=0;exitDy=0;exitPerimeter=0;entryX=0;entryY=0.57;entryDx=0;entryDy=0;entryPerimeter=0;endArrow=none;endFill=0;" edge="1" source="504" target="506" parent="1">
                    <mxGeometry relative="1" as="geometry"/>
                </mxCell>
                <mxCell id="504" value="" style="pointerEvents=1;verticalLabelPosition=bottom;shadow=0;dashed=0;align=center;html=1;verticalAlign=top;shape=mxgraph.electrical.resistors.resistor_2;direction=west;" vertex="1" parent="1">
                    <mxGeometry x="202" y="1008" width="96" height="20" as="geometry"/>
                </mxCell>
                <mxCell id="505" style="edgeStyle=none;html=1;exitX=1;exitY=0.57;exitDx=0;exitDy=0;exitPerimeter=0;endArrow=none;endFill=0;strokeColor=#000000;elbow=vertical;entryX=0;entryY=0.5;entryDx=0;entryDy=0;" edge="1" source="506" target="467" parent="1">
                    <mxGeometry relative="1" as="geometry">
                        <mxPoint x="670" y="1000" as="targetPoint"/>
                        <Array as="points">
                            <mxPoint x="670" y="1023"/>
                        </Array>
                    </mxGeometry>
                </mxCell>
                <mxCell id="506" value="" style="verticalLabelPosition=bottom;shadow=0;dashed=0;align=center;html=1;verticalAlign=top;shape=mxgraph.electrical.opto_electronics.led_2;pointerEvents=1;direction=east;flipV=0;flipH=0;" vertex="1" parent="1">
                    <mxGeometry x="427.5" y="983" width="100" height="70" as="geometry"/>
                </mxCell>
                <mxCell id="507" value="220&amp;nbsp;&amp;nbsp;Î©" style="text;html=1;align=center;verticalAlign=middle;resizable=0;points=[];autosize=1;strokeColor=none;fillColor=none;fontSize=11;fontFamily=Helvetica;fontColor=default;" vertex="1" parent="1">
                    <mxGeometry x="280" y="1000" width="50" height="20" as="geometry"/>
                </mxCell>
                <mxCell id="508" value="Output" style="text;html=1;align=center;verticalAlign=middle;resizable=0;points=[];autosize=1;strokeColor=none;fillColor=none;fontSize=11;fontFamily=Helvetica;fontColor=default;" vertex="1" parent="1">
                    <mxGeometry x="400" y="1028" width="50" height="20" as="geometry"/>
                </mxCell>
                <mxCell id="596" value="" style="shape=image;verticalLabelPosition=bottom;labelBackgroundColor=#ffffff;verticalAlign=top;aspect=fixed;imageAspect=0;image=data:image/png,iVBORw0KGgoAAAANSUhEUgAAAZ4AAAI4CAYAAABa0Y9hAAABJmlDQ1BTa2lhAAAokX2RPUvDUBSGH2sXxQ5+DA4O2XRR22iLYhcrbenaKrQ6SJqmQWxjSCO6uvsfdPMPOLsJjoLg5I8QB2ffpEgCUs/h3PPcc8/9OOdCZhlJNg9DLwya9YrR7hwbpMSyRz6TZQq+36MR3tb/yZskMz1nZMt/ysJAl+vInnjJHfN1xN0x30YcHDYPxPfiNTfF3RRfhX4ofonybT+I+ENcHg4u7eTdzDneUUu+LVuhzoXUZYDDJi3OOcMSVdiR5qmxiyktsM+2eIui1mpUNTMpKceUFeOxpJVqnFlL+nmag/yerr5LYn4Dnh71lFRs9QbmF+B52rcCKw5lZZl+H74eINeBxVeYPfltYrI3+YsJtRp/ajVo4GGzITJVZ4HSD723R912FEA7AAAgAElEQVR4nOy9eXhV1bn4/9n7zDlJzslM5gBhTAIhzCAKKoOiiFOr9lrb/rTVDurl2tY+99r2Vq+/eq21tt46tra2UqvUAQUEiQIRwzwKCSSQOWQeT860p+8fMUcCKATOwLA/z5NHOfucvd699lrrXetd7/suQdM0DR0dHR0dnTAhRloAHR0dHZ1LC13x6Ojo6OiEFV3x6Ojo6OiEFV3x6Ojo6OiEFV3xhAFVVenq6sLlcqH7cujo6FzqGCMtwKWAIAiYTCYMBkOkRdHR0dGJOKdVPD6fLxxyXNRomoYkSSiKgiAIkRZHR0dH54yxWCxBv+dpFU9lZWXQC70UURQFQF/16OjoXFDk5eUF/Z6nVTwtLS0AREVFkZiYiMEYOetce3s7kiQxbNiwiMmgqird3d2oqkqcMw7RENxtMk3T6OnpQfL7iYuPj6iiamttRVFVUlJSIibDwP6YoijY7TFBXzFqmoa7z4UgCMTFBf99ns/Iskx7Wxv26Giio6MjLU5E6evro7e3l4SEBEwmU6TFiRgD/Q1NIzY2NmQWmtNqEVVVATCbLSQmJYdk2XWmuN1uREFg2LDUiMmgKAqKLCPLCskpyRiNwW2kqqqiqSpuj4fk5GRMJnNQ7z8UXL0uZFmKaH3Lsozk9+PzyzidcYhBVsSqqqKqCqIokJScfEkNOj6fl96eHhwOB0lJScClawZub2vD7/ORmJiEzWaLtDgRY6C/qarav9AI0cT3zJcvAoiiENE9ioGSIyqDIIAggND//8GWZeD+AqG5/9BkOU6miMkQ2vrov1///SPdvsPNwLP21+uls9I7JYPq4tJpAycSGN8IbV1c4q1NR0dHRyfc6IpHR0dHRyes6IpHR0dHRyes6IpHR0dHRyes6IpHR0dHRyes6IpHR0dHRyes6IpHR0dHRyeshC0Ngd/Th18ViYqyIobZT172e3F7/Azkhe5P2mnGarUQalFURcbj8aCoGsbPywzJ82saXq8HvyQzkADbaDRhtVowhDkaX1MV3H1uZPWETNwCGI1momzW4Ne7puJ2u1FOLBMQDSaioqznXXikpqr4vF78sowgGrDabJgugcwJiizh9fkxma2YTYMDFCW/D59fxhoVhVE8395YaNEUGVefG7PNjsV0cafWCo/iUbzs2LCOWp+NK+ddQbIjvJHBrUc/44PN+1EE8fPYT4GoGAejxuZRMHYEZmNoOrunq4U9e/ZRVd+EV1ax2WMZOXochXmjgl6m6vdwYEcp+yvrULT+wC+zzU5mznDGjx1NoiM65Ep2AG9PGxs+/Jhjvd5BAWiCIJI2fAxzZkzBbgnu8wt+F5s3rKe1R4ITBqy4pCzmXjED23nUlyVvH5UH91NeWUOX24tosJCUlk5h4URSE2LPOyUZPDS6m+sp3XmAEROmMCZ72HGvS6GpsowdhxqYMXceqXFRkRQ07Pi6W/jg/Q8ZPedaJg5PirQ4ISUs0ytPewObPtnCrh07KatqItwn0vS0HeNwZQ1RzkSGZ2eTk52B6Grh/ZUr2XukKSRl+rqaef9fb1Ky+zD2+GSyMzOwKS4+Wruaj3ZVcoqJ+TmhyRLHaqqobOomIyODnOxMEqJNHNpZyqoPN9Hc2Ru2epe8fRw9XIFbFsnKymZ49hd/w5LiMBhCMKwqfo5WHKatx0d6RjrZx/2lJMUTiiLPGlVi/yfFrCr+lD6sZGZmkZ4Yy9G9W3jz3Q9o6nJHWsKQ4unppKL8EC2dJ55PpdLT2kxZ2SFcXjli8kUK2d3DgT17aO7si7QoIScMKx6Vqv17aTclMS7JQmVlBUXjsoixhHf6aYtyUFA0lXEZ8QBIXbnU/9/LHDhYwYTRaViCOTBpMge3bKK0soPbv/VtJg5PQRQFZJ8L29v/ZP3aD5kwJos0hzWIhfZjT0hn1uxZ2CwmVEWmoeIzVq3bxLb9qVwzeyKmEK3uTkQwWsgcOYZZcyZz/OJGEMTQKJ7+mxOfks3U6dMxD/pY5HyyYLmOVbBu03bSpi1gyZXTiDIb0DSVguFJPP+3d9mybxw3XF6gb8DqXLSEvG0rfZ1s319Bdt5UZk3No7exmsa27lAXexKCIGAwGDAajRiNRqxRUdjMBiS/L+irD8XVxe6ySpJGTWbCqAzMZlN/mXYnE4smkmRS6XKFZlYriGLgGc0WK9m5oxmTnUz5wUO4/FJIyjwVIiCKX9T3wF+o95uOf/5wlTlU6g7upVmJZlpRAbFRFoxGIyaTmZRR+Vw/fy7pMUZkNdJS6uiEjhCveDSaayqo6VJZvDSPFHMPMcIBqmrqGTEsDlMY7R+y7KejvY0ms4wm+6nZv4MWycLVeWOwBnlc8rl76Ol2k16QxYlbGcljpvCj+ydiDlOWb9ESRUpCAuqRSrrcMnFR4SlXU1Vcvd00Nzdj/rwORNGIM86J2Rii1a6m4fO4aG1tDax4BNGII86J6bzZqJZpPdaBJTYWZ4x98CWDjaK5V0dGrDCjqQo93Z00N7cgBvqITEevC0U/Hv6iJ6SKR/O7KT9YgSkpi9zUeKJkE1nDnFRX19CVP4qk2PA5GfT1dFC6YT0HbBZUxc+xhkbiR0xiZEZi0DdyZdWPJKtYzSen2BcNRmxRYTzTSBD75dAUFCV8HVqWvBzav4vuY1WBZbXNHsfcaxeQFR8TkjI1TaOp9jDr13YwoNoMUU4WLlpIfDjr/CtR8HgkrEY7JoMB0Ojr6qCxpQ2/rCIIAvbYONJTUwiTVTQiqH4Pe7dtpuHQ3uP6n0pPeyt9/vPlXemEipC+4Z62Jg7VNpGUU4S/twOfIhHtcND5WR2NrZ0kxNhOdEAKGTa7gwlTpjE8KRZVUehpP8a2Lbsp3XWQRZdPwWYMniCiaMRgEPDLyimuaqiqhiiGa1RR8csyCCJhKxIwGM3kjBzLtAmjMYkDn1lJsAd/X2sAQRBIGJbNjJkFDKh80WjGbj6P3NkQsViMSN0KsqoARnqaG9m7cx89Xh/tx5pIGFXIrUuvIcZ8vqzSgo9osjA6byIFI9KO239TqNq7i9LDoXH40Tl/CJni0VSJ+uoqGts6UV3beLV6PwBet4u2bg9HahsYnZWCLUz+6maLjczsEYzOTABAVXLprS5jy4FyZk4uwBbEjX6LNZroaCstTceQtPGYjhs/uusr+WhbBVPmziEzRDP/41F9Xlo7OsHqJNoavpmkaDCSkJxK7pgxJ5kbQ4YgEO1IYPjIkUTu+LzTYSQpPRFfZTUdPX2kRDuJzxzOFc4kZNXDur++Rlefm4vd2iQYTKSkZTJ6zEgMgdmnhNRUh7myJaKy6YSekI1EUl8PR6tqicsay6yiPKyfKxhV9lG2dxdVh4/gmpyHzRQZX31REFEUFVU71ark3DBGOxmbk8Zb+3ZxtGkKY1IdAGiKj4M7tlCyt5XJc+cGvdyT0FRa62soP9JA1vhZOKyXzuma5y8COeMLid+4n927D5CTPBNbVDRJUdGAm2izka5Ii6ijE2JCpHg0OtuaqW3uYuzM+UyenPdFRLam4BD9vLFuG9XHOkmKDY/ikSUfbS3NNApeFL+PxqOfUVLWxOg5k3FGB3fDXTBYmXr5PHYffJk331jBonmziLebaD5SxtqdlUyas4SMEAXHSV4XTY2NGASF1mMNbP20lL6oVK6ZNO6kKPFQoqoKvd0dNDc0ELBiCmC22nHGOS65qPTjsaflcs3lk/hXyUcYZA+Txo/AICi011Wyv7WH7BwnxvMq8EhHJ7iERPFoikR3RwcW5zBGZaZiPN6dVTAwLHs4I4Ydov5YG1PHpIdChEGYbVGYDAqb169miyigyDKCyUrhFQuZe/kUrCHo5LaUHL519//Hhx9toHj1SmQVrPZYply1mCtnFwZ/b0sUiY51YKg9wpsrVqAqCqLRQs7oQq6fPoX0ZGfYouFFo4noaCtVB/fQUPHZFxcEkdSR47luwVzi7EE2hokGnM44bCHcQwoagpGCK65BsMexZddB/nVwJ4oGVnsMEy9fxJzLpnHe+EKEAKPZijMuDpvlxBW4gDkqivj4OMznmQt8OBCNZuKTkoiynL+G4mAhaNpXW5OLi4sBiE9IIDc3F7P59KsDTVPx9rlw+zViY6MxneA+2+9K2Y0smklwRJ+xsEePVOL1ehmfl3/GvwHwe3rp7O47LnJfwGyx4XDEHGdfPjMURaGhoR5ZlsnKysJo/Grzlez30t3dg6SCzWYnOjrqK8tUVZVjxxrxuN1k5+RgMp1ZI9RUFZerB7fb2/+cgoDZbCUmJuasg0YrKw4jSRLjxucN6XeqLNHV2YlfOTEYRcBotREXe+b1Lssy9fV1+H0SiUnJiIYvWbWpCp1dXYhmG7HRUWesZFVVpb2tFYMIWdnZp32fwURTFTx9LlxuLxoCVpud2Bh72FIb+XxejlRWkpScTFJScngKBSSfl15XHzZ7LLZB5l8Nn7sPl8dPjMMZslRWp6KtrY2W5iaGjxiJzRbelF4DqLKP9vYubI54oiNkFh/ob6qikJaWhsFgIDr6zMfoMyUk8ypBELFFx/Jlr08QDTji4kNR9Ckx22JIsYV+I/9UGM1WEpJCPwsXRJGYWCcxsSEv6rSIRhPxYRzI+gs1EBefEN4yzxFBNBAV4yAqxhFpUcKKyWIl3nKqPiFgiYrGcmmlaAsgGi0kpaREWoywcOmtZ3V0dHR0IoqueHR0dHR0woqueHR0dHR0woqueHR0dHR0woqueHR0dHR0woqueHR0dHR0woqueHR0dHR0woqueHR0dHR0wsqQFM/FnjH3fEKv6pMJdZ1csu37kn3w49HrIJycNmXOpk2b0DQwGg3YbDaEcOXzOAVenw9VVYmKUEqLAXx+P5qmYTGbQ1Iffr8fVVWxWCyRrW+vF1XTIlrfmqbh6utD8vtDls5GliVMJhP26GjECNZ3uNE0DY/Xi8lkwmS8iJPDnQGyLOOXJKwWSxjPyjr/0AC/z4fT6SQ1NTVyKXMSE5Px+rxoqoLT6cTwZbmywoDH40FRVaLt9tN/OURomobP50PTNKxWa9AVg6Zp+P1+FFWNeCdwu91omoY9gvXt9UnsrGhl28Ea1BDNzAVBoGh0BvOmpBJlvfgTNA6gqipWjweTyYTZfOk896nwSxJ+vx+b1RrRMS7SaJqG1+fDFoKx7XhOq3gSkpLp7GhHkf2kp6djsQT3CIGh0NHZiSzLJCclRUwGTdPo6elBVVUcDkfQFYOmafS6XEiShNPhiGgnaO/oQFVVkhITIyZDl1vm0G4DLzc6wNsJ1RtAkYJzc0GEEfPAmoBpZBJfT88iIfrSObNIlmU6OjuxR0VFdHJxPuB2u3H19REXF3dJr/5UVaWnpwdJkiKreDRNA+3z/+rohBtBQLM4IdYIkgvhszfA3xOUW2uiCUZeDbHpqDZ7vyLS0dEJOZeuate58FBl8HSg+YKjeATRhKbJQbmXjo7OmaNP8XR0dHR0woqueHR0dHR0woqueHR0dHR0wkrQ93g0TaOjowOXyxX4zGw2k5KSElbXYFVVaWtrw+PxBD6z2Wz9XiumC9dzSVEUOjs7A67Op8JsNhMVFUV0dHTIvOI0TaOtrQ23233K64Ig9MfG2O3Y7faLxkVVVVU6Ojqorq6moaEBl8uF3W4nMzOT7Oxs4uPjL7o4EFVVaW1tDTyz2+3GZrORmppKVlYWKSkpF3SfGgo+n4+6ujpqampobW1FVVWcTicZGRlkZmbidDojGnt3oRB0xePxePjtb3/Lli1bAp+lpKTw1FNPkZqaGuzivpSmpiaeeOIJDhw4gKZpCILA2LFj+eEPf8jYsWPDJkew6e7u5oUXXmDjxo0oinLSdUEQsNvtJCYmUlhYyOLFi8nJyQn6YCjLMr///e/59NNPT3ldFEXsdjvJyckUFRVx4403knKBH+vr9XpZvXo1K1eu5ODBg7S2tuLxeLBarSQnJ1NQUMBNN93EFVdcEZKgu6Hicrmor69n2LBhOJ3Os7qH3+9n1apVrFixgvLyctra2vD5fJjNZuLj4xkxYgTXX389119/PYkRdLsPNZqm0dDQwKuvvsqGDRuor6+nu7sbVVUD7bywsJDbb7+d6dOnX/JxUadFOw3Hmtu0srLD2v79+zWv13u6r2sHDx7URowYodEfBKsBmtVq1ZYvX66pqnra338V7R0dWnNLy2m/p6qqtnr16pPkSE9P11577TXN7/eftQyqqmpdXV1aR0eHpijKWd/nq+7f3dOjtbW3a7Isn3S9sbFRu/322zWj0Tjo2Y7/E0VRM5vNWmJiovbNb35TKysrO6u6b2tv11paW095zefzaUuWLPlSGY6XIyEhQbvjjju0pqamIcvQ6Za1ZW93aCyr1bhzjSZYYr+yzKH8CaJJ49/e01hWq333jXatzXVyfQ/Q29ur/epXv9IyMzM1s9l8yvtZLBZt3Lhx2ksvvaS5XK4hP2uwkGVZ279/v/aDH/xA+8Y3vqEdPHjwlN+TJElrbmn5UlllWdZeeeUVLSsrSzOZTKd8ZqPRqGVlZWm/+c1vtO7u7lA+Vkjp6+vTmltaNL8knfL6sWPHtNtuu02LjY3VRFE8ZV3YbDbt8ssv14qLi0/Zdy8EFEXROjs7tZaWFq2np0fr7e0NSTlBX/GsX7+e2tpaDAYDVqsVn8+H1+vlzTff5IYbbiAqKirYRZ6Ex+Nh8+bNtLS0AOB0Ount7aWlpYVt27axaNEi4uPjQy5HOBg5ciQZGRmBf2ufB7iWlZXR1tbG22+/zejRo7n//vuJiYkJiQxGo5GRI0eSnJwcWFkNmKSqqqpob2/nn//8J+PGjeNnP/vZBWd2kySJF198kccffxyv10tMTAzXXXcdN910E0lJSVRXV/Pyyy+za9cuysrKePLJJxkzZgyXXXZZRMwu+/fv56abbqKmpoYZM2Ygy2fnMn706FEef/xxamtrsdvtLFmyhJtuuonExETa29v561//SnFxMbW1tbz44otMmzYtYs8cShRF4c0332TlypV4PB7S09O58847mTVrFkajkd27d/P8889TW1vLp59+yt/+9jfGjh1LWlpapEU/bwmq4unu7ubdd99FlmUyMzNZsGABmzZtoqKigtLSUsrLyykqKgpmkaekvr6eXbt24fF4iI2N5ac//SnPPvssDQ0NbNmyhbq6OuLi4sLSQT788EMef/xxDAYDDz74IIsWLcIYxMjoH/zgB/z7v/974N+apuFyufjjH//IL3/5S3p7e9m2bRvt7e0hUzzR0dE8/PDDfOMb3wjY+jVNo7W1lSeffJLnn38el8vF+vXruffeey8ok4ymaezYsYOXXnoJr9eL0+nkwQcf5Ic//CEJCQmB71111VX89Kc/5f3336e2tpZ3332XadOmDcr0oWkakiTR19eH1+vtz/dnsRAVFXXK9EuKoiBJEpqmIYriSfcayOkHYDKZMBgMSJJEW1sbLS0tqKqKoiiByZ/ZbB6SybW0tJTq6moMBgNz587lqaeeIjs7O3B91qxZ3HvvvWzcuJHW1lb279/PzJkzMRqNqKqK//OchqIoYj4ur6GmaciyHFCIJpMp0CckSQp8PvAbt9tNX18fqqpis9mIjo7GaDSiKErgmqZpg64Fk56eHjZs2IDX68Vms/HAAw/wwAMPBNr6woULGTduHPfeey89PT0cOHCAY8eOkZqaiiAIg57p+GeF/gmaJEmoqoogCIH8jMe/34HPZVnG5XLh9XoRRZHo6GiioqIQBAG/3x+4NpBfbeDa+UhQ39C+ffvYuXMnoiiSm5vLLbfcQltbG1VVVbS1tbFu3ToKCgpCuhGpKAoHDhzg0KFDKIpCfn4+S5cupbS0lMbGRg4fPsyePXvIy8sLegM9FR0dHezYsQOj0UhbW1tgoAgVgiAQExPDggUL+N3vfkdTUxN+v/+sZ73nIkdSUhLTp0/n73//Oy6XC7/fjyQFKd1NmPB4PHzwwQfU19cDMHnyZL7zne8MUjoA2dnZ3HvvvdhsNqxWK7m5uYPetSRJVFdXU1JSwieffEJZWRmSJDFixAimT5/OvHnzyM/PD+wNaJrGwYMH+eijj3C5XGRmZnLbbbcFrvt8Pt58801qa2uJiopi7ty5jB07lrVr1/LBBx8E6vnYsWO8+uqrjBkzhltvvZXk5OQzem7tcyehgYHPYDCgKAqqqgaUV2pqKj/60Y+YPHkyALm5uYFBs7a2lpUrV9Lb28uIESO48cYbsVqtQP9e2caNG9mzZw+KonDllVcyc+ZMZFmmtLSUrVu34vf7ue666/D7/axcuZLNmzfj8XjIy8tjyZIlzJw5k7KyMlatWkVpaSl+v5/8/PzAHlswUwD5fL6As5QgCBiNRiRJCoxjgiBw+eWX89Of/jQwwRvYU1MUhdLSUkpKSjCZTFx11VUUFhYGVv1NTU2sXbuWxsZGYmJiuOuuu3A4HHR0dLBu3TqOHj1KYmIiN954I5s2bWLVqlWUlZURExPD7Nmz+drXvkZcXBzFxcWsXbuWQ4cO4XA4mDNnDrfeeitjxow5L51dgjbySpLE6tWr6e7uxmazMXHiRCZPnsy0adMoLi6mr6+Pjz/+mH/7t38bZBoKNr29vezYsYOmpiaMRiPXXHMN2dnZzJ07l/Xr19Pd3U1xcTFLly7F4XCETI5I4na72bNnD263G4vFQm5ubtifVdM0urq6qKiowOv1IggCeXl5xMbGhlWOc0FVVZqbm9m7dy9erxeAK6644pROMkajkTlz5lBYWIjVasVmswUGF1mW2bFjB7///e9Zt24dvb29JCYmIooihw4dYvXq1bz//vssW7aMa665BqPRiKZp7N69myeeeIJjx44xZ84cbrrppoDi8Xg8/OlPf2Ljxo0kJiYSFRVFVlYWb775Jm+88UZgolFbW8sf/vAHhg8fzuWXX37GikcQBNLS0jCbzXi9XrZv384zzzzDtddey/jx40lOTsZisXDttddy7bXXnlRvVVVVPPnkk9TX17Nw4UIWLlwYUDwej4eVK1fy5z//GZ/Px69//WtmzpyJJEkUFxfz29/+FpfLRWNjI5WVlRw6dAiv10tnZydbt27lo48+YsmSJWzfvp3q6mo0TaO9vZ1t27axbds2Hn/8ca655pqgmXRtNhuJiYkIgoDX6+Xvf/87giAwe/Zshg8fTlxcHPHx8YMsDwMoisL69et59NFHifo8J15+fn5Atvr6ep577jm2b99ORkZGYFxqa2vjL3/5C+vWrSM7O5va2lreeecdent7cblcdHd3U1JSwo4dO8jKymLt2rX4fD48Hg9dXV1s2rSJQ4cO8cQTT4R0vD1bgqZ4jh07xsaNG9E0DYfDwbRp04iPj+eyyy4jMTERl8tFeXk5u3fvJj09PSRLQE3TOHbsGNu3b8fj8ZCcnMyVV16JxWKhqKiIzMxMDh06xObNm6mqqqKwsDDoMoSb9evXD3IZH+iEa9euxePxUFRUxPXXX3/WXk1ngtfr5f3336e+vn7QHk9jY2Ngxl5YWMi3vvWtsOzxBQtZlqmqqqKurg5FURAEgdGjR3/pStlisZyURFfTNOrq6njuuedYuXIlgiBw1113ce2112IymdiyZQuvvfYaJSUldHV1kZqaypQpU85KXqvVyg033IDJZOIf//gHfn9/Yt9rrrmGMWPGkDTE5LpTp06lsLCQLVu20NTUxJ/+9CfWrVvHmDFjGD9+PFOnTmXy5MmkpaWFxHrwzjvvcNVVV3HPPfcgSRIvv/wymzZtorq6mldeeYVp06bx+OOPExMTw5///GdWrVpFRUUFq1atYvbs2cTFxQVFjujoaBYuXMgHH3xAR0cHu3fvpqamhpEjRzJu3DgKCgqYMWMG48ePx+FwBH1sa2pqYsWKFXznO98hPz+f/fv388ILL1BdXc3atWtJSEjga1/7GldddRU1NTU888wzHD16lOLiYrZs2cLNN9983pncgtJaNE1j27ZtVFRUIAgC2dnZFBUVYTAYyMvLY9y4cVRXV9Pe3s4nn3zCvHnzQuJuqigK5eXlfPbZZ2iaxqRJkwJLzeHDhzNx4kQqKiqor6/no48+YuLEiUF9IR6Ph1WrVrFhw4aAqePIkSP4fD78fj9//etf2bx5M6IoYjQamTlzJrfeeus5ZfwuLi6mpKQk8G9N01AUBa/XS05ODvfccw8zZ84MqXnT5/OxatUq1q5de5Id3+fzkZuby3/+538yderU864DfBWyLNPU1ER3d3fgGIyhDt6yLLNlyxbWrVuH1+tl6dKlPPLII2RkZCAIAtOnT0eWZZ577jn27dvHiy++SF5e3lm1CavVypIlS3A4HKxYsQK/309GRgZ33303+fn52IZ4rlJWVhaPPvoo999/P2VlZfT19VFeXk5FRQXr16/H6XSSm5vL9ddfz9e//vWgTyhtNhsPPfQQeXl5KIoSmFT29vYSHR3N3XffzY033ojBYMDlcrFmzRokSaKuro7u7u6gKR6DwcCSJUsoKyvj2WefxeVy0dbWRltbG7t27QqEL0yZMoU77riDK6+8MuimvkWLFvH973+f6Oho8vPzA3vVsiyTl5fHsmXLyMrKoquri+LiYqqqqujr66OyshJFUcKyrTAUgiKN2+3mo48+oqenB1EUKSoqIisrC4C4uDiuvvpqPvjgAzweDzt27KCuro5x48YFfr9nzx7++te/0tXVxdKlS1mwYMGQOwn0z7w/+eQTWlpaMJvNzJs3L2DaGWgYa9asobe3l3feeYe77757kOlHUZTALGLcuHHMmzdvSOX7/X62bt3KK6+8EjDNaJoWCPTcuHEjmzZtAvo3ThVFYenSpeekeHw+Hz6f75TX6urqePbZZ3E4HFx33XVYrVZUVWXnzp387W9/o6+vj5tvvpmrr776nOIONE0LPO+pOHLkCD//+c+xWCyDTCCKonD06FHWr19Pfn4+c+bMOWsZQoUsy1kOvz4AACAASURBVIG9GkEQhjywer1eSkpKaG1tJTo6mhtvvJH09PTAyjApKYlFixbx9ttvc/jwYTZu3Eh9fT0jR44csqyCIGC1WgdtKhsMhoCJZ6gYDAauvPJKli9fztNPP83q1atpa2tDURT6+vro6+ujsbGRbdu2sXv3bv7nf/5nkPPBuVJQUMCoUaMwGAwYDAZSUlIwGo0IgkB6ejpFRUWBdpudnY3VasXr9Q7azO/s7OS1117j448/ZtKkSdx+++2MGDFiyO/R6XTy85//nMLCQp5++umA+VWSJLq6uujq6uLo0aOUlJTw8MMP8+1vfztoysdqtTJ//vyAc1BsbCxOpxNRFFEUhWnTppGRkRGInRuY1GjHnR0G/VaI+vp6Pv74YxISErj22msjtv8TFMVz9OhR9u7diyRJWCwW8vLy6OzspKurC4D8/HwcDkfA5r97925GjRqF0WikvLycZcuWceDAAXp6elizZg3PPvsst9xyy5DlaGlpoaSkBEVRSEpKIisri5aWFkRRRFVV0tPTSU5Opre3l71797Jjxw6uvPJKABoaGnj//fd55plnqK6u5v/+7/+GXP7Axn5KSkpgIPZ6vXR1dSEIArGxsQGFajabiY2NPecZ4gMPPMBtt90W+PdAxoYVK1bwzjvvsHfvXh577DFSUlKYPXs2+/bt46GHHqK8vDxQ3y+99BKLFy8+axliYmJ48MEHWbBgQWBmpSgK9fX1/Otf/2LNmjUcPHiQn/zkJ8TFxTFr1izq6up47733ePrpp2lvb+fZZ589p3oIBaIoEhcXF3hnHo+Htra2L/2+pmmBzfeB9zoQ6a6qKtHR0YOUzgBpaWkkJiZSUVFBW1vbWSueUCAIAhMnTuT555+nrKyMtWvXsnHjRg4cOBDIoOHxeHjrrbcYN24cP/7xj4M2u05MTBy0UjcYDIF6tdvtg6wmoigG6nVgoO3q6uLXv/41y5cvx+VysXr1aioqKnjsscfIzMwcsjw2m42vfe1rXH311ZSWlvLBBx+wbds2qqur6enpwe/309DQwHPPPUdBQUHQJlJms3mQJ+iJE6DExMTAZG7AEeREWltbWbNmDb/73e+orKzkkUce4ZprrgmKfGfDObeQgY3TqqqqgLvoU089xfPPPx/4zoALKfRXwLZt21i4cCHx8fFUVFTwwAMPEBMTwwsvvMB7773H3r17z8ouuX37dsrLy4H+RvfII48MWjm53W4aGxuBfhfJd999l9mzZ2OxWHA6nSxatIi///3vVFVVnVVd2O127rnnHm6++ebALHnt2rX84he/wGAw8B//8R8sXrw4MGs7flA7W7Kzs5kxY8ZJn8+YMQOXy8Xbb79NWVkZGzZsYMqUKdTW1vLQQw9htVp59tlnWbduHXv27DknxWMwGALeWSea9IqKimhsbOTTTz+lpqaGVatWMXnyZOLj41m8eDF//vOfv3IwjyRGo5HMzExSUlIoLy9HVVWqq6tRFOWkzj2wv7h3717i4uLIzMwkNTU14C4LBEysJ2IwGAKD5oDn2Ikcv3IOFwOyS5KE1Wpl0qRJFBYWct9991FZWUlxcTFvvfVWIHRhzZo13HPPPSe5y6uqelayf1X/N5lMpzUfNzc3M2HCBG677Ta2bNnCo48+yuHDh2lpaRmS4hkwX/v9fgDi4+O57rrrWLhwIS0tLezdu5f333+flStX0tDQwJEjR9iyZQvTp08fNMkYmJgMldONgzab7bTfsdvtLFiwgDVr1nD48OEhyxBszlnxdHZ2sn37djo7O4EvzCdfhs/nY8eOHdTW1hIfH8/cuXOx2+34fD62bt3K7t27mTRp0pCVjs/nY82aNQG3R6/XS2Vl5Vf+5uOPP6ampobRo0cHlsUDnjdng8FgIDU1dZDX08GDBxFFEYPBQEZGBnl5eWFJpxEbG8uoUaOAfhNgTU0Nsiwzb9487HZ7wKW1rKwspLFVaWlpDBs2DOifgNTX1+Pz+QJedudS36HGYDCQk5NDXl4epaWleL1ePv30U+66666TvMMkSeLjjz/mV7/6FRaLhSVLlvCzn/0Mk8k0yCOqq6srkMJpgM7OTnp7e4H+93aq4GZJkgalSFJVNaSu+V1dXWzcuJGqqio8Hg833ngjY8eORRAEHA4HkydPpqCggJycHJYtW0ZDQwONjY24XK6TFI/X6z1JdkVRQq5Is7OzGT58OGazGbvdzquvvsrYsWOHlLpJ0zQOHTrEtm3baGhoICEhgTvvvBObzYbJZCI9PZ309HRmzJiBKIo8//zz+Hw+GhoaUBTlJMUzEL818G9FUU6Z+irYREVFYTabQxbLN1TOSfFomkZ1dTV79uzB5/MRFRXFHXfccVKMA/R3nLfffpuqqioOHz7Mvn37yMvLC1REW1sbDQ0NLFmyhFmzZg1ZlpqaGjZt2oSmaQwbNoz58+efMnK4s7OT1atX09DQQE1NDZs3byY3N/e89HU/FzweDw0NDUD/jCk6OjpgA4b+2WBzczO33HIL06dPD5kcHR0dgUmJIAhERUVdMJkLBsyjV199Ne+99x41NTVs3bqVt99+mzvuuGNQJ66srOQf//gHR44cQRRFFi5cGMjeMeAs0Nvby9atW7n66qsDK11Jkti3bx/Nzc1omsa4ceMC+6NmszlQV16vd9A+WkdHR8CUfSq5z5Xe3l5eeuklPvnkE0wmExaLheHDhw/ajzQYDMTGxgZWcQPBkYIgYDabA5OK7u7uQfuQvb29tLa2hnzAHShf0zTKy8sD3l9DVTyfffYZv/71r6mrqyM7O5spU6acNDm22WyB9nB8IOjxbV6W5UB+N+hXwO3t7V/6Hi9mzknx+P1+9u3bR2VlJZqmMXbsWB555JFTuu5KkoTH4+GFF16go6ODkpISrrvuOhISEgIxPomJidxxxx2YzeZBAVqnQ9M01q1bR11dHaIoUlhYyLJlyxgxYsRJ3+3s7KStrY13330Xt9tNcXExN9xwwwWbQqe+vp6dO3cO+sztdrNmzRrWrl0L9Dt4HL8R29PTQ3FxMdnZ2dxxxx0AQ6rvE1EUhZqaGnbt2hUYhAbieFauXMmePXvQNI3o6GimTJlyzubFcCKKIldccQVLly7l2Wefpbm5mSeffJKqqirmz59PbGwslZWV/OUvf6GkpARVVSkoKAg4jWiaxqxZs8jNzeXAgQO8/vrrgeStBoOBLVu2sHz5ctra2oiOjubOO+8kLi4usL80MHg2NjayZcsWFi9eTHd3N6+//jo1NTWnlNlutwfepSRJeL1efD4fRqPxjJV+QkIC2dnZrFmzBoDXXnuNrKwsFixYQExMDIqicOjQIV577TWampoCe0EDfT82NpbExEQqKyupr6+ntLSUYcOG4Xa7Wbt2LTt37gzLTB/g8OHDrFmzhrvvvpsZM2bg9/sHmTe/ClEUGTlyJFarlb6+Po4cOcIzzzzDQw89xJgxYzCZTPT19bF+/XpWrlyJoig4nU7y8vIwmUyIosiwYcOw2Wy4XC62bt1KfX09o0aNorq6mrfffjtg/r+UOCfF093dzZYtW2hvb0cQBK666qqAd8WJaJrG/Pnzef311+ns7KSkpIS6ujri4+NZt24d69atY/HixVRVVbF8+XIefPDBM4496enp4a233kKWZex2O4WFhYwcOfKUy8ro6Gjmzp3LmjVr8Hg87Nmzh/Ly8rNaZZ0Jl19+OW+99VYgO3aw3Rr/8Ic/8Nxzzw367PiUJAPpTmbPno3JZAoE+n7yySdce+21VFRUUFJSwk9+8pOzVjwul4vHH3+cJ5544kvlAJg2bVpgwL2QcDqd/OxnPwvknDt69ChPPfUUzzzzDIIgDEp7kpGRwY9+9COKiooCM96ioiK++c1v8r//+78cPXqUe+65J5DB4+jRo9TV1WE0Grnvvvu4+eabA/1nzJgx5ObmBjJ//PCHP+QPf/gDPT09HD169EvrMSEhAYfDQWdnJwcPHuS+++5j5MiRPPbYYwHz6+mIiori29/+NmvWrKGqqoo9e/Zw3333kZubi9PpRJKkgOyyLDNs2DBuu+027HY7giCQkpLCxIkT2blzJ52dndx///28+OKLARO42+3GaDSGPKNGdXU1Dz30ELNnzyYmJoYVK1aQk5PDFVdcccYm73HjxnHLLbdQXl6Ox+PhH//4ByUlJeTk5GCxWOju7ubgwYMBr97Zs2cH8rgN/D47O5sDBw6wceNGbr31VlJTU2loaKC+vn6Q08SlwlmPgpqm0djYyN69ezGZTAG36S+bRQxErhcUFLB161ZaWlrYvn07ra2tPPzww9TU1LBixQoAbr311iEFGh48eJDDhw9jtVpJTU1l8uTJX+rKKIoic+bMISMjg9raWjo6Oti1axeFhYW0t7fj9/sxm820tLQEzlo5l0Zx4p7PuTJwzo3FYgkMPMfb+gVBQBRFbDYbdrudOXPm8OMf/5icnBxUVWXt2rU88sgj1NXV8frrrwPwjW9846wCOwfkGODL5LDZbFx22WU89thjg/Z72tvbkSQJo9FIa2srfX19521+qZSUFP74xz9SUFDA8uXLqa2txefzoaoqJpOJ2NhYJkyYwPe+9z0WL148aFUXExPDd7/7XeLi4nj55ZepqKhg586daJqG2Wxm7Nix3HXXXXz3u98d9LusrCwefPBB2tvbOXToEB0dHWzbto24uDi++c1vomkazz///KC2AP1t7jvf+U4g5uTgwYO4XK4hm3SKiop44YUXePjhhzl06BDd3d1s3bo1sEc1kINt+PDh/OAHP+Cqq64KyJGYmMi3vvUt6urq2LJlS2CSGhsby6JFi4iLi+ONN96gvb19kOxGoxGLxXLKFfhAvjqLxYLJZBrUTgauqaoayPFWU1PDww8/THFxMR9++CEAOTk5/O53vxvSBNBqtfL9738fl8vFK6+8QldXF7W1tYGsCQN7uLGxsUybNo2HHnpokMt2fn4+999/P08//TT19fUcPnyY6upqMjIyuPfeezl8+DBr164dlM9uwFw58LzHj6sDY4DVag2UfTxGoxGr1TqoXciyHPA0Hkjf1dvbS2xsbES2Gc5p+m02m1m8eDHz5s0jKSmJSZMmfeX309LSuO+++wJeWLGxsdTU1LB06dJB35szZ86QNuBFUeSuu+5CURRSU1NP8iY5kVGjRvHAAw9QW1uL0WgkIyOD+vp69uzZw7x58wIBl/v27WPy5MnnFGcTbOx2O4sWLSI9Pf1Lz+NxOp04HA7GjBlDQUFBYHNbkiQaGxu56aabBv1m3rx5Q16JiaLI9ddf/6VuvwaDgZiYGBITExk1ahSTJk0alLanoaGB0tJSFi1aFPD6OnDgAIWFheftWSYxMTEsW7aMW265hb1791JeXo7L5SIpKSkwqTo+Q/fxOBwOvv3tb7NgwQJ27txJWVkZPp+PkSNHMmXKFHJzc096blEUmT9/Prm5uWzatImqqiqSkpIoKiqioKCAbdu2YbFYsNvtFBQUBAYtk8nEsmXLKCoqYvfu3QCMHTuW3NzcIT2vKIpcffXVLF++nFWrVrFnzx4aGxvp6+vDaDQybNgwxo4dy/z585kyZcqgyYsoikybNo0//vGPfPrpp5SVlREbG0tRURETJkygoqKCuLg4+vr6ApkajEZjwBTm9/tP6sdjxozhe9/7Hh6Ph9zc3EGOKWlpaXz/+99HkqRAiqjq6mrGjx8/KLYoPT2d8ePHD3mwHYjjmTdvHh9++CGVlZW0tbXh9/uJiYkhIyODKVOmsHDhQoYPHz5IGdjtdu68806KioooLS2lpaWF4cOHM23aNFJSUiguLmb06NHExMQErDRxcXEsXbqU8ePHY7VaAxM26M+QMX/+fBITE1EUhQkTJgSuDVg4LBZLoD5FUaSlpYXNmzeTn5/PiBEjiI+PZ9++fSe9t3AhaKdxLWlqaaerowNZ9jFq1KiIDsIdnZ3IskzyEKPHg8nAsQOqquJwOII+W9A0jV6XC0mScDocETVLtX+eJDIpgtmkuzwKj67t4bclLmg9gPDG19F8PUG5tyCa0O54C5In8t0Zdh6/1kGC/cIyA54LsizT0dmJ/QwCTAeCRnt6evD5fIGJRWxs7EVx+qjb7cbV19d/QvFpJmF+v5+enh5cLheKomCxWHA4HNjt9gveSUlVVXp6egIu9AOOScHm/MqjoKOjc14yYEq6kJK8hoqBgM4L6XiP8w1d8ehcElitVhYuXMj8+fMDnwmCiDg6HzHKydhkE9HmC3u2qqNzoaArHp1LApPJxNSpU7nxjrup7ZSRP98e00QREBAE2FnfH2uSn2om1qorIR2dUKErHp1LBlEUWXNI4u7V3dD35VH/G+9L4vLc8zejgo7OhY4+rdPR0dHRCSv6ikfnwkE0QXQKgnno7p9CdDSCOfjeOTo6OkPntIrH7/cjK3IgCj2S7r0DWW5DHe38lTJ8nmFW/VyOULhTq6qKpqrIYUik+FUMJKKMZH3LsoqqfW4Wi05Fm/tzUIcuT4/NhDg8/4y+qyhKRJ85XAwk6lQi/I7PBwJ1Icucf+HL4SPUyWcHOK3iaayvRVFkrFYrnZ9HvUaKgcbR1t4eMRkG5AACgY/BJqBgOzogglH850N993g1PJ7PPQEsMZB9xdndyCIgOs8sM293bw9t7Re/Ffr47MhutzvS4kSUgQG38/Ozsy5lFEXBHOLYrNNqkeycbLo6u5AkP7ExMZgiGFXu6u1F+TxwM1Jomobb7UbTNOxRUQjBDhjTNNweD4qiRDwgrbe3NxAoGzGMElZfJTRVg3oOqz+bEa13DESln/ar0VF2HI7zM3tCMFEVhV6XC4vFgtViiegkJ9L4fD68Xi/RdjuG8+yY6HCiqSpujwctxKue09ZwXFw8fp+P3l45kDcoUng8HjRZxhbBM1w0TUPy+1FVNZArKej3/9zsYT0hB1e4cbvdCIIQ0fr2eb0YDy7H9OYz57TCjImJQR71M0j50Wm/azabI/rM4UKWZfrcbswm0wWVMTwUaKqK3+/HYrWeNnPBxYz6eT1IkVY8OjoXAwOHcPX1doG3F3wn5LkzW8BmBUHEaLh0Z/46OuFAVzw6lwR+v5/169cTVd6KsdrHoL10g8jlM2dy3ZxrsdvtZMfr3UJHJ5ToPUznksDv9/Ppp58Cn550zWgykTfVzLen3kBiwvlxNLCOzsXMxe+6o6Ojo6NzXqErHh0dHR2dsBJyU5umqUh+f/9pjQiYTBYsFhOGMLsJa5qK3+fD75dQAbPZgsViRrzIXEgHntPn96MhYDZbMJvNGMTwPme/l5APv9+PhojJ3P/eL7b6PhcURcbn9SLJCqKh/+RNs+nSsX5rmork8+GNcFs9H/iiLciIojHgXXexdpeQtnJV9lF1YDcr332XTdt20CebGT1xOtctuZ7LivKJtoXnAClV9nN0/07eXvkOpTv24lbNjJo4jaVLb2L2pLFYTRfHwk+RvBzdv5N33nmHzTv34NGsjJ00g+uXLGFW4TiiLOEZ1BTJS8Webby78l1Kd3+GV7MypmgGNy69kZkTRmO5SOr7XPD2tPPJh6tZ+cE6DtUcw56QweyrFnHTdYvIGea86KPnFcnH0c928u4771CyczdexcqYSdO5/vrrmTVpPHbrhX+43Jmh4e5qZcuG9byzeg0Hj9QRnZjJrHkLWHLNfEZlplyUitjwy1/+8pdf9QVZUehzufD7/SQkJJx55gJNoWZfKY//8r/5cP8xpsycw6iMBMp2lLB6ww6GjRzHyMzkIVWqx+tFVdXTnpZ4IsfKt/Pof/0XG8qamTBlGrlpcezduIo3V5eSlT+ZURlJDOXd+nw+NE0LnNAXbPxnEyekKVTtLOEXj/yCjw93MG3WZYwY5mDflg2sLdlLxph8RqQlDmnF4fF4AoGyQ6Fm3yc89vNf8umRTgqnTmfEsFh2FL/De8V7yC4oYmRawhnXt9frZVNJCVu3bg1ZKg/RYGDy5MnMmzcvLMcAa4qX9X97jl/85nkkRybTJ0/E7Gvjn39/lfI2kWnTC3GEYeBVVRWP14vZZArvceOaQtXuEh79+S/5qKyVqTMvY2SakwNbN/LBpj2kj8ljZHpSWFfHkiThlyRsNltYrTGSu5sP//kXHvvtS/hi0pkzazpWuYd1771DebOfCRPyiIuxhW0iomlav3VKVTEajQiCEJK2EbIpsN/VwQfvrqC0xsuPH/v/+dpVUzEisf/TdTz26BP8bcVKpk8YRXrc0JTIkFG9rHntJT6p6mPZo0/w9QXTsYoKhxfN5sHvPcCLf3mNyeP/k0xnaALo/N4+dnzyMa2yg8vnTCfOHpoO7utp5b1/vc6uJvjFbx5jyWUTMKg+dm9cxa8e/Q1/fXMVM/JHkhAd4gBg1cvq5X9mV7PKQ//9X9x85RRMSCxdMJMHf/AT/vLaGxSOfYj02Is/QPPL6K3dzzN/fImYvMX86tGfMj4rEU9XC3n/9xj//eIfeeuKy/jhkhlcrOFEvt42Vv3rn2xvVPjPJ37NjVcUYlD97C1Zw6OPPsnf3nyfGQW5JMVc7G1EpbFyP/94820c+XN59JF/Jy9nGH0dTbz1yrM8+8/3+HDOLDKvm4PFeHFZCUL2NB3HqindtoOMotnMnzmRKKsZs9XOhKmXceWsSZRv3UhFY1uoig/g76jjX2s+Ij1vCguumIYjyorFaid/5kJuv24mh7ZuYPeRxpCVL3lcfPTuP3h1xVo6ejwhK6e1rpJPtu9m5MwrmT89nyiLGYsthqKZc7liWh57P/mQI63dISt/AH9bNSuLN5MzYTpXXjaZaJsFiy2aCZddy01XF3Jg6yY+q2oKuRznLxp7Nq5kZ52Lq2+4kYIRaZhNZhxJGdz+ze+QafdQvPYDOrwXb9LOtvpKNm/fTc70uSyYUfB5W42mcMblXDGjgP2bi6ls7oq0mCFHk3wcPrCHssYeFly7kLHZqRgNBhyJqcxbuIjhDpkNn26jx+2LtKhBJ0SKR6Gjvp666i5GjxlHTNQXs2yTPYZRGTkorU0crG0JTfHH0Xn0AEerOsgcOYlkxxerGsFgpXDiFGhr5kBFHcpX3ONc0FQVj9uFq8+NHLJM0wpt1TU01vcxfnwedssXZhpzjJNx6Tn4mhr4rK41ROV/QfuRz6ip7SVzxAQSj5uxigYrhfmFSM3HKK9qJPT5b89TNC/71m9FsqYyYVzuoFVNTOZIpsQnUVlxmGNdF2vSToX2mjoa63oZN2480dYvLADmaAdj07PxtTSGZWyINLLPQ8Ohw0hCEiOzMjANrGoEkYTENHKTEinbX0GXxxtZQUNAaBSPqtLd00urJuIYFofBcFwxoom4lFiiNInmxtDPwDuam+mQRUw5KZx4mnFs+jBsgo/e+nakIOoE7fM08wN/qqoFUq4PfKYEc79CVejo6aFDNOAcFjd4X0g0EZcag0320RKG+m5vOkaXZsCalYTlhPp2pKVgUb24jnUGtb4vKPweDjV1ISU6cZ4YrGqKIWtkDHJLJ11doVsdRxRVobO7hzbBQOywOMTjN/tEE3HDYrHJfprC0FYjjSxJtHV04o53YndEDdrHMUVF4UiOQTvWgssdmiz4kSQ0ezyaikvy0YWGyWQ8YQNeQDCJCAYJry/0S8huTx9dgoDBaj5Jy4pGAxgUJNmHogJBycepUL29lI9378ctK/j6utlVXk2d1Mfrf3slsOoaMf1qFk0dGxzNr6r0Sv7++jYbT9iIFBBNBgRRwuMNfX13uV10iwLCKepbMBnRRDnI9X2BIUvUSn4UUyzmUySAFa0iqupHki5SU5um0iv76RI0zCYj2gljg8FkCNvYEGlkVaXL78NtNmIyiIP6rSD291tZ8+CTLz77QIicCwREQcAgwJdbl4SwnHthEAUMgPAVM2xBIIheIwo1u7fxz+Vv0en1o8oSx+rqcKmtvLuiC4upf7CZa8lhfrAUj9A/hhuFU1W4FvhSOOrbKIoY+bL61gYkuWjjE06LIGD5/OG/vEkKF/ERBf398cTpUT9f1MhF+/jHIdDfZ43wpabni7WvhEbxCAIxZgtxCEh+6YRTNFUUt4QqG4mKCv0RC057LE40FI8PhcGTbMXtRZWNmC1RBM+D0sjE627m11OvQFZVPN1t/OX3T1Dmy+ChB75DVlK/eSUuNTt4lS+IOCxWnBr4/RIaGl+oUg3Z7UdVjERFhd5LyBkdS6zWX98qg225itsHigmTxTok9/WLCqOJLIsFY4eMXz5hZ1FT8HVKiKZYLOaLNJBUEIixWHECkk9C0Aa3VcntR1VM2GwXu0cbGA0GnFYbNl8vsqwM7rWyguKWEI1RF51HG4RK8YgGYuOdJFgFupo7UWQVPp/po8h0tLtwm82kpsWFpPjjiUtLIz5Kw1fThE+BqOM0T2dzC16DhdjMBMxBGwhF4jKyicvIBsDVfoy1SQ4a3MnkFxYxJs0ZrIKOK9KII9FJnEmlo6kLVdW+0LCKRFubC6/NSnp6CMo+gYSMTJwWFW99C14Voo7rM53NrfjMNhxp8ZguVcVjimJ0biKGA/V0tvdCxnGH7Pn7qG5yYU0ZRZwz9PFEEUE04kxwEm/S6GjqRFFUGBhYFYn2dhdeq4W0jNCPDZHGaDaTmJKAuaeOvm4PmvbFSs/v8dDR6cKckUNM1MUXTBsiVSqSMCyDrLQ4ysrLcB23tyD19VBRW4noGMbYzOTQFH8ccdljGZGaQPWRPbT0HOcdovrZtf0TiEslf0TmBZ60TiQpPZv05Gj2HziAx//F/oDU20l57REs8ZmMy0gKuSTxOePJTo6l+sh+2nqPs9Orfnbv3oIxMY1x2WkXeH2fA4KZwtkzMfU1srusctChqr31h9nV1MTwEWNJc4Y4vi1iiCSmZ5GREsNnBw/g9n+xce53dXOophJTXDrjw9BWI43RbCV9+ChMUhuVdfVIyoDBTaO9tYGKxmOMJLn5lQAAIABJREFUHTcax0V4SF/I+n9cWg4zpxVRU7rm/7F33uFRVWkD/907fZLJpCeE0Am9FymiKHYFe11X/Sysba2ra3ddVrGuirtrb7v2roi9gCiCVOkKSA1JSJmZTJ+55Xx/BEJgVYybOxMn9/c8fvt8EO55z5tzznvKW5g1bzmJpEIyEWPlknm8//k3DJxwKH065RvVfDOW3C6cduxBbF72JTM//YpIPIGSTLBuwbs89uYC+o2dyPCKfZdD/rVY7Q76Dh7JfsMHkO0wbudS2KU340YPY93st5i1YPVOfUdZMn8OH3+5nOGHHEHPQuNT/lvyunL8EWNZt2gOH37xDdF4EiWZ4Luv3uTf73/LoHEHMrBnqeFytF8kBh10HCM6u3j/ledYvrmGpKIQC9Xz9L9msDHi4YjJR5HryNwjYWF5L8btN5wf5r7LrK9XNo/Vb7/5go/mLmPowUfQqziN5dZThdVBxaBhDOzk5s3X3mTD9h0oqkrYX8tn78/kO7+VgyfsR04KniRSjWEXyVZ3LkefeBqLl6/l/puuZNX8yRRb48ydPZtw7iD+dMZxFHhSYcmtHHn2ZcxZdhVP3fMX1i86iEJbgo8+eB+p63iuuOh8SrONMwhOTz5nX3mrYd/fhS27gBNPO5Mlq9Zz+9UXsXjyMeRLEebOnoNeNpKLTp9CjisVaVGsHHP2pcxbcR2P3HkLa+ZPJJcw7783C1fvA7nkvLMozsq8q4PW4O7UnxuuvZxr732Ka668ggmjB1O37ls+/Go5J5z7J047aEhG52qzZuVz/Km/Y/HKddz55z+ybPIxFMhR5s6eQ7J4GBedPgWvO4UpfNKGRFmvQZx55hncMeMJLr38ao6cMIKaDSuZ/fVyDjr2XI4YMwR7BqawMC5XGxKewk4MHTwAl6ywfs1yttQE6DPyQC68+A8cOKIf9lY+mv3aXG2u3EKGDR2CQ4+yYd1aKusjDBx7KFddezUTh/ZsdWqSdpmrDYmcknJGDO6PgyQb1q5ge12Y/mMmcfHFUxk3uDe2Vnb01+Zqy84vYejgAdjUEOu/X8v2hhhDJxzJlVdfwYRB3VrlWJCJudqQZMr7DqJ/9xICtdv5/vv1aK4ijj/zAq648AyKPanZ4aYtVxsSnuLODB88AOfOsbqtNki//Q7ioounsv+QPtgsqb2MTVeuNsnqoFvvvvTpXkaorpLly1eRsOVy9Cm/5/zfn0S3ktyUerX95nO1AUiyla4DR3NZ74H4/X5UYcGT4yXL7UqpV5MkW+k2YCSX9OxPY2MjqrCQk5tHdkpOAKlDkq10HzKOK/sMxR/wowkLHm8u2S5nSgevbLHRa+hY/th3MI2NQTQseHPzO1DG4X1jc+Vw4JTTGXnQUYQiMWyOLPJyc7CmeMFNF5JspfvgMVxRMTitY7U9YM/OY+LkUxk58QiCoQhWZxa5Xm9z6EUmkhKfTZvDTXFpmr10JAmHK4tiV6Y+2u7G7nRT0g707XRl43Rlp1eOdowsW/B48/F0gOeMn6JdjNV2gNQ8Fox/924PdIztlYmJiYlJu8E0PCYmJiYmKcU0PCYmJiYmKcU0PCYmJiYmKWWfzgW1O3YQCofRNI1oNIqipi9rrqqqaJpGOBJJmwxCCJJKU/65SCSC1Naul0KQTCab9d3m328FqqoihEirviORCIqiIMlyK1z5W4csyyiKQjQSIezM/Bxhu9B1HU3TmsID0i1Mmtk152LRKIkfyRreUdi1vhntWLjPmdzQUE8ymcRmsxGLxdJueIQQRKPpLZKl7tRBNBYzJI6nuZ8Gff+Xomla2vUdjcVQFAVZlg2bDJIso6oq0VgMZ5rHVioRQqDrOolkElUzqhTibwNd15vjmtI559KNEAJN07AZtMnbxT6/3qt3BXV1tUQjEfLy8lIcaLYngcZGVFWlID99LodCCELhMELX8Xg8rQjw/OXfj0QiKKqKNyenzb/fGvyBALqup1XfFlnG6XSiaRqqYkxBLKvVisPhID8vL619TTWaphEIBHC53bgzMB9Ya4jFYkSiUXK9XsNO1r8FdF1vuuEy+ICxTw3b7XasFguSJCHLMpY0HkMlqammTDplEEIgSxL6TjmMMDySLJv63kmzjoXYq7xG2yFoum6TLZa09jXViJ3pkOU0/47bA/KuOdfBxsDeSDvHg9HnX9O5wMTExMQkpZiGx8TExMQkpZiGx8TExMQkpZiGx8TExMQkpZiGx8TExMQkpRjuNyiETsi3g/Xr1xPVbJR37015aUHK623oukZjfQ0bN20iptvp2qsP5UVe5Azz2RdCJ9hQw/r164kLJ1169KJzcX5a0+37q7ewbnuUESP6YzO3Os0oiRhV2zaxrboOV14pfXv1IMtlz+gicC0RQifUsIN1G9YT1+2Ud+9N55L8lK8N7QkhdKo2riMseejdo3Ora4X9VjDU8CTDfj5/6wUeePx5Nu2oRdNlvEXlTDnjfP5w5vGUFXhSMsmUaCOfvvEcDz35HD9U1aMJGXduESefdxWX/H4KRTmZEa2eCPn4+LVnuf+JF6ms96ELmdzS7pz0+6mcd9pkSvKyUrqoCaHj376Oe6+7grc2dWXunMcptmfoTGoVgvpN3/Hog/fw+ucLCMUSyBYHXQaN54Ybb+Tg4T2xprJgVRpIhnx88sZ/uP/xF9hW14AmZHJLunH8mRdwwelTKM3P7jAGeBdCV9m2ah5XX3oNJQdfxN1/OZ/sDPXsNm5roSZY9vm73PXAk9h7juOBR//Df558mKNH9+Dtp/7JC+/NJZJIRRYEwdqvZnHnvY9g7zGee/75JM88OoOjR5bz9B038eTbc4ipxiUMEbpOONhIIBhG041rR1fjLPzwdabf/zS5Aycx4/HneOaxhzh0UAkvPzqDVz5ZQFJNXXS6piapXLecR++/i2fe+wrdwL7/1tBiAf5z/zRe+HQVx577J57993NMv/FSpC1fc82fbmbZ1oZ0i2gouhpn0cdvMv3+p/D0m8iDj/2HZx//B4cPLeO1xx7i5Y/nk1A6ViYFJRZm5byPuenaq/lo+eZ0i2M4hp14wr5q3n9/Fv6cntxx/VXs378rCJ3eXYoJ7LiOme+8y3GHjqNvmcGR4okgLz/7NL6cbtx61RVMGtIdWYKhA3vSsPF03nzlJY6ZNJYh5bmGNJ+MBvnw1WfZnCzh92ccR2meMUWvInXbmPnuu8RKB3LrTX9ieI+SJn13LqD+uut58813OOHQMXTNN74wmxILMv/zD3jhuRf5Zu16dIugw21ff4btK+bw1NufM/rsm7j8D2dTmG1HjB1FuVvjjMvv4NVZXzD4kpNwZuiNU7R+O+/OmkWkqB8zbryaUb3Ldo7VQhpqruett97h+EPH0KMwJ92iGo/Qqd++iY/efZPnnnuJzeEErtRUPk8rBg1tQX3VZlatWkf/EePoV17c9MeSTHF5L8aMGM6OdctYs73OmOZbEKn+njnfrKJ3//0Y2qe8ueS2t1MfjjvyIOrWr2DJ+i2GJUlUEjGWzZ/NJ18uojGWNKgVwY6tG1i9dhNDxhxI7047jbkkU9q9H2OHDmbr6kWsrfYb1P6e+Lf/wAMP/Ys1ASvnXXQhI/qUmHanGZWln71HddTJxIMOoiC7KQWVZHEw+pDJDCnMZsH8udSGE2mW0ygEtds2sGrNDwwcfQAVZYVNfyzJlHTrw9hhQ6lcs5i1Vb70ipkqtARffjqLfzz1Cu7+BzP9lssoycn82WKM4REageodVNcn6dKrKw777oOVZHfSpbgEe6CRHzbXG9J8S3ybf6CmLk5h7754nS0PeDLde/fDEWpk6/pqjMkCliKEhq+yhtpGnW4V3bBbd18Myw4X3UpKsDT42bDFeH0D2N0epvzuQmY8eB9nHXcIeZ7MeENrE7Q4a75Zh5bXiZ7dO+1hkK25xQwqyqVhYyU7fBmarFRo+LbvoDag0b13Vxy2vcZqcTFWX4ANKVgb2gslPQZw9V/uZMadN3PQ0ArsmepR0AJjrtp0nUA0TI0k4crbK5GmZMFd6MZuV/D5goY035K6hjpqkbGW5mPb6/fpKszFZk8S9QdQNbC34UPerrxiovn/NP3vrj9v0wy4ukp9NMwOi0x2rmdPTz3JSlaRG7slQUNDqO3a/Blyy3pz3jm9AUjUf49xeaV/gyRjrGwMk/TmkbW3QZYd5HfPQlkUJBSOp0c+o9E1GiJhamSJrFwPyHuP1Szs1iS+BuPXhnaB1cX4iYc1/7+BYMeYKwa98QgUXUcBLJL0E/f7OpqmG9N8C5KaioIEsvQTy59AF3obXrUl+fLJR7jn5Xfwx5NoapLtm38gpC3hdyfMx7XTuh1w/k1MO/cobG3RpKBJ30Ig/6Q3VFPtFZM0o+tEhY6QJCw/PSIRuvFzIz0IFNG0NkiyxI8vDjpaxvbfBAwzPBJ2WcYh0eTNtPeqrgvQZSwp8Nd3WK04EKA3GZc9hrnQQUg7M9O2VYsSWYXF9K7oQzCpoCRixPy16KqHHr0q8LqbTE1Zvqft7jklcMgyTiTEf3mPCdAFQqQ307XJTmSZHFlG+ols20ITSMhpLYdhLNJeY7XlrBRNfyaklKwNJunDqJKOeLOyKZIkYpEYessJJjTiwQRJYcOba7yHVX5+IfmSQPGFUWGPE0aiMYyq2XF6c7C2meGxMujI4/nrpGOaauv4d3D/LVexLNaDG267jt6lTZ46NoeLNjMDsoW8rGzyJYiGYzsXtJ0dEhrRxjgKdnLzstqqRZNfi81JX28W1uo4kfheL4t6kmBtAjm7ELc7Q12bZAverCwKEMTCMdCheSIInVhjnKSwp2RtMEkfxmwrJAs5RYUU5Vip2VqNorSI11GTVNfWo7hc9OhSYEjzLcnv0p38XBvBTRuJJFvuMAXbN28g7siic/eS/3r/+fVI2J0ucnJy8Hq95Hg8OOxWrDY72R4PXq8Xr9eL29mGBfUkK7klheS7JSq3Vu1xhSmUBJW1DWjZ2fQsN17fJvvA6qJiaHdkXy3bq/b06tTDPlZX+8nvXEqxQW73aUeykFdcRH62zPat1Sgtrn+FkmB7XT1qVhY9uxSmUUgTozHoPCtR2KkrfXuXs3LJQqr8ux8Kg3VVLFuxHHfn/vQvLzKm+RZkd+7L+H5d+X7NItZt3+0po0bqeP/92WSXVzCkottv/PlboqRLT/p2L2Hp/K+pDu32iGqs2cqylSvJ7T6Yfp3z0iijSRNWRh10OPm6j7nzviGi7tokCH5Y9AXLtzcwcNgYSnIy9MSDRHGXHvTrUcayhV9T0xhp/pvGHdtYtmIFOd0G0d8cqxmNYRepnpIuHHrIJBJrZ3PHjKeprA8S9NXwxsv/5vUv13L48cfSrdiYoM2WSM4CzrrgbCKr5/Hww0+yoaqeYEM1z97/V/791UYOPu5UhnYz7iTgysnn/Gv/xt03X0zXAuOuD3LLenLkoQcRXPYBf33wGbY3BAnUVfLS88/w7qLNHHvKCZSb1xftgh5jj+aEcRV88Ow/eOm9L2kMhfjh27lcdfMdhPIHceapR+POYJdab2l3jjhkIpHlH/O3B59me0OQxvrtvPrCs7y9YCOTTzqezvkdIHi0A2NY5gLJ4uTA487g8q3b+deLT3D07DdwW3QCwTgTTjiPqSccjsfZJj5d+2TYEWfy54u38Mgrz3Li52/glFTq/BGOPuca/nzecbgMnOQWm4Oe/YYY9v1mrC4OOfVcLqus4ZFXHuToD1/EISkEIyqHnX4R506euEfMRMqQJGwOBy7F8Rs/VbYdsquAq+64l9obbube6y7k8Vwv0aAfzVnK9L/fzwEVJekW0VisLg4+5Rwuq6zh4Vf+yVGfvIJLVmkMK0w6dSrnTZmEuy1jG35LSDJOpwu7zfD8zWnF0N658jpx/jW3MvrgI5n3zULCqoN+w/dj/H4jKMlNXRJAR04h/3f1rQyfeDjfLPmWiOak/4j9OGDsKPKz2vCtJc24Czpz8Y23s/9hk5m3eAlR3cXAEWMYO3oYRTmpTRC6C4srn2NOPpcRia4ZvYtvLeWD9ueBR59m3rwvWbuxEk9xN8YfeCBDendtQ0eX9os7vzMXXT+N8Ycew1eLFhPVnPQfMYZxo4dR7O14CUJ34cjrylnnX0yXwYPa8N25/SGJH/PpbEE8kWRHTTWhUIiKigocjvTdPfv8flRVpbjI+Lehn0IIQTAYRNd1vF5vm7u9CiEIhcMoikKu15tWF+gGnw9d1ykqTN9DbyAQ4PY77uChGTNQFGPyS1htNqZOncq0adMoLOg4DhiqquLz+8lyu8nK6tgej9FolHAkQl5eHjZrZp82fg5d1wkGgyiKgtPpRJIksrPb/oredJY3MTExMUkppuExMTExMUkppuExMTExMUkppuExMTExMUkp+3xFU1WlOWGfruvoaUzeJ3bmt0qnDLquGyrHrm/v+n6bZrH+lbK0B30jSYbpQoLmfqazr6lmVyqrdP+O2wP6rnnXwcbA3jTPN4PZp+HZtnUr0VgMWZIIhULE4+lL155MJhFC0NjYmDYZxE45AILBYJsvhgJQFKXJuyQU2rPEQYpRFCXt+g4GgyQSCWRZxmaztXnBPgmQZJlkMkkoGOxQHk26EKiqSjQWM8xj8LeCoqpomkYoFMrgBK37RghBUlGwGKyDfc4yq82GJZEEBLKc3qy5kiQhhEirDGIvOYwwPNLO3b3FgO+3hvag75Y6NmIntiudqiRJaR/fKadFbagO1e8fYVf/O9wY2AsBSKq6z5/7X9mn4Skr60xt7Q4i4TDZ2dlpjePRNA1V08jJSV86Db3FtaPH4zEkjie8M44nOzs7rXE8iqqi63pa9a3pOna7HV3XUVW1zY2PJElYAZvNRnZ2dlr7mmpUVUVRFFwuF1nuDE1K+guJRqPouk5WVhY2W2oyqrRHdL2pFpRqsPHZp+GxWCzN1z2Sgffsv4gWcqQLWW6qp7lrl2yILJLU/KaR7hNPumWQd7X/E/Vr/leEELtPmWk+YaaaXX2VSO+cag8066KDjYG9SdV877hnShMTExOTtGAaHhMTExOTlGIaHhMTExOTlGIaHhMTExOTlGIaHhMTExOTlGJ4tFy8sY65H8/itXdn4Uu62f/QyZww+TC6leQjp8x5RBDx1/LFRzN558PP8asuDjh8CicfdySdvK5UCZFShK6yat4nzJq/kdPOPouepSl0ExaCUEM1n3/4Du9+PIeQyGbiUSdw0uRDKclxpk6OdozQNbatW85br7/K18vXkdd1MCedfioHjRiArYPVLRK6xtr5n/L2l+s45ZyzqejkTbdIKUXoKpXrV/HW6y8z55uV5PcYzHEnncxB+w1NWbHMVGPgiUcQ3L6e6ddexvlXT+P76hhx/3YevfMG/nD5LSz6bltzyg6jCdVu477rL+PSG+5izdYGQjUbuOf6izjlrCtZvqWhzaPh043QVbZ/v4i7br2JD+YsJhhLprR9f+V67rz2Uq689X7WVwVorFrH7Vedy5kXXMeqbb6M03erETprv5jJ/51xJv966SOCkTjLZ7/O744/lr89PotwsuOkbBG6SvWGJdx16428N3sRwWjHyqCgqwmWffwGF5x9DjNe/AhVtrFuwcdccf653P3IK9SF0pcpxkgMMzxaPMRHb7zAW19+x7k33s1bb77Ba6+9xgPT/kRk/Zc89eq7+CIJo5rfjVCZ+/oTvPTZas66+m+89vrrvPHmWzx+17XUL5vJvY+/iD9mXLCUpipUblrHuh+2EU9qhrUDgBDEgj6WfvE+119xJe/MX4vBLf6IDCqfvfYkb8/fxNTr7+K119/gjTff4rE7r2b7wrd46NnXaYwbHxndnok3bOKev/6VxrxBzHj6Bd544w3eeO0lzjqoN0/ccwvvLVmf+cZ551hdNvcDrr/8ct6ctwYt4zu9N4KGLd/x9FNPE/AO4LFnX+C1117llZef55wjhzLz5WeYvXgNqp55ijHM8DTu2MKcL7/CO3AcZ594GAUeF+6cAg4+8lgmTxjMgs8/YWON36jmm1FDNbzy6lvk9RvFqScdQ2l+Du6cAo447Q+cc+gQFn/+Pss37zCs/UTYz6uP3c+d/3yOan/EsHYAQvWVPP/4DC6/+ka+S+QyuF+Joe39GFqwitfffp/SIeM46bjDKM7NJstbyDFnXsKpE/qwcPZHrNlWn3K52g+C776exaert3PYKWdy8Kj+uF0uynoN5to/XUGRup2Z735MKMNPPeGG7bz45D+4/OobWR3zMrR/6sdquhFaknWrlrJoXRVHn3oq44b2xWGzU9q9L6edfgblFj+fzltIKMU3FqnAIMOjU1+5lR821NBvyDAKPbvL6rq9BQyo6Ee8aiNrttUa03wLglvWsuy7Krr3HU634t3vHLIjh/0njCdRtZkV67Zi1DTXNY2GumqqaupJasYuJv6qjXz09QoGHH4ad995BxOHdDK0vR8jsGk1qzfU0bPvUDoXeJr/XHZ4GTd2PyLbNrHqh0rD9N3uEUmWfTKHsKWQ/UYOxtn8niNR2m84w0sK+W7FUqoaY2kV02h81Rv55OsV9DvkFO6+azoHDStLt0gpR0vE2PL9WsK6l8F9euG0NaXHkiQLpV160KdTAcu/XUMgmnljwRjnAl2j0eenNiYY3rkYm7VFvjGrneKSPJxKnMpKnyHNt8S3fRu+iE52j264rXs+2hZ37YZLi1G/pRZFgOM3/qZb0LUft/x1OqXl5eTYNb60pt5psb5yK/6ERFa3Lrj21neXLtiSEXyV9agC7L9xff8qlBhr19eg5hdSUpK/x19JrlwqunpZsKUeXyAKRVk/8ZHfPgXlfbnhttspKetMnktmfhrGarpRk0nqampJegvIzffs4WzlzPJQVJRLdEl1Rr57GWN4hKAxHqdeAofLgbSH+5qM1WXDIicJh6OGNN+ShmAj9ZKMNSeLvdNtWt1OZItCIhZB1cHRJvk4dXxbNrNhew1JXScWrGdbjY9A0sXShfOpK2w6BRR060O/LsW05dqblVfMkNxiJEkiHg204Zd/OfWNfnyyjM3j/hF9O5DkJPFYFE2H//qBjoCSYH0shuouxOHYy2NJsuDMtaGtjxHLwOuVlrQcq8l4ON3ipAVV06iPRoi4nVjt1j3WAslqweqyoiZ9xIx+G04DBrpT7ywy9WMJ53Zm2UzNk9kuOfb5I22Eyvznn+DyfzxFfSzRVN8iHkND5g/fvN+ccPXoGx/lP9edQds6S0qkP7/hL9C3CUCbbjp+e7SHsdrOyWAFGWN4JAm3zYZHkhCqttfCLhCKhtAtOOzG+6h7XC48CPSkis6ej1q6qiJ0GYvV3oYxRRYGTzmZ+yqGk9B04mE/b7/4FBsTpZz7+xPolNd0fVI+YFRGbvhzXG6yBQhFba51swuhqEi6BavVlslz6uexWCm12ZA1vbmy724EalxDlq1YO1BBuo6KLMvk2O041QT6Xp5rQtfRFQ1ZdmDNwLguY0a3LOP1eimyQrAhiKbpYNu55OsqwYYIcewUFRsfKJZf0okCuyBZXU9SgLPF7zC8o4GE7iCnJJ+2u2K20HXISLoOGdnURkM16xd8SCzai6OPP4m+Zblt1VC7pKBTZ/KtGskaH4m99B2q9ZGUnHiK8pqHQ4fD7qZ/WR7WH/w0NsagrEVgrxKlelsEW34XvGagbcZjs9koLMjHGVpHLBzfY2OsxhOEfFGshcV4XJkXRGrQ9JfJLSmlrDiLjRs2Ekvsvq/W4hE2VW1D8xZQ0bXImOZbkNu1gvJiDzUb1uCLtLg3FyprVy1F8xbQs3fnNr7y6rjkd+9Dp3wnVT98R6Dlo6hQ+W7tCigookf30ow87f0iZAcDxw7FGqxh7YYte1wGxGu3saK2nrIePSnJ69iF2ToCVoeT0u7dsMbq2Va1A7U5kEnQ6NvB5h21dO3fk1x35m1CDDI8EgVl3Rk+dADrFnzCgrWbEYAQGlvXreTzeQvpOnQsfcsKjGm+BY6inhw9cSQbvv2Kr5qDsQS16xfy3DtzKR80ipEV5Ya1L1utlHXtSe/unZvdJTMZR3FvDh0/mO+Wfsk3y79H26nvmu++5pUPF9Bj8CgG9+h4rrO7kRl68DH08ip8NOsdttSHABBKlPdf/Q+rfToHHnwIRW5zK5TpSFYnvfsPoVuu4IOPPqU20ORkocbDLP56Dqt2JDhgzAg87vRVfTYKwy6Snd5ijj3+RD6ZewN/uuxSNv/xEsrtEV597mkWV1m55cqT6Jzv2feH/kcki4tTp17Oe/Mu5Pabr6PynDMpt0f5zxMPs6Qum3vv+wM9CoxzW3XlFHL+n+9AR8bpzLwBtDeSxc0p517MxxdewbSbrmfr2WdQLDXy1CP/YG24kHv+7xy65nfs3XxBn3Fcde7JXPPwv7lWxDnpiP3ZtmwO/3zyBfoc+H+cPWV/rJl3rW+yN5JM9wGjOOHoQ5n+6LP8MRnhvBMPYeu3c3nimVfpvN8JHH3AaFwZuGE17gVTstBn/JHcf5/g3gf/yf03/5GoZqNiyBhuvP2PnDhpFHZLai76Ow+dwAP/uJ8HHpjBP/52PTHdRo/+w7n/mZs5fdIQjHy7kyQJpyv1C62MhDPLgyc7C4uc2geVXvsdwn0P3M2DD/2Tv996DXHhoNfAkdw3/WZOOmCgofr+LSBZHJx4xW1o7jweffFNrpr5HK7cUg447QpuvfEquuVmZuLan0KSJFxuDx5PVkY+pP8ctux8Tr/oaqxOF0+89AYXvPUM7vwyDjjyd1x+6YUM6FKYkd6PkthHIft4IsmOmmpCoRAVFRU4HK3dtQvi4UYqK7eR0G0UlpZRlOdpdituDT6/H1VVKS5q/duQEDqxUIDq6hoSwkpxWTkFOe5W/1KFEASDQXRdx+v1Irfxoi6EIBQOoygKuV4vFsuv2+0IXWNH5UbCqpPO5WW47K3/ToPPh67rFBUxP+zEAAAgAElEQVQWtr59oRMO+tlRXUMSOyWdu5DvcbZa34FAgNvvuIOHZsxAUYwJpLPabEydOpVp06ZRWGD89e8uNFXBX1dNra8Re3Y+XcpKcaRwd6uqKj6/nyy3m6ys9AWrCqFTW7mRoGKnvLwMlz31Hn3RaJRwJEJeXh62NHgU6pqKr7aKmjo/dk8enTt1IisNmal1XScYDKIoCk6nE0mSyM7ObvN2UqBhCWd2Lr37pdebS5Jk3Dn59MrJ3/cPZwCSbKG0a0X62pdkPN4CPN7ULeS/NSxWG4WdulKY+sxG7QpJkinp0puOl61tN7LFunMsdE23KCmhozq1mpiYmJikCdPwmJiYmJikFNPwmJiYmJikFNPwmJiYmJiklH06F0SjEZKKghACRVXb3IurNei63iSHQd5Nv0gGIdB0HaHrKIpiiFebrmnouo6qquj/lc8rdei6jr6zn+lCURQ0TUOSJMPGniRJTfpWlLT2NdVomoYQAk3TOlS/fwx1py5URYGfd/TNaHT9x3IItj37NDxbNm8mmUxis9kINjZitaUvolpVVYQQ+APpSfnfUg4AtbERyYBsl7v6GTDo+62VI536bmxsJJFIIFss2AzShSTLJBIJAo2NyL/Sff23iBACVVWJRKPEEykoQ9+O0XUdTdMIhkJpnXPpZtdGxGiX8n1+vaS0lEAggJJMkpWVhd1uN1SgnyMciaBpGh4D/Mp/KUIIorEYQgjcbvevikfa1/dj8TiappHldqf1hBkKh9F1Pa361jQNu93etDDsNPhtjcVqxWazkZ2Vlda+phpN1wmHwzgcDpytjs/LLBKJBPFEArfbjbUDbT72RheCaDRq+Klvn4YnP78AJZkkpGk4nc5fEUDadsTicYQQuFzpi+zeddWn6zoup9OQqzZVayr85HQ6f3UAaVsQjcWaosrTqO9EIoHVakXs3JEagSTLWK1WnC5XWvuaalRVJRqNYrfZOlS/fwwhBMmdQZPpCCBtL+i6jpJMGn71ajoXmJiYmJikFNPwmJiYmJikFNPwmJiYmJikFNPwmJiYmJikFNPwmJiYmJiklBS4b+wsi1C1naRupbCkE4W5v64swv8khdCJhRqpqWkqi1DUqZyCHFdG1rpoQhALNVIfiFJUUoLzV5RFaCsigVq21yfp2avcLHDWAk1V8NfXUOcLYs/Oo7xTSUrLIrQn4uFGav1hikpK0lIWod0gBL7aKuLCRWlJPnKGzhdDTzxCU1j15Xtceu6ZHHnEERx++JGcetZU/vPuXEJxY2IyfgxdU1j11Qdcdt4ZHHXkERxxxJGccNpZvPjJEhQtM6OUtUSEWU8/wHW3/p0NNY1pk0ON+vjP3Tdy3hUPEFAyU9e/hkSogVf+dQcnHTeFw484nKOOmcKF19/F+h3hdIuWcvRklPefncGfb7qX9VXpG6vtgWjDZm6/8mJm/PsDYulLWmI4xhkeobNp0WfccM3NfLVZ5Yrb7ueB6TdRpFTytxtu5u05S0mmaNGvWbOAG664hsXVFi664W/c/ZeryQqs5cpzzuWlOavQDRZjV+qZ1CBQk1G+eucZbrnrH2zZ4UPV0jCChSAR9vH2MzO45+nXqfU1ksHzqFUIPckHj9zJDXc9Q/HQw7n3/gc5b/JYPnvu75x36V/Z2hhPt4gpQqAmY3w961lumv4gm2t8GbsR3BdC6ITrtnDf9Zfw1HvzCUfiZLImDDvTJoJ1vP3W66xTvPz9kRlMHtMPITRGDqrgxmuv4/nX3+Kg0f3pUuAxSgQAhBbj9aceYq2az/Tpd3LyAYOxyDBp/FDOOeUsnn7qSQ4Yfic98o0pT63GIyyZP5c6NYcJ40eTm2Vc5gdNTVKz9Qc+fOVZ7nv0OarCSdJRhk1Tk1RuXMvMF57hqZffoTYYoXMa5GivBH5YyF2Pv8DgY87lvjtvoltBFuL4o6kocnLJnS/w4ofHcO2pB2V0iXBNTbJj20Y+evVZ7nn4P2wPJfGmW6i00PQU8f3yhTzxwH28OncJIo3ZSlKFQT0UNGzfyJKlK+m938GM7tdUVU+SLHTrM5hJ++/H5qVfs3Z7vTHNtyBZt4mZny6g19CxTBjeD4ssARIlfcZx1vEHsnX5QpasqzSs/XgkyMznH+UfT7/BjsaoYe0A+Cu/587bbuSe5z5i5LFncdT47oa291M01mzi3mm38vSsbxh75DEM7VucwW9prUVn6aczWe+TOPSYKXQtaCo5LdmyOOa0cxiQLzH7k0+pi2V20s5A5TrunnYzd//7Q0YeezbHTOiRbpHSg5bkm89n8ecbbuWbWplLrvgDnfMyf7YYY3iEjq+6isrqEL0reuF27E4sanFm0b2sC5K/jnVbag1pviW+zd+ztSpIWa+B5Ge3OG1IFvoPGoEcqGP9+kqMScaSWhKxKJ6uQ7jmtulMv/4K+ndOzx5SVxU8XQdyxU23cf2lZ9O1KCctcrRL9AQr5y1F9ZTSv6LbHgbZWdyVIcWFVP6wnhpfLG0ipoJEPIqnfBBX/+V2pt94FQPKO+Z5B6ERVWVGH3Yid957LxefdAhuW+YbHmOu2oRGIBiiVpPIKcpFtrSwb7IVb0E2ThRqa41/SKyvraFekXF0LsGxl5n1FBfikBOEan0kdXD9xk+4xd0HctWVFeTm5qIng2mTI69TL6686k/k5uZC4wYsHTjb73+RjLK6qhE1z0tuXtaef2dz06lLFsk1jTQGY0DmGuyibgO4/Ire5OZ6Qc1sI/uzWJyMP+Qoxh5iw5uTRfCHunRLlBIMMjwQVxXCgMVq2SvNuIRkl5FklWTS+OuEaDxGRJKQnLb/Ot5JNguSrKMqyTZ0MFBY8upLPP7epwSTCkoixtrlS/Cp33P1JVvJcTWd/kadfBFXnjSRtnSetbmyKd6Z6zGebMMPtxKLw0VJUZMgHTvZ/o+gqdRpCprV8qNZkK1OC0JTm0tvZCotx2oys7v680gyXm9euqVIOYY5F8j8zD2e2PlfCpCkVEfJCvw7trNm1Sp8sQS6rlLnCxIXcdatWY3d2iRN4QQ/OrSp4TH5bdCBo1RMTACj5oAskeNyUyRJJBNN1Ut3o6PGFDTNTla2MZ5kLSn05lGIjhaOobHnQq/FYuiqDYcrC2ubWScbE869lDdPOx9dCCL+HTw07Tq+jXXnjtuupndp0/WJw51jLkAdEbuDflkuPvApxJW9tvpCIx5QkO25OJ3pq3tlYmI0xqx9kgVvfh4Fbpn6qnpUVYNdEdlqkrodfmJ2B+WdjT9iejt3ITfLQmRzJTFVkN0idL526zZiVhcF3Ypou/c8CWd2Ds7sJgMTtupkuew4hIvCoiJKSnLbqiGT3yI2N70rOmH9dh21tQHosns8iHgjG7Y24unUn/w84zdlJibpwqBbKJn8snJ6diviuxXfUh+MNP9NtLGB1Ru+x17Sjf5dio1pvgXeLn0Z0quELd8tZUvd7gd3PRHky6/mYSvpwqCKrmbSOpMUYWPIQRPIStSxaOnKFkHUguq1S1m6o56KAYMp83bswmwmmY1h621uSTcO3H8c9Su/4JnXP6A+GCUW8vHFx7OY9dUKxk46nF6l+UY134zV04lTTppC7eqvefm1mVT5gkRCPj557Sme/2QFow4+mmHdSwxr3+H2cPiJZ3Hu6cdQ5DEXExOJ/uMnc3D/Yj585Vk+WbiKSCxG9cZVPPDAQ9Raypgy5Qg8dnMrZJK5GPbMYHHlcMRJZ7Ji9Xf8++4b+GrmS+TYkqxbt4HyoYdzwWnHkZ+dgjLakpVJp1/IKSs38PwDt/HFuy/itSRZsWo15cOmcO1Fv6cgy7bv7/xKbM4sxh9+LEJI2Gzmq44JuIp7cc0tN3Hldbdx9R/OoaJHOYGaLazbHmbqjX/n2DH9zBO4SUZj4Eookd+tP3+5/xEmfjiTV9+ZiU8p4IJrzuXEYw+newozr+Z06sFNf3+Y8R+8zdsffIZfdXHlHZdy+vFH0cnoKw1JwmZL/UOxLNvoNXA0gU5dyHYZZ1j3hWR3M2jEOJyxAdgzNdVua5EsDDvsFJ7vWsFrr73CvGXf0X/8FG4543QmjRqILZNz5fwIsmyhZ//R7FdYhsedvrHaHrC48xmz/0T69yrL6JRJktjT5ey/iCeS7KipJhQKUVFRgcORglPKT+Dz+1FVleKiorTJIIQgGAyi6zperxe5jfMqCSEIhcMoikKu14vlR2I9UkWDz4eu6xQVFqZNhkAgwO133MFDM2agKMbEfVltNqZOncq0adMoLEhHdrv0oKoqPr+fLLebrKysff+DDCYajRKORMjLy8Nm7bg3E7quEwwGURQFp9OJJElkZ2e3eTvmid7ExMTEJKWYhsfExMTEJKWYhsfExMTEJKWYhsfExMTEJKWYhqeV7MMXw8RAJIOyXGew85BJazHnd0rYp/tGXV0toXAYTdOIxmJpzZqrqiqaphGJRPb9wwYhhCCpNOWfi0ajbb4YCiCZTDbrW05jSQFVVdF1Pa36jkajKIqCLMtYLJY2N/ySJCHJMqqiEI1GiTidbfr99oyu62iaRiKZxlTm7YRdcy4Wi5HswPoQQqCkYI3fp+Gpr6sjmVSw2azEYjFUg1xafwmqqjYv+OlC7JQDIBqLtfluWQCapiGEIGbA91uDpqoISKu+d212JFk2LJO3JMuoqkosGiXagQyPEAJd15sW3Qwvw7AvNF1H13Vi8XhaN3vpZtf6ZrRL+T6/3rNXb+rr6ohGI+R6vWmN4wk0NqKqKvn5xqfa+Sl0XScciaDrOjkejyFxPOFIBFVVyfF40hrH4w8E0HU9rfqWZRmHw4GmaYZteqxWK3aHg9zc3LT2NdWomkYgEMDtcuFyuzv0lWM0FiMajeL1ejt8HE8oHDZ8I7JPDTscDqw7i7lZLJa0LoSSJDXLkS5kWW7aEe2UwwjDI8uyqe+dNOtYCMPe1wRNv1eL1ZrWvqYaIQSSJCHL8o8WpetIWNrJnEs3kiQhSxKawe2YzgUmJiYmJinFNDwmJiYmJinFNDwmJiYmJinFNDwmJiYmJiklJe4byXgEn68BRbeQk5uPJ8uVspIIPypPNEhDUKG4pCAjU48rsQj1vgY0rOTk5uFxu0i5h6gQxGNh/P4AGla8BYV4nB075f3e6LpKpDFAYziKzZlNfn4uNkvH2gsm4xEaGhpQseLNzSPbnd61If0IwgE/Sezk5WZnrKehoYZH6CpbVi3i5Vff4JvlK4lqNnoOGM5xJ57MxFGDcNlT7z2iJ0J8+OJjzFwhuOfvfyY/g9ZCoatsXD6fl155g8Wr1hAXTnoPGskJJ53M/sP747SlZlHTVYUfVizglVdfY8mqdcRx0qP/UE793VlMGNoba8daW38UJRpkzvtv8Nb7n7Kpqg5XbimjDjiMc353Mp3zMr9SrdBVNq34hhdffZ3FK1YTFw56DRzB8SeezAEjB+C0dUzPskRjDU/eey9S70P5w9lH48pQNRi4BAhq1izijltu5dlZ31AxehKHjB/BxoUfc8tN0/hsyfeoemrTU2hKjPkfvsY9Mx7mywWrSWZUegxB1Yqvue36m3j+o2X0G3MIE/cbxNqvZnHTTbfz1cof0FLU35p1S7njhpt4c+4a+ow6gANG9mHJhy9y1eV/ZvaKrWSS1n8VQuPr157gulvuYWPQxsRJh1LuTvDY3bdw7bRHqYtlejCnoGrlfKbdeDPPf7CEvmMO4aAxQ1n39QfcfPPtzF2eurHanlAiPp574C/c/9SrrNtUbbhLc1oR+yAWT4jNmzeLlStXing8vq8fb0aN+MRjf71c9OgzTDz36VKh67rQ1KRY9dUsccR+g8QJV04XNYHIL/6eEEI0+HxiR21tq/7NLpLRgPjouX+IMX3LhSwheo88S1Qn9FZ/R9d1EQgEhM/nE5qm7fPn1WRCbPxuhVixer2IxpVf9P3GYFDUNzQIVVV/sVxKuE48eN0FomvFCPH612t36jshlnz6mjhoeH9xyvUPiEAk8Yu/J4QQ9Q0NoraurlX/RghVPH7970WPAWPEvz9aKBRVE7quiY3fvCmGde0kTrzidrEjsm897MLv94s/XXONsNlsgqaQmzb/z2qziYsvuUTU1de3sq+/jlj1KjFpQLmYcOKFYm2VX+i6LtRYo3jkz78TuQXl4uEPl4rWj8zWoyiK2FFbK8LhcApa240arhcP3Xih6FYxXLwyd1XzWP129pvikJEDxCnX3id84V++1rQFkUhE7KitFUnll4/NtkMX/qoN4s6LTxFumyycWQXiklueFKFfPv3bDE3ThN/vF7W1tSIYDIpQKGRIO4adeBqqNrHgmyV0H3sYk0ZUNAUmWWz0GbIfRx8yjrVfzWZdtc+o5vcgFqjmnpuv5vK/PIC711CGDSyjjeM+f7rtYANP3nMz1/ztYbY2hA1rp3bLeuYv+pZ+B01m0pAeO/VtZ9Co/TnigBEs//xjfqgPGtb+LlTfZt78cD79R0/g4P2GYLXISJJMj9GTOWfKKNZ8M49VG6sNl6P9Ivj20zdZXhXnyJNOo0+n3KbARWcOv7/ocipyEnz07gcEEnq6BTWM2m0bWLBwGRUHHs2kYT2bx+qAEeM5YuIoVsz5lA21jekWMzXoCsu+eJepZ5/Fv95fzgnnnU15QebfRRvUQ52Gqkq2Vvro168/2c7daXZsbg+9u/RE9VexdusOY5rfCyXk5/vqEMdPvZr7b7+BIT1LMuwBU6Nu2xa2VYcYOHAALvvupzt7di59uvYkUbeV1VvrDZfEt3EVW2qCdOk5kIKcFumVJBtDh45Gqa1kzabtZO6yug9Ekm/nzkdxlTK0f689JmB2WW+GlxSzcf0atvvTlx/PWDTqK7ewraqRAf3747bvfmS1ZeVQ0aUXyYZtrN5al0YZU4im8MOmbcidBnDbg49y9+W/I8eRUYvTj2KMc4GuEfAHqE1IjCnNx9LyNdliIy/fg1tJUl0VMKT5vXEXdub6v0ynS5cu2OLbMi8JoK7R0BCgQbVQ0KkAuaVVtdgoKMjGmYhTXeU3XJS6ykp8SQuuLp1w7rWtyS0pwqHECFb5UAR0gPn13yhR1mxsQCvIp6AwZ8+/c2TRrczD7I1+Ao1RKG37WvdpR9fwNTRSp1rI71SAxbLn2lBQmI0zkUjJWG0XWOyMP3QKow8/hc6lhYQ3zkm3RCnBGMMjBBElSUACm8O2V+kACYvbimxVicUShjS/N1aXlwF9vQAk40a3pvL9F5/z/oKlRBSVRCzEvG/XsV2p55EZf6fQ03QK6DvxWE46YEjbHDmFTlhJEJKlJn3v4YQpY3XbkGWVaAr0HYyGCMoSFrfjv/pmcTnAopJMxtEFHbMQjqpQqSRRHR5str2nn4zda0VXEySSGepgIMTOsQp2hx0h7TlWbS4bskUhFjN8orYPZCtl5V3TLUXKMcidWjQXVPrpejXGJX1MLzrbli/m9ZdfxRdPoGsqvtoaoqKWWW/WY9t5+puUO5Dj28zw7GpZpF3fYqcwYh9GJSN/9b8EIZp19NMqEhmsoKZ+6fCzG4+M7b4JYJThkWRy7A4KJAlV1ZoXxiYEIqkhVCtOZ/pKLBiHjXFn/YEXjz0DXYdIYAeP3HULK2PduO3Gy+hR0nS94sotbDvlyzK5dgd5yKiKtpe7so6eVBGaFVcK9J2flUOeEIikgs6ej4hCSSJpVmxWBx0sTnI3Nhu97A4sjRqqtvdLl0CLasiyA5stgwLMWiI1jdUCJDRFQxItj74CbddYTWP5FRPjMcbwyBY8uV4KbBDY4UfVNNgVvKgr+HYEiVoclHbONaT59CKRlVdIVl4hAOEGJ7keNy5LDp27daNHmQF9li1483PJs+j4a/3oug67UrtrCg3VIWIOF51SoO+8snK8Vo3YtjoSOrhaGBj/9lriVheesnxsHfGaDcCWRe+uedi+q6XBH4bOLd55kmG2bAphK+1BXqYGkcoWcvK85FkEvlo/qi5oNjG6gq8mSMzmpLQ8E9cGk10YtO+UySvrTHl5LuvXrCUU3f22kAw38v22TVgKSujfpdiY5jscFgrLu1Be4mbNytVEErsLpiVCftZUbsJR3Jn+5UWGS5LXvT/dynKoXL+CumCs+c91NcrSFcuwF3eib4+yjpskULIzcOIY7JEaVqxet0cQdWDL9yyur6NX7z6Uet1pFNJILBSUl1PWKZvvVq0mEt+9NiSCftZu24y9qBMDuhg/Vk3Sh2HzP7+0O+NGjWDrsjm8O2cBwViCRCzMsgVz+WzeMgaMmUhFpwKjmm832BxOho45kIP3H0GOy7jrk8LyXowbNYwN8z/i3bmLCceSxKNBFn31OXMWrmH4hEPpWZSz7w/9j9gLujL54HH88O1XfDRnPoFIjEQsxNLZ7/DGp98ycMxEBnUrMVyO9ovE4AOmMLKLiw/fepWl67aSSCYJ1G7luaefpDKezaGHH06+M0NzpQAFZb2YMHIYmxZ+yrtfLCIYSxCPhVjy9Ww+X7CSIfsfQs9ib7rFNDEQw3K12bPzOOKEU1i84jv+dedfWDnvQHKscZYtXEjI1YM/n34CxTkZep3QArvby1Gnn4cqrOR4jNvFOnKKmHzKGSxeNY17b7uexZ8fgEeKsvibhSQKBvB/p00hz203rP1mZCfH/P4CFn53G4/dM41v5+6HR4ox74vPUcpGc8HZp1Ga4zRejnaMt+tgLr/sQv7y0L+56foGRg7ohX/7Bj77aimH//4yTjpoWEYmr92FI6eQo045nUWr/8aD025i2RcH4JFiLFm4kFhuXy4/7Vjyszr2GMl0jEsSKlnoOmgMN0+/i/dmvs1n8xawQXUw4IApHDtlCmOG9E1PJl6Lg+69+xPw9sCWgngeSZbx5OQZ3g6ShR7D9+f2e+5l5jtvMWfBYmLCzbBDTuLYYyczamBvLCmKmu0yaCw3T7+LWTPf5stFy/hBuBl3/AWcePxxjOjXPaMX1V+CZHEw6fSpZHXqzjvvfcDypYvILurOVdPu47gjJlHmzfANmWSh+9Dx3HbXPcx6521mz19IVHcx+OATOO7YyYweVIE1syK8fzGyw0P/QUPoWlaQ0dfRktiHj208kWRHTTWhUIiKigocrfU2EQJN19B2evDIsgWLRf4Zt9+fxuf3o6oqxUX/y/2vQFVUdCRsNmurQ0mEEASDQXRdx+v1Irdx7h0hBKFwGEVRyPV6W1//vQ313eDzoes6RYWFrf63Qgj0lnJYLFhkS6vLMwQCAW6/4w4emjEDRVH2/Q9+BVabjalTpzJt2jQKC1J3/SuEjqZq6EKAJGG1WNp8PP0cqqri8/vJcrvJyspKWbvNtOFY/V+JRqOEIxHy8vKwWVNSLeZHEUJHVVQkiwVra+d+G6DrOsFgEEVRcDqdSJJEdnbbBzIbr2FJwmKxkgYd/gQS1kx1VYV2o2+pncjRnpEkGWuKSlW0S8wx8l9IkozNnoIr8TTTgUe9iYmJiUk6MA2PiYmJiUlKMQ2PiYmJiUlKMQ2PiYmJiUlKMQ2PiYmJiUlK2adX29o1q0kmk9hsNhoaGtLqEaaqKkIIauvSWyRKVZtS1icVxRDXz139rFfVtLiW7i1HOvXd2NhINBrFYrUa5mosyTKxWIz6+vqmPHcdBCEEqqoSDIWIRDO18NwvQ9d1NE3D5/Oldc6lGyEEmqYZ7lK+z69nZWdDJIIE2Oz2tGbN1XUdXdexp9HdUAjR/J/dbm/7QbozrErXNGO+3wp0XW/uZ7qw2+1YLJadcUHGGAVZkrBYLNjt9rT2NdXsWmytVmvmZsP+haiKgq7r2Gy2lMZStTeEECQTxtft2qfh6dq1W3MAaY7H0/oA0jbEp+uoqkquN315nPYIIM3JMTSANMfjaX0AaRvSoGnoup5WfSMEDocDXdOMCyClycDl5OSkt68pRlVVVFXF7XKlJ4C0HRGNRtEjETweT1oDSNNNywBSI+m4pt3ExMTEJC2YhsfExMTEJKWYhsfExMTEJKWYhsfExMTEJKWYhsfExMTEJKWkxH1DScQIBPyowkJ2jpdsl7PV6fHbVJ5YGH9YpbAwl0ws+5GMRwk0BtCw4vF4yXI50qrvZDREIKJlrL5/LbquEQ0HCUdiWB1Z5Ho9WNNRo6odkEzECEcTeDw52KwdTwdC14mEAwRDMWxONzneHBzWzE3bbajhEbpG5fff8vbbM1m4YhVRzUaP/kM5evKxjB/WD6ctDfUmkmE+f/1Z3lul89fbLycvg8IXhK6ydc0SXn9rJstWryUunPQaOJzJU45lv8EVONIwofVEiI9feoL3v7czffofye24nqp7oMRCzP90Fu9+MofNVXW4cksZuf/BnHriZDpleiG4vdDVBIs/eoNPV/r53fnn0LvU+BLt7YlkJMCC2R/z3iefsX5LNe78MkbtP5Fjjzqc7p0KMnKzZuBKJNjx/VLuue02Hn3tM/K6D2JwRReWz36HW2+dztxl61H1n61B1+ZoSoxFn77N3Q/M4KPZS0j8fA283xiCmtULuf3mW3jqrbkU9RzCgB6lLProNW659S4WrN5MitWNpkSZ/+Gr3PnAQ3z25bckUy1Ae0VoLHr739xw8518uzVE/0FDcMZreOj2m7nl7mdpiGnpljB1CI31Cz9m2t+m8/GXi2mMJNMtUUrRExHmvv0if7ntbhZtCTNy7Djy5BDPzriHex9+gcqGULpFNATD9p9arJEP3n6Fj5ZXcu19/+Ksw0Yi6Sorv/6QG2/8K0+9Poth/bpRnJOa3Z0SC/LlzJeYNv1evl69iW7DxqWkXU1NUrlpAxHdRc8eXXHajTnlaVE/b776PJ+uredvDz/FyRMGgK6w9PO3ufGWO3nijQ8Y1mcqXldqIvOTkQCfv/kc0+66n0XfbaXH6JQ0+5sgXruOO+55ALofzD33386AznmosQBP/PVy/vb0fYw9ZH/OP2RIq6vj/tbQlCiL3nuJq667lUUb6k9HfFkAACAASURBVBh1yKh0i5RiBDs2reb5F15E7TmWx+65md5lBcRDDbz8yN3MePUFxkzYjzMPG4Mtw+rFG3bi8VVt5quvv6Fs9CEcM34ITocDhyuLoaMP4OiDR7NizidsqPEZ1fwexBt3MOOv13LRn28nXtidAX1KSFVWjFhjA4/fdQNX3fYPttQbt3up3bqeLxcsoecBx3D02AE4HQ6crmxG7z+JwyYMYfHHH7ApRbunUN027rvlav54073I5X3o16sgrW9M7Y2Vn7/NN5sDHHHyGQztUYrD4SArt4Tz/3gF3Z2NvP/OBzQmM/t0GKrbzN9vupLTLrqBxuIhHDyue7pFSj1qku9XLmP51gAnnHAcvcpLmjJoFJRy2DHH0dub5LMvFxKMGZ/CJtUYtPzqNFRtY+vWBgb0+3/2zjtMqiJ72O8NnaZ7Qk8O5BxEooKoBBOI4ppx3eAmXXfXddU1JxQTuqi7igHXiK6uGRNmf+aAGEByHgYmx87dN9T3xwACgrh+c/uOPfd9Hh8fpme6Tp17q07VqVPnDMbv+zbNjsufQ78e/dFbtrK8ss6a5ncj2dbAotXVTD3jPObePJOR/UszzG9q0LB5E1uq29h/6FCyXN9uZF3ZQQb26EeiYRPLNzemRZpoSx1fbmriuLMuYu5NVzC0Z2Fa2v1JIJJ89d6HaN4yRgztt8t7mN1tAKNKS1m3dhlbW6L2yZgGmqsr+WJjC1N/dyFPPjSPQwcX2y1S2tGTMbasW0VKzqdvj3JcOwJLJAqKKuhfXsry5atojSVsldMKrHG1mQatza3UJyUOKC9E3flQW1EpyA/gS6aoqW61pPndySqo4IrrbqFn7z54k1XImbb8Ng2am1po1hQKyguQd96WKy4KC7LxxBNUb21Jizh5Zb256vpb6NWrF97YJpRM0/f/D1qMlesb0QsKKCzcLS+cO0CvsgDvVTbT0hqHkoA9MqaBwh6DuPK6m+jZswdeKZXxbsU9oaU06uuaSOUWkJMX2MUr4Pb5CAYDpD6vIxzLvHMvawyPEES1JK0SuD2u3TIsyyh+F4pLJ5YmS+7yBxm+XxCAlOW7VoMNn3zE218uJaYbJKNtfL58A5u1EPPvv5fibRFLfccdxbSxgztmyylMQlqKNlnC7XUjsau+XX4XiqITTZO+vdkFDB9SAECya2fb/y66RlUqheHNxu3ebfhJMp6gC3NdkmTK2iSNduMPljAsWAJAKpF5E+sPwTANWpMJYl43ikvZZdRKqoKa5cLUm0nqmVeqw6Lggm2lA+B70vq3/07mYbBx8cfMf/gpmhNJTEOnoa6GhKjhqcdqcbvaTc1hrp5M6TDDAwiBieiC+v6JIQQG7c9h76t8saM8hkOGIwRCkvY6DwhERr4K1hgeSSbb7SFfktB1A3ZRnECkDISu4rWxxIJ1qIw59dfMm3wshimItdXzwG03sDzRnUsv/CO9irIByCmu6DjlyzK5Ljd5yBiasau6MTE1A2Fkqr5/YqguervcyIaJ9p36QgIzbiDLblwu58JTpqPIMkGPlyw9jr7buyBME1PTUfFl5IVaa95uWSE7N4cCVRBqaMMwTNi20sfUaa0PE1PcFJdnYu0TmdyScnJLygGINNVQlJ9NIFbAgMFDGFieZ0GTCrnBXIKySXNjK8I0YXsdH1OnpSZM3O2lpCIT9f0Tw51F3255uNY009oag/KdLktqUao2RlCLe5Gb17UukXZFVJeL/MIgntY6YuEEJt9Ge+mxOKGGKJSXk52VeYsQi0ypTLCsnIqKXNasWkU4/u3ZghYNsWZrJXJ+EYO7d71IFmtQKOjenbJiH6uXrSSa0nd8kgq3srK6EldRKUO6FdkoowMAkoehEw7AFalm2Yp1GDv5UcJb1rO4qYE+fftSlpdlo5AO6UD1+Cjr0w+31sCGyq1o289yhEljYw1r6+sZOLQfQV/mLUIs28Pll/Vi7OgRVH7xLq9//CXRRIpUMso3X3zEOx99yYAxE+hXXmBV850G1e1h0IgDGTd6P7K91uXnKerWj4NGDWP1J2/wxqdLiCZSJOMRvvrsfd77bBnDDjqcvsVdKxVJ50Ri+ITpjCj38NoLz7B0w1ZSmkaoqZqn5j9IZcTL5COOIt+beatch12RVA/9hwynf7GPVxe+wspN1eiGQaiplnffeI31LQoTxh1Ati/zXOSWvd2e7AKm/OxkPvt6FXfeeC2rFh1Gjppg8ccfUquU8/cZx1Oak/mrOo8/l+N+eTaaUMmzMAeXJ6eI6SfP4PNl13PzzCv4+ohJBIjy2Ucf0Rboy59OO45gVua9wD9Fgr1G8Jc//ZYb5j3FzKtCHLhfP5q3rGHhmx8y4dSzOeXw0ahdMb64qyHJVPQfxoyTj2POfU9w9cw2Dh45kOaq9bz/8WKGTTqBKQcNx+Nyznh+OJJC7xHjuXLWdbzwwgI+WPx/xA0P/YZN4A/Tj+PQA/bDbcehmeKmR+/+NAV64ErD/RJJVsgNWr+zk2SV/mMmcs0NPhYsWMAni/6PpPAxYPThnHPccRwyaiCqHbdmVTfd+wwgGu2O6tznaUf1MuUXZ+Mr6s5Lr7/FB+++TVawgt9deA0nTZ9G92DmL8h2RpJlSrr1o5/aHZ8nczMy7wl3IMiUGb8hu7icFxa+zpsLX8FfUMFxZ5zDz46ZQt+y/Iy84ySJfcTYJpIp6mprCIfD9O/fH8//GBklTJNkMkE8EUcIGbfHi8/rQfkR6d+bW1rQdZ3ioh9/ViGEQTQSRjdVcnID/7OvUQhBKBTCNE1yc3OROzj3jhCCcCSCpmnk5eaiKP/bQBSmSTIRJ55MIISMx+vF6/Wg/Ag5m5qbMU2TosIfn3lAmAaRSAhDuMjNDfzPg6i1tZXrb7iBO/71LzTNmrstqsvFmWeeyaxZsygsSJ/719A14vEYKU1HVlz4fFm43WraJhpd12luacGflYXf709Tq3tACGLREJqp4Pf7UW3ISxaLxYhEowSDQVxq+t2c29+FZEpHUVx4fT48blfaU02ZpkkoFELTNLxeL5IkEQh0/EVmyzUsyTJeXxZeX+dYxUmSQiDbgsiyToIky3iz/HizbJxIdkKSFbJzgnaL0SlRVBeBbCfSEEkiK9C19bD9XcjcXBW7knnOQwcHBweHTo1jeBwcHBwc0opjeBwcHBwc0opjeBwcHBwc0so+gwsikTCJZArTNNE07XuSUFqPaRiYpkkqZV82W1MIdMNACEEqlbIkqs3Y1k9N0zAM+8ogm4aBua2fdpFKpTAMA0mSOlzX25ElCcMw0FIpW/uaboxt77FuGF2q33tC1/X2MZdKtaec6qKYpomRhv7v0/CsXLECIQRZWVk0NjWh2hBquJ3tkd/1DQ22ybAdIQSJhHVlBoQQJJP2Vh7sDPoOhULE43EUVUWx8N1LJBI0NjWlZdB1JoQQaJpGOJye6rSdGSEEzS3pqVnVmRFCWJ5QeJ8jecjQoTQ1NZFMJCgsKMDtdlsq0PcRCofRdZ38oH3huUIIorEYpmmSHQhYsgOMxmLouk52IGDZKv+H0LbtvlIwz77wc4/bjc/nw9B1dF3f9x/8CBRVxef1UlhQQEEa7/HYjbHtzobX68Xn9dotjq0kkklisRi5OTn/8925TEIIQSQaxbTY07JPw+P3B4iEw6SSSVwul62GR5ZlZFm2VYbtOx0JcLlclrjaFEXBNE1cLpetg2B73+zU93YdCCEwLdqNyEIgKwout9vWvqYbXdeRJAlVUbpUv/eEruvIsozqctlygbSzYJomiixbbnic4AIHBwcHh7TiGB4HBwcHh7TiGB4HBwcHh7TiGB4HBwcHh7TiGB4HBwcHh7RiefiGmUpQs3UzmzZXkTRViit60Kt7OX6fx6Y6E4LGLRtYV5Ng5OiheDLV9ApBS90WNjdE6N2vHzk+66qf7gk9EaN6SyVVW2tJ4aK0W0969igny9V1Q1V3QQiibU1s2rSR+uYQ7kA+vXr3pqwwDzvKJtmKELTWb6WyLkTv/v3T/q52JoRpsGn1chKufAb07YYNFSLSgqWGR4+18d7C53n06ReprG/ANBUCBWUccezJnHb8FMry050EXBCur2T+HbN5dW0ujz/5D4rcmflkE+EGnpx3Ox9vcXPJ1RcztHt+2tpORdt458Unefz5hVQ1tGCaEln5pRxz4q/4xUlTCGZ13XDV7bRuXcdD983jnUVfE46nQPHQfdBIfn/mn5gwoneXMj7JSBNP33c7722UuWTmZQzrmb53tXMhqF2ziJuuvomScadz6Xmn4c/QdZpl631hanzzwevMufUuauUy/vL3K7n8onMZUqLw8N238+w7i4hpaUwHIwRttZt5/L47uec/z1G5pQH7ktFYSzLcwH/vuoVb5z3Ghq11aHp6b+Ov/Hghc267h0hWD84+72IuveAv9PG28s/Zs/jvm5+if2/pwS6AFuGJO2bz0IL3GHLoz7jk8iv4/YyprP1wAZfPvJHlNa12S5g2kuEGnrznFv5x76Os31JHKs3vaqdBGFQt/YiZl13Cc28vorktSiYPE8uWnonWOl5b+CKbKWHuZRcwYb/eSMJkaN8KwpddxtPPvMC0CaPoU2z9rXhh6mxe+SX3/es2/vvae9S2hikrT89jTUZaeOGJh9iYKuHXpx9PWdC6Am3C0Kha9SV3zbmF+a+8SyyRotiy1vaCEeXZRx6iMasHl5z3NyYP642MyYGjBtJ4ygyeeeppjjx4JP0KO0ehOjuoX/UR9z35CoNOvIDz//oHigMeDO1Qembp/OL8OTy+8ESu+/3RqBm86xGmzpZVX3H3rTcz/6X/I5JI0lX3OaloK5+8/jyzb7mdT9dvxRSZ6v//Fst62LB1A4uXLGPQuIPZv3c5iiwjKyoVfQYzdtwYqpd9zMqqRqua34Vw9Vr+cvaZPPjGUk783R85Ylw/1DQ9Wy2ZYMmn7/HOh18QiltTunk7W1d9xlln/ZF7XlnMSedexxnHDLa0vT2RqF7Fa4uWMWj/UYwc1BtVaX/uBd2HMf2Yg9n0zWKWrtuSdrk6DyaL3lrAhpDMEUcfSWmOD1mWcXmyOHjaSQws9bHo/16jPmrtu2I31asW8aezz+bulz7n+HOv53fTh9otkj3ocV564n7+cN7lbKQ7d869id6FjuH5cQiD1upa6mpT9OzVC7f728NCye2lZ2EpSiTC6i3pST4pKyr7T5jO3Q89wmVnzaAw22dTYIO1SLKLUYedxGPPv8hNfzudfBsOaRvWr6K5Saeo5xCyd4nckOjbayBKWwsbK2sz1s25T4w4Kz9cCbnd6NujfJePlLwiRhYUsHVLNTUtUZsETA+SrDJy8gk88uwCbjn/l+RnddWAAoEvWMavzpvJ808/zLGj+2VsQMHOWONqEwahaIxGScKfn42ycz4zSSFQ4MOLRkt9ejLiZhX34oorriQry4vWvM7i1gTJSIRQLI4pBNGWBqLxFMlkjOaGBuqU9ozTnkAuef6OTcxY0m84V105Eq/bTTJuzzlBU2M9LZKKqyyP3eM2soqCuEkSawyhmaBk/sLuu2gJVrdE0II5+HN8u36m+CjqnoW5NEQkZF3m885Acd/hXH75CLxuN1oyYrc49qF4OeyYkzhCdeFWFVqtnp46CRYZHkHc0IgCqqqw6/ZCAlVGUgxSWnrcCbLiwp+2FZXOstde4MFX3yGU0tCScZZ/uZwmo5KbZ7WQndWejHH0SWfx1+MPpSODVlSX1/r4+H0QSSaISSC51O/sKiVFQcgmhqlhZvLJ6fdh6DQYOqYi49pDglnZLWMKHd3GOkzpQHV5bH9XOwWSjLcLZga36NlLuCQJtwRirxOMhJyhMaMmor2WjQBJiPboFAHmtv8DkKHRO15FwQ1Ie3zu7T+UkLCxnqC9SBL+bZ3f89AQgGxrwUUHB6uxxvDIMjm+LAqRSMYTiF2WtwZaWxI9pZKdnWVJ8/aiMnzaidxw2DEIAZGWWv55zYV8He/FVbMuom9pLgBun79Ddzudhfy8AoKmiRaOYcAufdTaogjNjTfL3yX82HvE7aV/VhZqQ4p4crcdv9CI1qRQPPn4fF27TIFDZmON4ZEUsovyKfBLNG1pQtcNcG+bgnSd+uYQUb+Pbj0yseiWhDvLjzurPVzYTRKfx4XL8JITDJJfYF9RtXSQ17MHuX6T+MZq4gYEdrI8DbW1xAN+8nsV4eqqhkf10XdYCcri1TTWtUHPnYoaxiOsbgiT1X0oBfldN9zcIfOx6HhXorCsJ/36lLN06efUtoS2/VwQbq5lyapvCJT0Zb+KtN8ySTuSJOH2ePF6PchdwH0S7DGUob3KWLXmczbXte5wJ2nRJt794D1yK/oxrGdFRkYV/jBcjJ54FNlmHR98/sWOS9RCmFQu/YSvauvZf/AYynYPPHBwyCAsiyvKLe7G5MkTia3+hPv/8ywr11eyecNaXnn+Kd78bC0Tpk6jV0lmr/6h3aU2YeoJnHrsZPIDmX+IKPlLOPWkaTSvXMSjTzzNirUbqFy/iuceuoMFn9Uwaeo0BnXPxJ3uD6fvuKkcfUA/3nnyQV586yM2bd7Msi8+5B9z/kUsZzDHHz+FgHPy7pDBWPZ6y54Ak445mTMqq3nymQdY8embZEk6NXWN9B43jd+eNJW8LI9VzXcaXL5sJh93mt1ipBGFiSf+lp9vamDhsw+y7INXcUspNm7aygHHncEfZkwn15OJp1s/HG9+D/520SXceNtd3DF7Js+UFBJtrqcupvDXi6/giBF9uvCO0KErYOG6SiKvWz9+f94ljDz0C75ZsYKY4aJn/yGMGTOaPhUltiRCVHz5/Oznf2RUuJhABp9wqy4vk372e3pECijNS28QR15FX86+6EoOWPw5K9asJyk8nPK7oYw7YAw9SvKdSRWZwYdOY1ZRdz7/8ksqaxrw5ZWy/4hRjB4xjGx317rgpKhuJh73O8rbgpTnd20Xoye/N2efexHdho7K6HNQSzf0kiSTV9KdSVPKGD/5KEwkXC43qqrYNvko3jymHv8rDCHjzeCFt+rycPDU0xknZNye9N4Kl2SFgvJeHH5MNyYcqSGQcLndqF3yxuieUVwe+u43mp6DhqHrBpKs4na7usQ54O4oqpuDppzOgaaE29O1o/m8eT341e//jKy6yeT1R1o8ybKi4vV1Eqe1JOP2dIVVlYTL48XORCSKoqJ0lufeCZEkCZfLg6urZovZCZfb3ne1syDJCl5fJl4z2ZUMtqkODg4ODp0Rx/A4ODg4OKQVx/A4ODg4OKSVfTrg4/EYKU1DCIGu68h7SGyYLkzTRAiBlqbkontCCIFhmgjTRNN1Sw6DTcPANE10Xcc07cvpZpompmnaqm9d1zENA0mSkGW5PQdeByJJEpIktetb02zta7oxto0nw+Zn3BkwDGPHHPc9CSYznu3vg9Xs0/CsXrUKwzDweL00Nzej2ngSamzL2NvY1GSbDLDNAAKpVAorsl1uN7BNmmZrssjOoO+2tjbiiQSyouBWrAtDTCQSNDU3Z3S54d0RQuxY4ESjmV3/Z19sH3MtLS1dO0GrEJhC4LZ4nt+n4enTty/NzS2kkgny8vJwu+0LdwyFwxiGQTDPvowHphDEYjFM0yTg93f4DlAIQSweR9d1sgMBW3eYbaEQpmnaqm9ZkvB6PJimiaHrHb7jAVBVFY/bTTAvj/xgcN9/kCEYhkEoHMbr9eLrgqn5dyaRSBBPJMgOBFDVrhuJaZom0VgMYfGuZ58azsnJJR6LoWsp3G43Ho992QaUWAwhhK0yCCFIJZOYkoTH47HE8Gx3bbrdbhQLV/n7QlEUpG39tAuPx4OiqgjT3LED62hMIVBUFbfHY2tf081217lLVbtUv/eEYRgkUyncHg+uLm54kskkmsWGxwkucHBwcHBIK47hcXBwcHBIK47hcXBwcHBIK47hcXBwcHBIK47hcXBwcHBIK5aHbwjTIBaNEolGMIWMN8tPwJ+FS7UvWisZDdEWNyksyLOlNEN6ECTjMaIJjezsHFyqXWsMQSISIhQXFBZmsr5/PMLUaW1pw+XLJpDVdbIzt88NESLRKKaQ8fkDBPxZXTCLuUBPpQhHwsQTSRSXh0AgG5/XnbHZyi01PGYqweqvPuW5BS/w6ZKlJHQ3vYaM4JjpP+OwcaPI8ad/kCXDjTz3wB08/SX8+4FZFGRoSlwtHuK1/9zPmyuinHPBuQzqZs9dnESokafuncOz32Tx0IMzyc9Qff9YhKlTvfJzbrjpLkb8/HzOOma03SKlBTMVZ+UXH/Pc8y+y6JtlJEwPfYaO5JjpxzNp3HByfF3FAAsijTW89+ZCXnz9LdZtrsGXV8YBh0zmhOnHMKRPBWoG1g2zbmkhDDZ+/RGzZ83ixc/WM2bCNI4+fDxt6xcz+/qbePXTpaT0dKaDEcRa63nj2fncfs9DLF9ZiZahqTH0eBvvPv8Yt9w6lyWrNpLQdBukEESba1n43we47d5HWLWuCj1D9f1jEYbO1jVLmXfnP3nmpbeoaeki2QNMnXVfvM/118zi5S82MWbSNKZMHkfj6k+58fqbeGvRCjTDvlRR6SQVaeH1px7hhjnzaFWLOO6EkxnZt5g3n/w3s+94gHU1TRmZTcOyHU8y3MRrLz3LF7WCy2dfyQkTRqKiccT4UVx37Q385+mXOHjkILrlB6wSYQdCGNRXruX5xx/m4SefZ0VVHaVD0/M4tXiEj995jVo9yJGHHUJ+tnUX9YRp0FC1lucfe4j7HnuaNVX17N/bsua+Rw6dmg2reOY/D/Ho0y+ytqaJipL0y9GZMZIxlnzyDg/8+34WvvshLTEDKRNnmD2QDDfw8vNPs6RRZdat13DM+P1QzBSHj92fWdfexPxnXuaQkQMpzsnwulnCZOu6b3jquZcoGn0kMy//KwO7FxNra2BQxd3cNv9V3vrsUHqWTsJnm6vcGizrTXPNRj79/Eu6jz6YyWOG4vO4cHmyGDJyLJPGj2LN4vdYs7XRquZ3IVa/mWsu+zu3PfIyAw+axJhh3UjXc0zFI7y38BmeeOFtmiIJS9tq2PgNV15yIdfd+zR9Jp3C9Al9LG1vb7RsWcvVl13I3CfeZPikoxgxqMQpd70bX779NGefexEfVyaYMm0iZYV+u0VKGw1b1vPx4q/pO24ik0YPwud24fb62W/MeCaM3Z+Vn7zD2tpWu8W0HKEnWbPsK1bXRjhyyhH07VaKoihkB0s49PCj6Bs0effjRURiSbtF7XAsmn4NmrdsZUtliAEDBhLYyV+rZmXTv7wHZmMDK6rqrWl+N/RklKirgPOvm8Psy86hT1kwbROhEIJkIk48nsC02NUUC7UQ95Qzc+6D3HvDRfQvzbG0vb2RikfR/OVcctPtXH/hmfQszLZFjs5Ma1MDPQ88lrn33s0Z0w8l4O0qaVoMmiqrqN0SZdCgwfh3KnXt8ucwsLwnqYa6tM0NdqIn4lSvWYsuF9OnWzkuddusJEnkF5TSr6iIVcvW0RKL2yuoBVjztpsmbaEw9chkF+ch7xylIqvkFWeTRYqGmjZLmt+d7PL+3HHXPeQE/Ogt6yw3OoauoesGAkgkk+iGiWkapJJJEon2XY+iujo8sq9iyFjuuecg/D4vyXirbbuMoj7DuGPuXHICWaQaV3ftbL974dAT/sD4Gdn43QpfbM4sN8r3Yhq0hMI0ygo5xbnIO4c5yi7ySgJkGUnqq0P2yZgmNF2jsbWNWH4uvhzfLrsA1ecjuyiAWNVAOJ55JSusMTzCJKqnCCFwudTdJh4JXDKSopNIpixpfndk1UOehWcru6Kz4ZP3eW3RV8R0g1QsxOfLN7BVa+WR+++lKKc9C/CAQ47hZwfv16FbTpcnq1PUrVdcHnI7gyCdGG/AvozftiJMInqKNkmgulTEbnOD7FLa54ZU5rmXdscwTdpSSWJuFdduIeSS3K4LUyTQ9Mw7/LNofy+hShKK9H01laQMXQmb1K5ezpuvvUZrMoWhpaiqqiNshnjvrTfwedp3OaGiYRx38H42y+rgkG7a5wZ1j/txseN3MnNu2BUJtukC9hbDJyFZUfLLdqwxPLJEwOMlHwktpe1WQ8XEiKYwNBW/PxNrgKgMO/YkZo+bjG4KYm0NPHDbDaxIdOfSv59Fz+L2847c4m5O2giHrockk+P2EARSiRSSELDDCAlS0RSGrpCVlYlzw66oikLQl4Uv2bbDNb9DE7qBHk0hq348GRbRBlYZHkkhJz+PAq9ES00zhm6Ca9t5hqHT1BQh7vVQVpGJRbdk8koryCutACDSVENxfjabYwUMGDKUgeVd1MXi4AAgK+QWBsl3C5prWzAMkx0hpoZGY1OYeJaP8m6ZODfsiup2U1BagLutkkhrDCG+LWicjMdpbong6tGHnAzMZmGRKZUpKOtGz4p8VqxcTjj+rb82FW1jTeUalJwyBncrtqZ5BweHTopMYUUPupXmsHT5MqKpbw/OtXArqyvX4g12Y2i3IhtlTA+Kx0e33gNwaY2s3byF5I5Ls4KmuirWbK1h6OCB5Poyb/dn2R4ur7QXB48/gOrP3+C5tz8lFIkRjbSx+KN3WPjuFwyffBT9y/Ktar7ToHq8DBtzMBPGjSDH65y4OzgUVPTlkHFj2PzRyzz7zqL2uSHcyqfvv8nrHyxl9BFH06fInqsA6URS3AzYbwQjeuby3FNPsXz9ZuLxOM21Vbz64vOsi2Rx+KFjyc7KvOqwll0eULNymXr8DL5ctpZ7bricZZ8cRqGaYNGnn2GUjuKs044jP5B5lnx3vIEgp/3pYrvFcHDoNKj+INNPOZ2vV27gjpkX8/X7hxGUoiz69DOU7mM5a8axGele+i4SpX2G8otf/pLZ/7qPCy64kEkHDqNh0yo++3otR574O448cCjuDMzVZuGtNYnSgaO49OprGfrKQhYvXcYmw8WBU09hytRpHDisH6oNqYolsMb1UgAAIABJREFUd4ADxh9Bdks3vBmcKllR3AwdMxmttZw8G5Kxbkf2BDjw0KMoTAzKaH3//xAs7c+UadMY0rPQblHShET5kAO48trreOGVhXy1bAWbTQ8HH/NzpkybxpihvVAyMZRrD8ieABN/dhr+ghJee/td1q5cTlawjD9ccDLTjpxMRX5mXr629Lq0JCtUDBzB73sP5JS2NnSh4M/Owe/12BYiqGYVctqZF6IZLnLsq8xgOarby9Gnn8dhpkpOrvX58PYqh7+EX//lcnTTQyCD9f3/Q/ehE7h85mh82V0n8ESSVboNHsVZfQbTFmrDEAqB7ByybJwb7MLtz+Ogo37G8PGTCUfjqG4fOTnZuG0sHWM1acnT4XL7KCjqHAn/JFklL5j5B5eSJBPIK8Q+k7NNDlklmO8EkXwfLo+fouKuk6ttZ1weH4WdZG6wE0mS8Wfn4e8ii4/MCxB3cHBwcOjUOIbHwcHBwSGtOIbHwcHBwSGtOIbHwcHBwSGt7DO4oKammnA4jGkYRKNRUpp9Kbo1TcM0TcKRiG0yCCFIplIIIYhEIkhyx9puIQTJZBLTMIhEo8gd/P3/C7qu267vSCRCKpVClmVUl+v7ss7+aGRZRtM0IpEIHk/mXdbbG6ZpYhgGiWQS0zTpcuFkO5FKpTC2zXGKkrnRZPtCmCYpTbO8pMo+DU9rSwupVAqXy0UikUA3DItF2juGYSCEIB63tzCSrusAxBMJS7Lo6rqOEIKERd//Q+kM+o4nEui6jiTLWDUdSLKMruskEgnb3610IoTANM0dk25XxjRNTNMkmUx2iczYe0MIgWEYuFRrA573+e0DBg6kvr6eaCRCfn4+brd9lxFbW1vRDYPCggLbZBBCtO8AhSAnO7vDdyRCCCLRKLqmkZuba+uOp7mlBdM0bdW3qij4fD4Mw0C3aLetqiper5eC/HwKbOxrujEMg5bWVrJ8PrKysuwWx1bi8TjRWIy83FxUiyfdzowQglAotGNxbRX71LCiqMjbVgCSJNk6EW53BdgpgxACSZKQhECWZUsMjyRJIEm261vqBDLIstyuDyF2K6/RcQi29dWC59mZMc32pJR2P+POwPZdTld7B3bHNM207Pi6roYdHBwcHGzBMTwODg4ODmnFMTwODg4ODmnFMTwODg4ODmnFMTwODg4ODmkljXGDgta6raytaqTfoCEEA+kNy9ZSCRqqN7Nuw0bihpse/QbQu6IErzuzQid1LUFDdRVr1q4lIbx079OPXhVl+DyuNN4PFGjJBHVbK1m/YRMJvPTqP5Ce5UV4XZml7x+LECbxcCubNq6nqqYBX14pAwf0ozAvG6Wr1S0SgubaKjZUt9Jv8CDyukQRuG8RwiQeDVG5fg0bq2rxBUvpP6A/Jfm5uJTM3BukaRYQRJqqeeCWK3npG42b77qdsf3Tlyo/GWnm1Sce4p5Hn6a6JYIAZE8Ox5x+Nn/97UmUBzMjJX28tZ5XHn+AO+c/S3MsjhASvtxijj75N5z1y+OpKMyx/EZyuxwNvPSfB/j3EwuobYsiBMjeHE444xz+9KvjKc3r2ndGQFC3dil33T6HhZ8sJWmYICQK+4zggosvY+pBgzOy6uSeEYQaNnPfTVfy9gYXs/91C6P7dpWCeCBMna2rlzBv7h0s/ORrUpoOkkpp3/058+xzmDZpNAFP5i3WLO+RMHXqNq3myQfu5LYHn6V0+DSrm9xdApa9+wL/uONBKg4+jvNmHEtQjfP6s4/y0K2z8OYGueiMY8lSrRnowjQIh9rQhUpOTjaqRROK0OJ8uvBpbrn7cfpOPpGrTzsGvxHi1eceZ8HDd5NTXMI5pxyB12V1OhDBl289yz/nPUGfScdz0clTyRZRFj71II/ddgNZefn89edTLNP3TwEj1sRDt17Hc5/U8MuzL+awMQOp37iUe//1T6649GoKH76L8f1K7BbTcoSpU7txJY//+w7ueHQBPQ44wW6R0k6kcSuP33cXLy2qZMYfLmLqwcOoXbeU+Q88yJ13zKW47FoOHdaHTFuHWGp4tFgbn777Go8+PJ+3vt5IIJj+gk8i2cqT8x8hHOzDn8/5MxOGdkeWYOjA3tSuPpUXnn6Snx11MCO651vSfjLaxsv/uY/1qVJ+f8YplOdbs7sKN2zmpYUL0SqGc/lF5zCsRxEIk16lQWo3X8yC517g5Cnj6VVgbSldkWjhqccfRy8bzJ///EcOGliBJMHQQb2oWTuDF59/jmMPG8fQiq5R8GpPbPn6Xea//AEH/eFa/vibU8nPciNGD6fMk+LUP13N0y+/y8i/zsCXwSnDUrFWPn57IY8+PJ/3vtmEP7cLFoMzddYv/5LXP/qSg4//E3/89SnkBzwYQwaSo2pcet0dvPnh54we0INsb2bteix1IDZUruLOu//N4nqJi66bw3EH97ayuT0SrV7F+4tX0G/wAezXr4Lt7vPs4j5MnzKJ5vXLWLxmM9bciQc9lWT5l5/w4aKlhBNWJVgV1FWuY/mqSoaPPYQ+xdsmdUmmpGd/Dtx/GFtWfcHK6haL2v+WyNYVfLJkHQOGjGFw77Id50o5JX2ZetjB1K39hq83brVM350fnS/efpnahJ+JEw4luO08Q1LcjJw4lf2Lclj02YfUR5I2y2kt9RuW88+59/FVs5sLr72ZYw7qabdIacfU4mxYuYT6qIvxY0aSs+1dUFxeBuw3ikFluXz0xdeEYgmbJe14LDU8bn8eJ//+PB59aB6/Pf4wCgNeK5vbI80bN1DXkCTYbyA53p27K9GjzwC84Ta2rK3BvpzbHYDQad5aR2OboEff7qg71WqX3F56FhehNreyvrLRclGaNqynscWkoG8/Ap6d9S3To1dfXC2t1Gyow9pMUJ0YI86Kz9Zj5JfSs2fpLmduSm4R+xXl0bxxK3XNUdtETAfuQJBTz/o7jz88j19Nn0xBoOtkBd+OlkhSv2krur+Y4pL8XYJKAtl5VBTk07RiMy0ZaHgs3b8V9hjIqT0GAmAY9kztDS2NNEgyruI8XLt95i3IRfVoxNva0A1wd5BrQ08lSWoaQrCtlISBoWvEolEikXaVq25vx0XUmQZN8Sj1qkQgN7Ajtx4AkoqvMAu3kqK5Jdwx7X0P9U31NCoKamHuHvWtuJLEQiF0E1yZGbDz/aTiLI9E0XKCZO0+2cpu8npmoX8eJhLN7B1Pca8hnN5rCACphH1lN+xE1zXqIiHCuX68Ps8uixDZ48aX78OINRNLZN4yLbMch3tAMww0JJClvUR0CUxhdqDrJ8XHj9zDzU8soCWRwtA1qivXEza/4vc/X4R3m3Wb8Icrue53074zOf8oBGimiS4E0l5DcU0Mw+yI1r4XzdDbd497kUNs13dX9bWZgrgwEZKEsvc3EmFa/6wc7EUAummiS/JerzoITMwMHCsZb3i8LhdeBBjtxmWX52uaYErIstKBd1wk8sp7MGLUaCIpHS0RxYw2I+u57Dd8JEF/+yq3X2lBx/k5JQmvrOBFQnznLRVgCoSQUdNQ4MrncuGFPepbmO1hw7LUkfr+iSHL5MkKkhCYe7C+QhdIdO0MyV0FSZLwKgoe08T4zrAVCNNEQiUTX4WMNzz5+YXkywK9OYwG7Hw1LdEaRjfd+PJy6LjoXheDj5jGZROPbHe1Nddy61W1fBnvzXmXXEL/slyg3dXWYWZAlgkGAgQliIZj2ya0bR0SBvHWBJrkJi8/0FEt7pWCwmLyMdBaouiwy44u2RrGEG68uQHUDBxMPwi3jwFBP67qBNF4atfPzBRtdQnk7CL8/q535tHVUFWVgpwcfNEaUonULgs1M6WRDCVRsvPwZ+A9nowf/vnde5MfdNG6YR2R1M7LCsGWTWtJeAN0612CqwNX4C6Pl0Agm+zsbAKBAG6Xgqq68AcCZGe3/9zn6RAnWzuSSl5pEQV+iarK6l1caiKVYHN9A0Ygm77drS9ylt+jD3nZCq2VG4jtru/K9ej+XLr1KM78Fc/eULz0H9EbqbmOLVsbdvnIDDeyrK6FoopSijPkUrPD3nG5PRR1K0eNNtDU2MrOnvBopI2tjc0U9O1GblbmLUIy3vAEug1kwqBerFqxmDVV9Tt+rkfrePnlt8nuPoDh/Xum5Ua/dUiUdO/DoN5lfPHxB9SEvo2Iaqmp5MslSwn2Hs6g8qDlkmR3H8LYfuWsXPYF66q/jaLTI7W89sYH5PcayOA+3X7i+v7/QeWASVMpEM28++EnRLTts41gzafvsKSqkcGjxlOSk3mTjcOuyB4fffoPIShH+HTJMmKp9gAsYWpsWrOcFZsaGTVyf3Ky0h8NbDUZb3hwB/nFWb9FX7uIuXfcw9J1m6mtWs+8m67kicU1HHXiaQyz6PIogC+3gLMuvZHbZp5Dj0LrXF25pb05esrhJJe/zVW3zGNtVS01lWuY/9C/eXVJLSfNOIHy3DSsoj35nHbGzwkt+4C777mfFRu3ULt5HXfOuoQFy1o46viTGVzedS+PAvQ4cAqnThrG24/O5ZHn3qCmro5vPnmd866+Ga38AH59yhR8mT8yHSSV/vuPYdIBg3np/rk88cp7NLa0sOKLD7nz7nm0BQdyzMSxBDrSO9JJSJvHQwLcXh/+LB9Kmk+Whx1xGpees4V5Tz3Pbz9eiEsyaI3qnPiHi/n7r4/Fa2E+CkV107P/UMu+fweql8kn/przahq476mHOO2953BJBnFN5phf/ZlfHX1oGtLltDNm2i+5YEMNDz7/X379fwtQ0WmJapx61sX8ZcZRlur7p4Dszeev186meeYs5t1wEY/+M0AiGkbO7cNNs27koL7py2PYGZAkCY/X3z43dLEEqYGSnvzmT+fSFP0Hd1xzAfNvzyYZi+LK6875fzuXsUN67y1A9CdN+gyPpDD+6F8RPDBARX56k0R6svP5+TmXMHzCkXy5ZBlRw83A/UcxdvTwjMqE68sv4/d/v4qxh0/j86+XEDd9DNp/FKNH7EdBTvp0nhUs5ozzrmD05Kl8tXQ5MXwMHjGGsSOHkevLvNXbj6F8yFhuuuMeFn32KWs3V+Mv6M6BBx3EkN4VGZeXa1/IiotDpv2asnAepTak1bIVSaHvyIO5fk53Fi36lBXrNhMo6s6YA8cypF/PtC0W0036DI8sM/aoXzA2XQ3uhsefy8iDJjPyoMk2SZAeXFm5jBx/GCPHH2ajFBLe7CBjDjmCMYccYaMcnRdJkiko78XRJ/TiaLuFsRlFdTP+6F8w3m5B7EKSyS/vxdTjezHVblnShONJdnBwcHBIK47hcXBwcHBIK47hcXBwcHBIK47hcXBwcHBIK/sMLtC01I6b8KZpYhiG5ULtDSEEQgjbZTC3y2GaCAuyXYpt32vanCiyM+jbMLclzJQkJIvC8CXadW4ahq19TTemacK297kr9XtPbB/TpmFgdNlEgt/Ob1azT8NTWVlJIp5AUWTaQiFcLvvCYVOpFKZp0trWZpsMCIGm6+0PqK3NkslQ0zRM06QtFLJssv0hpFLtucTs1HdbWxvJVApFlpEsevckWSaVStEWCqGoXSeZjxAC3TCIxWI7nnVXxdB1dF0nHA4jZWJWzh+KEKQ0zfKEwvscZVk+H4ZhIEwTl6raanj0bRO+nTLsvNNxuVwdbxh22um4VNXWQaBpmu36dqkqsiwjaF+Vdng9BUlCEQJJlm1/v9ONaZpomoaiKF2q33tkmxFWVRU5DVncOyvbFyNWs0/DU1pWjlRXSzQSwe/34/HYl0NK13UkSSI7YH2W5b2x3f1kmiYBv7/D09cLISASQdM0/IEAip2GJ5XCME1b9W3oOi6Xq90Fsm3h0ZFIkoS0zeD4AwFb+5puDMMglUrh83rJykrvpe7ORiwexzBN/H4/ahfa9e6OaZqYpomuWVu4c58almV5R0VLyUI/+/+C3TJI2/+zSh+S1H6mgc193dY/O2XYuX1LztOEaE9H3wn6aiddtd/b2dH7LvwOwLZxkIZ2urAz08HBwcHBDhzD4+Dg4OCQVhzD4+Dg4OCQVhzD4+Dg4OCQVhzD4+Dg4OCQVtJneITJyo9f48qrZrNiS0vamm1vWxBpqmHB/Ls447TjmX7y6cy5/ymqWiLplSMNxJprWPDIXH5x8jSmn3gac/79XzbWNmNafxl5z5gaHz5zL785Zw4tuk0ydEJMQ2fTskXcctX5HHfs0fzmnEt4+eMlJHV7s1XYgTANlr73MjOvvZXV1TZeDu8EmKkYj//zOv754CvEM/hVSIvhMQ2NLSs/44YrLuPND74iHLc2Rnx3WmvWM/uic7j4+ruojUp4tBbuu/4CZpz+Vz5fW4ddc3KHIkwa1y/linPO5G/XzqXF8OMxwzx020zOPn8mi1dXpSUVxs4YyRhL3n2Bmdf/g0++WIVmm/XrZAiDJW8+zW9+9Rsee3UR7qwAVV+/wx9mnMTVc5+lLdF1LLRppNi07CNuvPpK3vp4CZE0zw2dB0Ey0sLrj93OtXPmsXZTLUYGDxdrDY8wibY28NmbL3DxuX9jwacrSfuQEjrvPvVvnvlwDb/++yweffRRHn3sce65+VIiK9/gtn//h6aYdS+7oSXZsGopS1asI560rvd6vI2X/vsIr35VzV9n3c5/HpvP/PmPcPPl5xBa+R4PPPsa4UR6BrUQJqHGGt5+4QmunjWbT1dvzgzj3kHEG9Yx54abiBWP4PZ5DzJ//nz+89gj/O6owcy/fRYvLVpNBi922xEm0dZ6Pnl9AZec/3deWrQ6oyfa78PQU1RvWM3jd/+D82beTlUoabdIlmOp4Qk3buXR++7g75ddywa5G2OHl1vZ3B4xQtU8+exLFAw+gBN/dhTFeQF82UEmn3AGvzpyOF++9xpfb6yzrP1ktI3nHryT2+79L7WtMcvaadq6jnc/+pSyMYfzy+kTCfp9ZOUUctjU6Rx54EA+fvM1KpvClrW/M5Gmau6/8x/MmnMP8UAxPctz03Ip7aeBYMWHL/N/K2s58uSfc8jIAWR5fZT2Gszfzv0rJaKOl195g3Ays01PqL6Kh+6+nQsuu5YqpYID9iuzWyR7MDWWL/6AG6+5nDmPLGTE5MMpyc780WKp4Wmrr+KTJesYccwvuf0fNzFp//QbntZNK/lmdS29+o+ke2H2jp/L7mwOGn8Qes1mvllTadkK0zQMWprqqW1oJmVY1YpB/aZNbKxsZtiIEeT6vk1rlBUsZmif/kSq1rFiS5NF7e9KtLmWRcs3Mm76L7nm0nMZ0jM/Le3+JBApvn7rfaKuIg4YuR8eefskI1E8YDgjiwtZs2wJ1W1xW8W0mta6Sj7+ej0HHv9b5sy+nkP2K7VbJHswNFYt+4YtST9/vuxaZp5zOnn+zDc8liYlKug+kCtn3UhBYTE5fjfv25B8r7l6C01xE1/v7mSpuz7Qou498Jpxmjc3kBLg/ak+b9OgtamZZl2mqFsxirJTR1Q3pWV5eBIxqtIU1JFf0Y+ZN/6DkrJyfInNeLpw7qvvoMVZtb4eI7+AwuK8XT6SvLn065XLRxsaaW6NQbHfJiGtp6jnEK658WYKS0rwqybvqF00wFZxc+jRJzFmygzKS4pIbH6/S4QaWzoj+HIK6J9TAIBh2HNo2BRuo0mSUXOy2N3sKT4PkqKTiMcwTPjOL/woTJo2bmB1VTUp0yQeaqKyponmpIfPPvmQmoL2JJSFvQcxtGdpx7igTJPmZIJGCbw+D7tmW5JRfS5kOUUkYp2rb2fc/jwGD2ifVJPJn6o1twgtyZpEHN3nx+feLSO0JOPJUTG1OIlEZpcp8OUWMiC3EIBUIvOiS38wskpZRfcd/0zYKEo6yfilqCTt25/YsVOjzqKnHuHv9zxCUzyJME2ikTA6ChcsfRdlm2tl6kV3cP+FM+ioZPR7Tygqdvodxwh0Bva9onWek0Nmk/GGJ9uXRTYCM6lhsuugFykNYSioLjdyh411hf2nn8ycQWNIGiaJcDPPzL+P9alSzjzjFMrz290nZQNHdMwGC0CWCLjc5AC6pu8WQSYwUzqmqeLxdvGaK50BVaXC5UbRTbTvVJg10WM6khLA5cr4oenQhcn4t7ugpIx8tyBV3UjSBN9OlidU30gSN9mlBbg7zLGqUDFkOBVDhgMQaaph2fsvEon15YhpxzKwPG8ff/8jkFSCwVwKZEFbY6i9VPT28zRTp6UxStLloaQkt+PbdvjfcPkZ2D2Iuq6J1tYYlOd8+5kWZ+vWKJ6CnuTm+OyT0cHBYjL+HCuv5wB6lORQvW4ZzdGd/OZCZ/nSLzBzi+jft6Ljdh92IMkUlFdQUuBl1aq1JPRvKwhq0RDrtm5GyS9lQI8iG4V0AEB2s9+4kaihGlas3bRLNGW8rpIldY1U9O5LabBrF2ZzyGwy3vC4C3sz/bADWPf1B7y76Bt0UwCC2lUf8/CC9+m+/4GMGtDNsvYVVaVbr/4M6NsDn8sq8yZR3KMfo/cfyLL3XuaTle0XNoWps27ZF7zzyVcMGDuRAcU5+/wmB6uRGX7YdAYEDd544Tk2NYQAEFqUF/7zICuaYeLhR1Lgy3hnhEMXJuPfbkn2cspZ5/HS+79l1iUXsPm3v6K7O8aD985lSUuQO88+m1751q0ufblF/PGKWwA6vEz2znjzyjjl1Bm8+f5FnPWbM/jbuX+hVGrh8YcfYFUonzmnn0iB32tZ+w4/nPx+Y7nwrNP5y5xHOFePMmPaBCoXv8XcB59i6JF/5ozp41Gd+AKHDCZthkcCcoKFFBcV4E5zzH7JkHHcfvdc7rrrbv4z92bipoveg8dw9y0XceIhgyzf9llpcHYgyfQ/+Gjm3iHxz7vv44E5V5IUHgYMH8fsq8/mqLFDdkTUpRNJVgkWllDmy99RQr3LI6kc8+cr0P0FPPDUC1x75UJ8uaUcd9blXHzBX6gIuO2WMK1IkkR2sIjiWH7a54bOhqR6KCktI5jjz+jYxrQZHllWOeWcORyVVCm34oD9+9pWXAwdP4U5+4+loa6epFApLC0nP9uXUQ9XVtwMmzSdu8ZMoKamhpRwUVBSSn6O37ZJX83pxqU3ziNhZpGX8fvrH443u4CT/3QxR5zyGxpbQrgDeZSXFOOxzB3beVHdPn7xt1s5TnNTXta1A2D85cOZe/8T+HJLdwmEyjTSNxVIEoXlvSlMW4O7Ny/hzw7izw7aJEG6kPAG8ujdP73GfW/IqoduvQbYLUanRFFcFJRUUFBSYbcotiJJMkUVfXBCX0B1B+gzYLDdYlhOBttUBwcHB4fOiGN4HBwcHBzSimN4HBwcHBzSimN4HBwcHBzSyj6DC8LhMIlkEtM0SWlae9ZNmzBNE9M0Sabsy9wrhMAwDEwhSKVSSB0dKi0Ehq7v0LdsGPv+G4voDPpOpVIYhoEkSciKAhaU75YkCcMwSKVStvY13ZiGgTBNdF3vUv3eE/q2MaelUpjfyaHXdRCmiZGGOWefhmdL1WZSqRQul4twKITqsi/RpK7rCCFoa2uzTYbtcgC0bZsQrfh+IQShUMiS7/9f5bBT322hEMlkEllRcFmkC0mWSaVShEIh1C5UO0gIgW4YxOLxLm94zG0TbjgSsXXM2c32hbXL4nGwz28vL6+gpaWZVCpFIBDA7bbvcls4EsEwDHKys/f9yxYhhCAWi2EKgd/f8fdjBBCPx9F1nYDfn57Lp3shFA4jhLBV36Zp4na72yeGbQa/o1EUBbfbTXYgYGtf041hmoTDYbweD15v185qkUwmiScSBPx+FBsKVnYWzG3zm7B417dPw5Obl0ci0T4RejwePB7Pvv7EMmLxOEIIWweJ2OZiM00Tr8fT4YZBCIGmaQgh8Hg8tg6CaCzW3k8b9e1NJFBV1VIXgCTLKIqCx+vtUhOwrutEZRmXy9Wl+r0ntruU3R6P5av9zoxpmqSSyT2U7OhYnOACBwcHB4e04hgeBwcHB4e04hgeBwcHB4e04hgeBwcHB4e04hgeBwcHB4e0ktbwjUSkjZqGNkrKysnypjdyRAiTWKiF6uoaEqZKabceFOZmZVRZhF0RxEKt1LdEKSktxedJv76jbU1UV9eSwk1p9x4UZFgZio5CGBpbNlfhyi2mND9gtzhpRBAPt1BVVUVSuCkuq6AomN0l6zaZhk5T3Raq65vxZBdQUVFOtte+O5NWk7YdjzCSvPbQrZx7/rWs2NKSrmYBMA2NJe++yJk/P57JkyYyYdIkphx3Mg8t/IyU0fE34TsDRjLCC/Nu5oJLZ7OmJr0XQA0twedvPM3vZhzPxG36nnrcKTz+xhdoGarvH49J9bIPOeeM3/LIG0vsFiZtCEPj67ee5dcn/4yJkyZy6MRJHHfqr3n4xfeJJK25r9VZiTXX8MitMzlm6lFMnDCByYcfyZnnX8VnK6swM3S4WG94hCAVa+O9Z+Zx6Y13Ut0awbAg7cn3sWXJ+1x2weWsTRZx2S1z+fc/r6eXUs+lZ/6e+W9+hW6lOEKg6xqapluR7WWP7aWirbz533uZees86tqiiDTre/2it7ji4mvZInVn1m33Mu/WayjTq7j0T2fz33eX4tiedkw9RdWKz7l59mzeWfQNSc2+9EjpRJg6q95/mQsvuoa1iSJm/eshHrxzNn29rcy+6ioWvPtVl1mgpCJNPHPv7dw87zn6Tfo5TzzzHFf/5TTWvf88M6+7jWWV9WSiJiz1vxhaki0bVvHqU4/yrwf/S0NCx29lg3tCj/H0g3NZRyE3XXsdJxw8BEWCiWOH8bsZv2D+Qw8wecxA+hZaI5mWiPLZe29Sq+Vx2OTx5Aesu4BraAk2r1vJy088zF3zn6Exoae/uJYe45lH7qM6qzs3X3st0w4cgCzBhLH78dvTfsNjjz3GoSP70ys/K92SdSoS4SY+/+AdHn7gft76ZDHJTF3a7oFEay3PPvc0W11lzL3jVg4f3hshDIYP6sllF13GY88s4PCxQynLy/B3RJhUrviSZ15rjCEXAAAgAElEQVR9m6HH/oJbrzmfsqAffcJBdC8IcNW//svrH02hX8WRZGVYZVpLdzyt1eu4ffb13PHMexxy6p84bkIfK5vbI4mG9bzyzuf0GzaW8cMHoEgSIFHUdwy/OG4CW775gsVrqyxrPxkL8+rTD/Pvx1+iIRS3rB2A5qpVzJ41k7sWfMzEU8/k6PG9LG1vTyTq1vDGh18zcMQ4xuzXZ5u/XqKk/zhOmjqOTUsXs2RDddrl6mws+/AVLrn6Bjakgpx4whGUFaR9SWYTgsbN6/jq65UMOuhwRvUrB0CSFHoNGM7EsaNZv/gjVtWm1x1vB0KLs3bF11Q2m0w9bCIFOe2GVvUGGDVuAkNLPLz/2WLCsaTNknY8lhoeXdMoGXgAl157A7MuPoeB5emvp968aS1VNWFK+g0l37/TYZ2kMGDoCJS2Rtav3YqWdsk6Hi2lUT50PFffeDNXnf9H+pfmpF2Gxg2rqW5IUN7n/7V3n4FVVGkDx/8zc2ty0xNSKaE3ARXEAioqutZFXeu6tlXXLepadi2sDXsva8FesTfs2F0bKiIivfcAKTe5uX3KeT+EoCAI+mZm4r3n9013vfPMycw8c86c85z+FOZs2t79+u+AaFzP0iV1ZMeg0taZFuw57mSuvvpKjtxvJLkOT7ZxjTBpXL2GNQ1J+vTtRcD7w3lrwRA9q6qhaT3zl9e7GKQz9FSSuiXL0P2l1FR1waO1T6pQyC8qo3uXUlbOXkI4nnQ1TjvYerWXdOvHmWf2JDeUi6ZYKC7MaWpYv5Z6Q8Vf3QX/Zmk2v6wEv5qidX0ThgXe3/jk8rLaQZz1j37k5YUwUxFXYmhYt4ZG4cFXWYp/sz93qKwYL0miDc3oFmi/8fb+/xiy52H029NHfijIt6unuB2OcyyThkiE9UIlv7QQVf3RRaJ6KCjNxSdS1K9rdi9Ghxi6zrqmMLGCAnJCwU16AZ5AgFBxDvrseqKJTHgt3pSticfjC1LkCwJgmu7scRFPJUkoCorP89O059FAtTAMvQNnj+h8OelR7nrlbVpSOkY6yaI539NszuLMk+dunCI58vhzuOjYfenIkVuvP4fiDZ+Q3OpRxFJJ4gpbbG/Vo4FiYZi6MxMtOrFgXiFBt4NwhSBpGiQU0LwaYpOp0wqqR0NRTNJ65s9ss4QgbuikvBqKtundoqhtbWFZaYwMnGiR8f17TVXQECg/87fr2GUDgkS0lfXr1tOcTGMaaWKJFCkLmtbXE/e1pZrm1gQWdGji6Qw0VcEDW27vH2eb7FuqIQGgoLH167799TRblvJ4FGXrD2EhACUj2yLjE09JQTGlCPTWOCabXvBGLI5leAnkhPB02LCPl91OOJ1JR/wJAcTC67jjin8xI9mD6644n16Vbd+5/MFQRjZ+aWEJRcLCiCZ+0t56PAGmj0BOLloG3kzSdlBUioI5lKCQSqQ2TPVvvxhM9FgKw/KRl5f5ky08Hg+lubnkJsIYaYMft4QwDPS4jseXRzDDZrRBFiSeouquFOZpxJetJG4I8jw/PPHWrVhOwpNDafcueDvsQajgz83Dn9u2oVhQNcgJ+vCJIEWlpZSVFXbUgTqloq7dKQwqRFesJmEIQj9q7/UrV5IO5FJSU9qB7S39pqgaBWUlFAcU1q9e3zYE3/7WZ+isWxtGDwTpWlPsbpwO8Ph8lFSW42ldTHM4iiXY+EKWiEapr28ht8dA8nLc23zTLhn/eTe/az+G9apg8bzpLFv/wwp+K9nMRx9/hq+iG4P7dM3ghlBwclyrqNsABncvYdG8b1nV8MMEBysZ5pPPvySnupaBtdVypC1rqZTVdKNn1xJmTp9OYzS+8X+JNa7l+4XzyKnqzYCaEhdjdIbmC9K9dz9CVjPfz19EcsN3LWGZ1K1YzLzV9QweMoDCnMzbpC9zn7cbaKEKjjnmcBpnf8akp15kVUML0UgDbzx1L098MIuRYw9lWI9y247vy83n4ONO568nHU6XggxfEAeoeZUccfiBrJn+MU+/8Bp1TRFiLfVMfuxOnv9sMbvueyCDupW6HabkoqLKnuwzalfqp7/LfU+9Tn1LjFhLPVNef4k3p85nzwMPonup80sBnKZoXvoM3onhfSt49clH+ODr2STTaeqWzeWpSZNYRSn7jxpJXjDzejwZP9SGorHX0X/hhJkLeej2y3nvpcfI19LMnreQfnscy4Vn/pGioH3N4AvkMHLM7xAoaGrmjdX+hOJh32P+wpGzFvPwDZfw1jMPkEuSWXMXsOP+p3DuqUdRkC1rVqQt0oL5HHT8KXw/bxEPXn0u7z73IPlqkkVLVzForz9wxlEHUxDIvIftTymUdB/AqaefzqJLr+TME49lUJ/uRNatYk0rnHLOePYdMQiPmnnjA449ARRFoe/QUYwpKaYo176yMVsSKqvh3zf8l93GvsHr735MsxHkqL+O5/BDxlKRb3c3VkHTnH/QapqX/jvtSTJcTYHDY8RF1b0Yf/Pd7PHO67z1/idECHHc2Vcw7sAxdMnLvGGD/6/C8l7st/8B9O+a+cNLbRQKa/px+W33MuagN5j89ju0mCGOOO1fHPq7MdSUFmbkTK4tUT0+dh57BI/U9mPyKy/w8bRZ9Bl8OJeNO5zRI4aQ53BVeacoYhsVJJOpNOvW1tHa2kqfPn3w+51NGj/WFA5jGAZdyhyvQLaREIJIJIJlWRQUFKCqHTtaKYSgNRpF13UKCwrQNPd6SY1NTViWRVmpe0Njzc3NXH3NNdx5xx3ouj0L6TxeL6effjoTJkygtCRbHv5gGAZN4TC5OTnk5mb+LLKfE4/HicZiFBUV4fVk5sN+e1iWRSQSQdd1AoEAiqIQCnX8Vh0Z/41HkiRJ6lxk4pEkSZIcJROPJEmS5CiZeCRJkiRHbfMrmhBikx3wnN7NckvcjOHHxxZC2BPLZsdwk23nuL3H54c2UBSlw2NRlLaa6UIIcPlc3ZSt591u49ln8TXQzomz32biWbduLa2RVizLJBaP2zazaHvouo5lWcRiMddiEEKQ1nWEEMTi8Q0bnXX875umacvv/xKGrmMJ4Wp7x2IxDF1HVVXbZvipqophGMRiMQKB7JnubVoWpmmSTKWy/mGbTqcxTZN4PO7qTFK3CSHQdd32yiLbTDyRlhaSqRQeTSOVSmGZ7m3hZZomQgiSSfc2RhK0TUMVQpBKpWz5A+k2//72Mi3L9fZOpVIYpomiqraNCyuKgmmapNJpV8/VaUIILMtC13WE5c62JZ2FaZpYlkUqnXb1Zc9tgra28NicfLeZeHrU1lJfX088FqOwoACfz70Vxc0tLRiGQVFRkWsxtK+zsSyL/Lw8W9bxxGIxdMOgID+/w3//lwg3N2NZlqvtrSgKfr8f0zQx7FrH4/Hg8/koLChw9VydZpomzc3NBHNyyAlm5+5A7RKJBLF4nIL8fDxZvo6nNRrFNOzdD2mbLezz+fFoGoqi2DrcsT0URUFRFFdjEEK0vRFtiMOOxKOoqmzvDTa2sY1j74K24TZV07JqmEUIAYqC6vLfuDNQ2++5LLsGNqdsuB7sHteSs9okSZIkR8nEI0mSJDlKJh5JkiTJUTLxSJIkSY6SiUeSJElylHPzBoVg1bxv+WDaIsYceBBdSzu+1PbPHJxkazPffv0Zn3/5DVEzwOARu7P3qF0ocXhvIKcIy2TprGl8MXsNYw7Yn6pil8reC5O5n03hrZlxzvjLHwhl74ShrdJbG3jphcl0GbYPY3asdTscx6SjYWZ89TkffzGVmJXD4OG7MWrX4ZQXhrJmP57NCTPFx6+9REtOb3633wj8Gdo1cOy0UpE13HPNeB6e9Dp1zfFt/wcdeezWJh6/5XJOO/McHn3+VV5/aRLnnHYCZ55/A8ubEo7G4pRowzLuueZSHnvubeojbi2KFKxb8DXXTbiCR599n4SZ3avjt0TocT55bRI3XHMLX8xd7XY4jkmG67j32v/wx1P/zuMvTeHNyc9y4dln8u+r7mRJXdiRsi2djrCY/8mL/OfSCXwwdTZ6BjeC7YnHskya1yzk6rNO4/bn3qc1mcLZ6hyCb99+klsemszoo8/mtbfe5f13p3D138bx4bN3cuNDLxG384EoBHo6TTqtO1KWxLJMwqvnc/U5Z3LPyx8TS+kOt/eGOAydFbOmcuX4//DS/74lmdKz82GyNUKQjkf4+JVJXHbtbcxcuhrDzJLqAUaC9597lIlPvc1+fx7Pu+99wHtvv8klfzmCLyY/xsOvvk88be8Cxk5FCIx0gulvP8UJp57DN0vrMQz3KsQ4wdahNj3ewhcfvMF/b/svU5c107W60M7DbZFINjLp0ScJ9t2FP//5j/QoLwbgT/+8lLlTv+TNN15k1h8OYJdae3bZTEQaeOSO65iTrOHf555Ot7I8W44DkI6F+fSdV7njtv/y7eooVZUFth3r5+No5oM3XuC++x5m3towuSEfrtb+6YQaVy/iyYcm8uQLbxNJCwIBr9shOaZl7VKmfPgROYP24vy/HEVFUQgIcdRxJzFvxne89errnDRuP/pWOP+8cJywWLdiES8++SD3PfYCZmEV+dE1bkdlO1t7PPXL53Lvg0/SkNOdy2+6i6P26WPn4baodcU8Pp25lN4DdqRP9Q/bGmvBEvY7YC+iKxbw7fxltr2Nm4bB6uWLWbh0FQnd3reYdUtmced9j9Na3I/Lrr+FcaN72nq8rQmvXszEhyaRLh3Afy69iF0HVcq8s5kZH0/m4cmfssthJ3L+346mujRbtp62WLd8KXMXrmLoLiMpz//hvPPLqhk6aDCRxTOZs6rRxRgdZCT55N3XeertqYw49GTuuuEiqgsy9MPOj9ja48kpquC4086ie79BDOhRwW3vOl8DqWHlUhpbdHau7UOO98ePP4WqHr3xp2KsWbYOXYDvN/50zC2u5MS/nk/fHYbSs0suN77lzpf8nKJyTvzrefTbYUe657by5sM+SLsSSqfVbcAILrt6OHvstjMrP38ETf2NX3zbS5iE162nISoY2a0K74/L03j9VJWXosZjLF3ZCMN7uRenU1SNPsN24+LaEQzfaUf8jV9lxcQKWzNBfpeuHHRgVzRNwzLd2U6hqbmJJlQ8JXl4N/uD+vNDeDSdZKQVo8MSjyCyro5VDU2YliDeXE99UyvRVCML584h3dg21FZQ3pWuXQo7tCdQWFnLYYfU4tE0kvHmDvzlXyZUUsmhh1Ti9WikGua7Fkdn1nPI7vQc5kFTFVZnwYNmI8sinEjQqCjk5OVsOuaiqATz/fiUNM3NUddCdJTmY9CwEQxWVTRVpTlLOnq2Jh5V1VxfKGSYJmkU0NSfPuQVBZS20vAd9wFe54vHJnLBfU/QmEhhWSbRSAsGHk79Zgoera1FDrjgDu4/7yg6cmS/M7Q3gKJqeDtDIJ2Y5smebzqbEhjCQldAURU2/fjXVpS2/Z7MDkpWVsPO+DMOej0EEWC17aS6afJp+zeaqnZg91alx257caa3iLhukI5H+ODNl1mVLuH3h+xLWX5b+fk+w/t2iiQhSc5SCKgqObTvJvvju1JgtdUKR9Pk3ZHJMj7xlJRVUqYK0vVh0gL8P0owifVh9LSPnKIiPB12nXvoN3pf+o3eF4BoYx3xlTOZFu/Fn/92Nv2qsmCmjiRtjapRnJdPmQLR5ihYAto/8wiTeH2ctOmjpMSdGZmSMzL+taKoWy3lpQEaFy4kkvzR2gBhsXjRXFJ5BXTtU9mhQ16SJG2FolFUWU5pgYfli1eS+tFMTyuVYPm6tRhFRfTsYc/yBqlzyPjEk1vRh71HDGLRrM+ZPncZ5oaPOS1r5vLimx9R2nsIO/Xuatt0X1XTKC6toLJLCT45fCBlPYWymp4M7teDWVM/ZM7KdW3/WljULZ3H59O/o7r/TgysyJ6dYLNRxg+14cvn6JNP5cPzr+L2m2+k+fg/UO5N8eozD/PhghRn3XCCrQvV/KFCjjr9nxxoBqgoypa1GpK0dTml1RxyyCF8OOFWrrjyav5y8nGUKDFee/4JvlqW4rRLDqeyUN4rmSzzEw8KA/c8lCvGt3LHxIe46B9vYwqV/LJq/nbljZw+bi+CHvvms2oeH916D7Dt9yXpt0b1BNjld0cyIZnkpnsf5bwz3sAUHspqevHHv5/LsQfsjt8rq8lmMscSj6p6OP68Oxgb99O7xtlutDeYz9hjz2DX/cexbNly4paXbj37UFmSl7Er6n3+EKdceBe/13PpU5nvWhyegq5cevNjRM18imxM8L9l/XY9kseeGUl5j35uh+IYX6iIA074O6MOPpqFixeRtHxU9+hFVWlh9iym3YJQ9U48+OTL5HepJZjBI/OOJR5FUejaZxhdnTrgT46vkl9SwZCSCpcicJaqeejeb0e6uxyH5s2h/5ARLkfRuYWKqxkxstrtMFygkFvUhWHDu7gdSKfhCRay4y67ux2G7TI4p0qSJEmdkUw8kiRJkqNk4pEkSZIcJROPJEmS5KjtSDxC7hz5I07sIiptmWJTvfjsnUMl/YS8vx2xzVltc+fMIZ1O4/V6aWxsxON1r7iMYRgIIVhfX+9aDO1xAKR13ZaHYft5NhiGbQ/bXxKHm+3d0tJCPB5H83hQVXs66IqqkkgkaGhoyKKqyG0vUYZhEGltJRaPux2OqyzLwjRNmsJhV+85twkhME0Tr80Vs7f56/n5+USjUYQQ+Px+vC4mHiHayqX7/X7XYmh/IxJC4Pf7bblIFcDccJ5u3gRt20UIV9vb7/fj8Xg2/u3toAKapuH3+929thwmLAvLsvB6va7e152Bruttzzifz7YXnN8EIUimUrYfZpuJp7qmK+vW1tHa2kpeKOTqjWmaJoZhUJDv3oJIIQSRSATLssjPy+vwi1QIQauioOs6eaEQmubeCm7DMLAsy932tix8Ph+WaaLr9mwm6PF68fl85OXluXquTjMMg7SuEwwEyM3N7hI18XicqGURCoVsf9vvzNpfNu2619plcWqXJEmS3CATjyRJkuQomXgkSZIkR8nEI0mSJDlKJh5JkiTJUY5O39BTCVpa4+QXFOJzcb+NdDxCY0SnS3kJWgZO2dcTMRrDTRjCQ35hEXk5ARyflS0EyUSU5uYWDDQKikvJC2T3lN3NWZZBNNJCJBrHG8iluKgQb5buUptOxolEk+QXFuLzZGcbtIs2N5HGR1FhKGMXNzuWeISl8/VbzzL5yzpO/vuZDHB4T552VqqVKU/dz6szBTfc8i+KM+hZKCyDpTOnMunZF5k+aw5JEaDX4J04/Ig/MGrHAfi9ztzQlqGzeOZUnnv+BabNWkAKP7UDhnHUcScwamhvsvy5AoAej/Dxmy/y0lvvs3RNPTmFFQwfvR8nHvcHqouCbofnKMtI8cXrTzPluzAn//V0+lYVuB2Sa1ItdTx0880ovfbl9BMPIpih++E58wgQJou+fJvLrryaD6d+RyRh7xzxrTH1BF+8/Tw33HE3/5s6i3RGlccQrJn5OVdcNJ5Jb39D3xFj2HP4IOZ+8jrjx1/Dp7OWYDp0vmsXTOeai8fz0sez6bvTHuyxY1+mvTWJ886+kA9nrpAlmITJ588/yIWX3siSFo09x+xLVSDBfTdcyoUT7qM+YbgdoXOEybzP3+CKq67j46+/p9WlZ0NnoMeaePK2K7j1oWeZv7QO0+2AbGR7j8dKx5n6+iT+fu5FfLciwo577Wz3IbdIT7Tw4YtPcNnVNzJtwSpqd3Lm8WfqaVYsWUCrFaRPz+4E/fY0uRFr5IVnnuDjJVFufXQSh+/aDyydA0bvxPn/uoz7n3+D4f3+SkGOz5bj/8DkzSfv5n+r0lx+6y0cv9/OaIrguIN35cij/8HER59g6HUX0iWYvYv0kuvmcdWNt5Mz8CBuv/N6+lUWYKYiDLz8b1zy0C3s8bu9OPOAHTN2mKWdlY7z+eTH+Mf545m5Msou5Zm/AdqWCZrrljDxqku4+sEXMH3ujAY5ydYeT+v6Zdx06bn86ZwrUfvtwyF797LzcFuVaF7Lzf85j7Mvv5WcXjswdGAlTlXFSEQaefDG8fxrwt2saIzadpz1yxfyxdcz6L/3IewztBZVVVA9PgYP34MDRu/IjPensLghYtvx2xlNy3jxrc/pN2IU+4wcgldTUVWNnrscysmH7MycLz9j1uI62+PovAQz3nuZGWsS/O7IY+hbVYiiKHgCBfzpzLPpk59kymtv0ZzK7JpxkXVLuPaif/Cnc6/G039vDtizp9shucPS+fbj1zn9pD9x95szGHfKidSUZP5YtK1n2FJfx6L1KQ4+7QImPXgXu/d3Z4tbvbWJOWta+f1p53PL1RczpFc5mbWtu0n9yuWsrGtl0KCBBH0/9CZ8oUL6dOtFqn4Fc1Y02B5J05JZLF8boXvPQZTk/ai8kuJlyLBd0OtXMWfpajL7sfozRJoZ//scPVjB0AG9NrkBQ1W92bG8nMWL5rA6nNlFO5vXrWZBvc64My/k8Yl3snvfUrdDcoeps3jJcpTyAVxx273ccM7x5Psz6uG0RbaOd5TU9OFf46+gorqKXJ+C4tLgQU5JNRdffg3V3brhT65EzbTqs5ZJU2MzjYZGSWUJ6o+zqualtCSEP5lgTV3Y9lDqV62iKa0R7FpJYLMPo4XlZfjTCSJrmtAFZMH99VN6nDlLGjFLiikp3awunD+X7lV5fLgkTHNLHCpC7sTogNJu/bn48qvoVlONF/uLUnZamo/dxx7G8AOOpqailOiSj9yOyBG2Jp5gQSl9C9reZEzTvY+GnpwCBvZvmymTTtp9NIMFH3/Im19OJ26YpOMRPv9uIav1RibeeStl+QEA+ow+lCNH79AxXU5h0aqnaFUVvH7vZglexZPjRdFM4nH7b/BIvJWIqqDl+H9yblrQD5qBnk5iCbJzIxxDZ5WexvDn4fVufvup+Ao8WEaKVDqzJxjkFJYxoLAMgHQyixOP6qGqppvbUTgue7/w2sZixXfTeP7pZwkn01imQeP6tSTFel57sR6fp60bsE/BAMZ1WOJpP7L4mW0UhCOb2LVvGyh+JqkIsni/LSE2ttHWm0hkcQNJ2UAmng7nZdcTTmfSIcdgCkG8eT0Tr7+M75PduOzis6gtzwMgt7Cs4xpfVSn0+ilCxdDNzaYrW1hpA0wPwYD9W1oU5+ZRJAQirWOx6UdEoesopgevx0+WrpMEr5dePj9qxET/yf5CAjNhoqru7nslSXaTiafDKYSKSwkVtw0xRhtzKMzPIegpoGuPHvSqKuz4Q6oaBSWFFGkW4fXhtg3T2vfxMXUa17aS9AWprLbh2JspqupKgccksbKBlAXBHyWY8Op1pLQgeVXFeLNxmA3Am0vvbkX45q2nqSkKVT/6zpOOsnxJK97yWgoLs2sRqZRdsvW9M8NolNTUUFWew5zvZxNL/fA9LdUaZs7KpfjLqxlQY//MoaIe/elelc+qhd9RH0ls/PeWkeDbmd/iLa+kX21V9l54io9Be47EF1vL97MXYlg/9E9bls9nWmM9vXr3obIwx8UgJcleWXv/O8XjDzBkl9HsvftO5AftGz4pq+nNHsOHseiLKbz+v2lEE2mS8Qhff/oBH301hx1H7UfPMvtLkfhKunPImN1YMuMzpnw0leZYglSilekfTuaF92cwaOSeDOpebnscnZfCkNGHslPXIG+9/CzTF6wglU7TvH4FTzzyIKsSuey3/wEUbz4lUJIyiBxqs5k/p4CDjv1zW8HOfPveYv35ZRxy1LFMmzWBm6+4mGkfjiZEjGlffU2qeAAnH3soRbZXLQDUAAefcBpT513O/TdN4LtPdiFPSfDZR++jV47gtBOPoXLDzL5sld99B84+6wyuuPNx/nNxEzsP7EV49ULe/2Q6Y084myPHDMvI4rWS1M6xxKOgUN6tD/3NMnJtKhuzXTQ/PXr1p7mgB14H1vMoqkpegQMlMBSN2mGjuOqGm3h18st8+OXXJK0cho45nMMOO4QRg3ujObRqtuvgXbn0mut5/dVX+PTrGcTJYeRhp3LE4ePYeUBt1j9UFc3PPsecTm55Dya/+RbfTvuKUFl3zrniJn7/u32pKsiu7zuKqlLZrS/9fF3JcfPZ0Amo/hD9Bw2hW2VJRg9HKWIbc2yTqTTr1tbR2tpKnz598Pt//cwoQ09jCgWv1/OrFnE2hcMYhkGXsrJfHQNCoOtpLFR8Pu8vXkoihCASiWBZFgUFBagdXHtHCEFrNIqu6xQWFKBpv3DIRQhM08AwTQQKmqbh0bSfmWa9dY1NTViWRVnpL/82JDbEYW6Mw7Mhjl/2O83NzVx9zTXceccd6Lo9a8E8Xi+nn346EyZMoLSkxJZjbImwLAzDwLQsFFXF4/GgOVXLCTAMg6ZwmNycHHJzcx077hZj0dNYQsHzK58N/1/xeJxoLEZRURFej3vJTwiLdDqNqnnxepwfbrUsi0gkgq7rBAIBFEUhFOr4hcyOtrDH63N/bE9R8Prsn1bsGkVB83jRPO5Ox1UUBY/Hi8flODozRVXx+nzIFmp7NkigKCp+f+YPRWdyb06SJEnqhGTikSRJkhwlE48kSZLkKJl4JEmSJEdt81t/a2uEZCqFZbXNtnCTaZpYlkUq5V41WyFE24wxIUin079qtti2GIaxsb07etbcL2FuOE832zudTmMaBoqi2NYWqqJgmibpVMrVc3WaaVlYG2bWZdN5b4m+4Z7T02ksM5M3nf557c83u20z8SxYsABhWQQCAZrCYTyuTjVsm/nd0NjoWgw/jsOum7X9991O9J2hvSORthcfzeNB/aVTy7eToiikUimawmGyrSZ0+/T9aCzmdijuEm01w8PNzW5H4johBH6fvbMMt5lFBgwYQGNDI8lkgtKSEnw2B/RzWiIRTNOkuMi9PcmFEERjMSzLIi8UsmUdTywexzAM8vPyXO3xNLe0YFmWq+3t83oJBgKYhoFhGB2+tdyp/GAAACAASURBVIOiKGgeDwG/n9KSEkocXMfjNtM0aYlECAYCBIPZtWh1c4lkkkQiQX5enqsv126zLKvt+WZzr2ebLZyTk0urL0IqlcTj8bharl1VVSzLcjUGIQSaqqIAXq/XlsSjaRqWZbUtKLTpLX97tJ+bm+3t9XpRNQ0hRFvV7Q4mhEAVAlXT8Hi9WbUdgaIobYlX07LqvLdE1/W2tWder6sLSN1mWRaaqtqeeOTkAkmSJMlRMvFIkiRJjpKJR5IkSXKUTDySJEmSo2TikSRJkhzl4PQNQXjtSuYvr6fvoMEUh1yqEC0s1i6bz9yVCXYbtROBDEu9ZirOiqWLWLR0GSnhp7pHL3r36Eoox/+Lt4DoEMKibskcZq/SGT16R/wZ1t4dwUxGmfHtTEI1fenX1f7tyTsLMxVn5bLFLFyylJTwUdW9F71qu5Hv1rXqFmERbW5g4YL5rFzbQCC/jN59+lBTWYZPy8wbxrHEo8fDPDfxFt5dYDL+6itcSjyCyLolPHLHdbyzpITndt2RgC9zLnE92sRbzz/Joy+8TkNrHFAIFHRh7GHHceJRB1FeaN8OqFsmaK5byH03XcWHa7rx4u4y8WzOMlPM/nwKE666hzFnXZs1iUePNjHlxad49PnXWBeJoaAQyC9j30OP4aSjD6GiyN39gRwjLNYtnsVjDz/EO1O/QzdMhKJR0XMwfzr5z4zdfSgBb+bdNI6cUSqynidvu4obJj7JsjX1pM2OX4+xTULQXLeUR+++jfuffo3VdU1kUmEMYab5+p1XuOn2+7Eqd+KSCddz9WUXs2PXII/dcxsvfTSNtOFguwtB06qFPHD7zTz4wlvU1YexOnjx52+dZaSY88V73HDTrXzwxQwisewoWyOsNN+89yo33X4/evlQxl95PVdffgk7dw/xxMQ7eOGDr0g5ea26KB5ey3MPT+TJN75iz3EncsPNN3P+mSeir/yWm++4l+8Wr87Iahq29niEZbBq3jfcef21PPzax1jCwI018MIyWDbrK+66+Qaef/dzGqMxKh36cyZbm3jhsYksTlVy+ilHU1Vsz5tconEVr732Ko0F/bnzsvMY2rUMRVj0ri6mYfm/eOq5Vxm393AqHej1WGaaRTO+4L833cBLH39NczyB032tzk6Pt/DBK5O44Za7mbl0BSkzexYtJhrX8Prrr1If6sMt489lp9oKFGHRp6aUxpUX8MzzrzJuzAhqijt+58tORZgsnzOd1977nOGHn85fTz6W0rwg5rAdKPIa/HvCXUz5fDqDe1aR63NvIbkdbO3xrF3wDf/853k88fF8Thp/O2eM28HOw21V65qFnHPWP3jp61WcdNY/GbtrHzTNmSE2I51i7rdf8vm072lN2rN1MwjWLF/It3MWMmzPvejbpQhVUVBUjcraAQwfPow1333C3DVhm46/qfolszjn7HN4c1YjZ55/AXvt1DW7xuy3wyevPMCp509ArxnOuWedQPfKPLdDcohg7YqFTJ+9gKF7jKZvZcnGa7Wie1+GD9+Jtd9/xtzVTW4HajsrnWD+nJmsjinsvevOFIZy2qon+HLoN2w4/Wvy+WzqNCKxpNuhdjhbE4/qDbDLfkfy4KSnufbs4ykOulPnTfP4GDH2SO66/wHOO+UISvICmTWdT5iEV9XR2GTRq7YHnh/t1a74A9SWliMiLcxbVe9IOF5fkD0OPpZ7H3yAfxx/CEU5mb+V7y8VKqrkz+dfyQN338T+IwbgzdCPyD8hTMKr19LYaNKjtvtm12qQ2rJyaG1l/kpnrlU3Gakk65ctR/jLKS8rwfOjSyAvr4hupSWsXrCc5kTmJR5b+/el3QdwzjkD8Pt8WJZdb/vbllPWjfPPv4Bg0I/etMjmowmSkQjNsRimJYg3r6c1liKZjFK/to6QaKsCHMwvpigv2DE9AcskHIvRqGnkFoU23apB8RAqzcFvpWmqj3bE0bapsKY35513LsGAn3TDfEeO+VszbMw4ho0N4vOofDPT7WgctOFabVA1corz0Da5VjVyS4L4RZqm+lb3YnSIbhjUR1qJFYbw5246k0/1+8gpCsJ3TcQThmsx2sXWxKN5fGidYOha0bzkOFZ81+D7N17k7slTiKR19HSChbNmEjYXMWF8HaFgWzHGkceexQVHj6FDRm6FIGEaxBFoHm2zZKagaApCNdF1Z5K/qnnJyawh6Q7nC2TJrK2fECRNg7gi8GgqYpP9rBRUTUVRTXQj8x62m7OEIGHopDwaHnWzu1ZRUDQVEx3dyrzpBZ0gLWQeNRikqLgYT1pHTyUI+H14jSCFhcXk57YlnjxfBza9Aj5FwacoW9g2QGz8P7m5xYIktWm7Tn0oIARt12f7Q/eHf1bVzP8qqAJ+VcUnYGtz+BRUMrEpZOLpcF6GHnQE/cceBkC0aS23jD+H6claLrnqYvpUFgCgef0d09sBUDWKgrmUWJCMJxGb3MwW6XASS/dRkJ+tb9lSp6GqFAZzKREbrtVN3pMsUuEUhu4lLy/zr1WPx0tJbh65iXrSaWPTFJzWSTcn0XwFBDJsRhvIxGMLj8+Px9e2QFYkc/B6NTTdSzAnh9xcG24oxUNBRTFFOYJ1K+oxTQvaP1braVY3NpMozKVb9+zZ5EzqpBQPBeXFFOfAuhX1WIbFxq/qepo1jc0kCnLo3iPzF9J6/D5KasrwtMyjpaEVS0D7ZNtEPMbacAvBfkMpyHWpyouN5NiLzRRVJRDMJTcniEexq8+sUN61F316lDN92ufUNbdPIhA0r13B9LmzKes6kEFVxTYdX5K2l0JZTU/61FYwY/oXrAlHNvx7Qcv6VXw793uKqwcyqCrzX5I0X5Da3oMJaRG+mT2b6IblFpaps3zRbOatbmDk4MEUBDNvVqjs8djMG8xln0OPZqBRSFGefRdQQUUPxu6zN5/e+zx3P/w0J44bS46I8eFrz/HJ93UccNqfqC7M/OELqfMrrOjO2H335tO7n+WeR57mpCMOIEScj954no++W83Yk8+na6YvHgVQPfQevCOjh/ZiyvNP0q+6hD137Ed49SKeeOJpWoLdGbvnLoQCmbc7rEw8NvMFQuxxwDjbj6MF8th33HGsXFvP0y88xHf/ex2fMGiOJNj5gGM46bB9yO3ICQ2S9Cup/hD7HHYsK+vqeerlR/n+kzfwKybhlgTD9juKk8btS64/8x62P6VQWN2LE/58BuH/3s09N1/NiyWFJKIRUkqIP532V0YN6fOTGW+ZwLEnkapojDnyr1Q15tKt1L03by2nlKNP/iejYqXkOVS9wBkKRTW9+PO5FzNy35nMnj+fpPDTo88Ahg3ZgaqyImwb6fsZntwyjj/jAvZL1xDKqPbuONX9R/HvSwL027mn26E4RKGwuiennHMRu+wzk1nz5pG0/HTv059hQ4ZQ3aUoI2dybYnq8TNot324rKo7M2Z8y5KVawkWVTBoyFAG9+1NvltV/G3mWOJRVJWd9z6SHYWyyWplp2mBAvY9+BgsVLyZNllEUckvrWK3vSsYMWofBKB5PGguTqPWAkUc8PsTMrO9O0h5j6Ecf9JgNE8W9UgVlfzSSnbdq5zhe4zpFNeqWzSvn669B1DVoy+maaKoGppHQ3XjTdEhjl7pmsfbcVOIfzUFj9ed0j1OUVQVr6+TnKOS+e39/6WoGr4MnDK7PTrVteoqpS3xZsnLR/a9XkiSJEmukolHkiRJcpRMPJIkSZKjZOKRJEmSHLXNL1kLFy4gmUyiqSrh5ma8Ln78Sus6QggaGxtdi0HAxirPZjjc4RucCcAwDCzLIhwOb7rFgcM6Q3u3RCIkk0lUTcNnU1soqkoymWxrb1uO0DlZQqDrOtFYjGQy8/Z8+SUM08Q0TZqbmzN6Ntm2tD/fPJq9k122mUUs00RYFqgqwrKwflL92DlCCIQQrsbw41gsy7IlMbRXmLaEcPVB2Bna27IshBBt7WxX4tnwu5bL17fT2q8zt//GnUH7tS6E2Gql6GzQ3gZ222bi6dd/AOvW1tHa2kpxcTF+v3sLmprCYQzDoKzUvQKCQggikQiWZVFQUNDhWw0IIWiNRtF1ncKCAjSb3zx+TmNTE5ZludreXo+HYDCIaRi27Sfk8XoJBAKUlJRQWpL5NcLaGYZBUzhMrl3Fa39D4vE40ViMoqIiV0d13GZZFpFIxPa9u+Q3HkmSJMlRMvFIkiRJjpKJR5IkSXKUTDySJEmSo2TikSRJkhzl6PQNyzRI6wZenx/NxbrnppEmlbYI5gQyet2GaRjohonP50N1vL0FpmGQSqURKPgCAbyafM/ZIiFIppKomg9flpXwNk2DVDKJQMHr8+P1ejL6ntweejqFJVR8fm/GtoVjiUcIk8UzPufzOevY98ADqSl1Z4dBy0gx85N3+HShzimnHkEoQ2dOWqbO/Gmf8u3SFvb53Vgqi5ybLissk4Y1y/ly6hfMnr+IFH5q+w1mt912pWdVadbstbJ9BLHGVbzy8ttUjxjL3sN6uB2QM4RFY90Kvpo6lZlz55K0/PToN4hdR+5Cr5oKPFm6d5ORaOG9VydjlAxk/32G48/QdzWHHrsW6xZ+y63XXMn3kXL677qXK4nHMtMsnP4xN193NdMjAznq5MMJZeQ7hcWqOV9yyzVXsJTeDNp1tKOJp3n1Yu6/6Qbe+mYhZdVVBESSV154mjd2PYxLLjyHHXqUZmSr/3KCREsDbz73CFdf/zjHX9s/SxKPILxiAffffgsvfTqbrr164Bcp3p3yJu/ssDcXnP83hvaqyroXFDMV5aOXH+GKq+5l+FH/ZsyY4WTmNnAOJB7LSDH/qw+56bprefG9r+k98jC7D7lFZirOd5+9w+233cprn82gy8D+jhzXMnXq164hafmprCizfSjFMlLM++Jdrr/2Ol75aDo7jOll6/G2EAH/e+Uxnv1wBoefcS5/PGRPAkqKae88w3+ufZSHansy4ZyTKMjUV7ntJQSRhtVMfvIB7pj4CIvWRBxZMd4ZWMlW3p38DJOmTOOof1zInw4ehU8k+HTKS9x53zM8NrkvE/5+HPmBbNj+GkAQC6/jjScf4Lo77mHBOoPhbodkM1sTT7JlPS8+fh93THycOlHEwAFdSNt5wK1IR5t45qH/cs+DTxPzh+jSJQ+nNjpMRJp47LYJzEx058rL/kmv8nz7jtW8lmceupu77nuSBm8J/fuW2XasrbGia3nmhdco6r8rx/7hUPpWFgBQdeJZfPvRu7w25S3mHXkwI3t1cTy2zmTNgq+5bsJVvPXlAoqKQ+SFUm6H5Jhw3TLe++Aj8gfvwSlHHUi3sgJAcOi4o5j9zVe8+sYbrDruEAZWFbsdqv2EyZLvv+Su227hxSlT6Tp0B0oSM9yOyna2Pn7XLpnNg8+8hrff3jz3wgv8fmR3Ow+3VbH65Ux87HkKh47lzluuZdQO3XBqCFlYFi3hBuqbmjFMe6tA1S34jnufeo3cHQ/kqacnceDOXW093pY0L/+e2Yvr6Nt7R7qWFWz8955AIaP22JOWVQv5bslKsuPdfuumvfcqz32xlGPP/g9X/PNEKoqCbofkEIv1KxezaMlahg3dmZK89iFghdySCnboO4jm1XOZubLB1SgdYyT58N23eXPaMo751/VMuul8ynIzf4zR1h5PUVUvJtwykf4DB1Cc6+F/Lo3s5xRXc9Xt97PD0GHkm2t4MkMHj4u69uXGux5iyJDB5CgJ3nUhhsZly2mOaYRquxLc7OoqraggGIvRtKIRXYAvM/8M22XIXofy0qiTGD6oF7PeucvtcJxjmTSva6IxqVHWtQuq50fvvh4vFcX55LQmWLmiEUa6F6ZjVA97HHAkOx10EoP61BJf9pHbETnC1sRTUN6N0eXdADBNe4vO/Rx/QRf23bNtaCfdZPfRLBqWLGLeijWkLYtEpJFlaxpoSvmY+un/WL1hUkVp7QB2qK3s0FRcVFnL3pW1ACTjiQ785e3XGGkm7FHRCnLY/GuWNz8XxauTiscwBWTzDIMeg0eSDdMIfkJYhNNJmjTw5wY2q+6u4Svwo3kNoq1x10J0lOan/+ChG/8xS87a2XU82cHg+ymvcvUTLxBOprEMnXVrVhKzFnHjVQvwb5hcsNdfruTGvxxKpn0+tSwTExA/s4WBQJAl39Gln2jbgsGEn9lSRG7TkOlk4ulwGr32GMPfi2tIGhbJWJhXn3qEJelyTjp+3MZpzTU7DPxJjyAT5AWDhAQIw+QnnRrDQLFUNM2bdVNlpQ0UlVyPlzwULNOCTa4SgWWYCEvD5820VzLpx2Ti6XAaNYOHUTVwKEIIYk1rWfjFFOKJXvzusMM3zvJSVS0j6xUVdamgUDVIr2shDZusQ4g1NJMmQLA0H28mnry0bYpGUV6IYgTRcBTLEmx8AxMG0YYEKdVHsY2zPyX3ycRjA1XVNk7X9ng8qKqCoih4PB68Gf4mV9qjH8VFXhqXziOWtPAH2jOMYNHSuZiFhfTqXpmRvT1pOygaBVWVlBR7WLp4GaZuwobhZ5FKsLihDis/n/5dnV8KIDlHvnfaTNU0ikrLqehSjC8LapUFKvsydqeBzP5uKl/NWkjaMDFNnfVLpvPSa5/RfdBwBtVWuR2m5KKKml7sPKgf3332AdOXrEQ3LUxTZ9m8mXwx9Ru67TCKvpWFbocp2Uj2eGwWyCvmxHP+Q9LyU1HiTn06R2m5/OGUU/nskhu465abWXf4gRSqSd587hFmJ0u44LhjqXWpTp/UOQRKKjnk97/n8xk3MeHKaznl2N+TR4z3X3+ZmU0+/v63wynPy3E7TMlGjiUeBSgoKaeyogt+j4tv/qqH0i5VVCuljpy8qnnoUtXNgSNtSlFUCkorqRCleB1u7wF7HMiF/4rz7OQ3eWziHVhCI7+smvPHn8DR+42Q33c24w/mU11TQ0Eo4HYojlBUH8P2PpgLEwZPvfgqD911MwIPheVdOePs8xm358743HxGuEjx+Kmq7kpJYWZWkWznXOJRPRx04sWMiPvpVV6w7f/AJt7cLpx69hUcmcqhwJO5f1qvL4fDT72EvdM5dCtztofhyy1kn3HHM2iXPVm9dh0GXsoqa+hWXUEgy8r+b4/uQ8ZyzU396VLb1+1QHOPNLWTM749h0Ig9WLGmDt3yUFZZQ01VOTkBn9vhuSa3fBBXXH8HeV16Esjg3Otc4lEUuvXdEeff/TeLw5tDv8E7uxyF/VTNQ4/+O7m2SNHrD1JT24ea2j4uRfDbkVdSzS4l1W6H4TjNG6Cye28qu/d2O5ROwxMsZOeRe7gdhu0yOKdKkiRJnZFMPJIkSZKjZOKRJEmSHCUTjyRJkuSobU4uSCTipHUdIQSGYaA6tYPaFliWhRACXXev0rUQAtOyEJaFYRg/U+jw17NME2vD71uWvXv4/GwcloVlWa62t2EYWKaJoiioqtrhu3QqSltVCcuyMHTd1XN1mrnhfjJd/ht3BqZpbnzGZXMF2/brwW7bTDwL5s/HMEwCAT9N4TAej3trTi2zrfBkQ2OjazEAG5NB2qabtT3BNhmGLb+/vUzTBNxt70hLC4lkElXT8Gn2TcVOJpM0NTVl1QZ1QoiNLzixWMztcFwlLAtLCMLhsC0vk78llmXZXqR1m1mkR20t4XCYdCpFYUEBPp97c+wjra2YpklRoXvlNCwhiMfjWJZFKDe3w3uAQgjiiQSGYRAKhdBc7GG2RCJYluVqe6uKQsDvx7IsTMOwpcejaRp+n4/CwkKKi4o69Pc7M9M0ibS2EggECAayY/Hq1iSTSRLJJHmhkKsv126zLItYPI6wudezzRYuKCgkmUhg6Do+nw+/37+t/8Q2WjyOEMLVGIQQpFMpLEXB7/fbknjahzb9Ph+ajW/526JpGsqG83SL3+9H83gQlrWxB9bRFFVF83jw+f2unqvT2ofOvR5PVp33lpimSSqdxuf3483yxJNKpdBtTjxycoEkSZLkKJl4JEmSJEfJxCNJkiQ5SiYeSZIkyVEy8UiSJEmOcjTxpJMJwuFmdMO9RZEAyXgrDY0tWBm9aEOQSsQJN7egm262tyAVi1DfkOnt/esJy6C5qYloIu12KK5JJ+OEw25fq+4x9BTN4UbW1tWxvqGReCKFlcELWR1LPFY6zofPP8Qll97IvNXNTh32J1KtjbzywM2cee6thN1dn2krPRFhyqSJXHbVnSxeG3EtjlSkgefuvpbTz72d5gxu719LWCZr5k1j/Dnn8NQH37sdjiuMZCvvPH0//7nyNhbWtbgdjsME0cY63nlxEhed9w/++Mdj+fNf/sHNEx9n9uLVGGZmJh9HEo+RjPDp609z7Y23Mm3WYuJpN55AgkTzet598XFuu/dhvp+3HD1D3yiMRAsfvzKJG279LzPmLiWZtmf9y88TxJrW8uazD3PrxEeZu2glRoa2968lTIM1C7/j/v/ezguvvktdOPuqBxiJCP979SluuPlOvp2zhETKjWvVPelomHeee5Srb7qXJqWEQ8cdwdDaEqY8fR/X3/kwi+oaM7Kahq0rpYRl0rh6CZOfeZz7H3mKuSvW0qfEziNuJQ5hsn75Ql5++jEee+YlZq9YR8VgZ/6ceiLKFx9OoU4vZOy+oygO2bdQT1gm9SsX8sqkR7n/ieeYv3I9Q1zYCU5YBnVL5/Hik4/y+POTWVDXSHW583F0ZmYqzndffMjDDzzAGx99SlPMRMnEJ8xWCMukftUiXnnqMR54/Bnmr1jHwGzbC09YrFn0Pc+++BqlO+3HFePPpl/XLsRb6ulffQ+3PfEm7+01iu4VexPMsK3AbT2bphVzuerSi5hw1ySq9zqWI/Z1Z2vf+PoVXHnJBdz66Gv03XVvhu9Qg1O7XqcTUT564wWenvw+ja1JW49Vv/R7Lr3oAq669zlq9zqKQ0f3tPV4WxNetZDLL76A/z79DkP3Hsuw/uUZvX/8rzH9/ec58+wL+Gx5gv0P3IvKsly3Q3JUw7JZXHHxv7nqnmfovudRHLZXL7dDcpwwUsyfPYP5a6Ps/7v96FVTjqZp5BWVs+d++9OryOKjz78iGk+5HWqHszXxxKMtxL1l/Oume3nkpvH0r8q383BbZaRiRD3F/HPCzVx38d/pWVmEU3UAhRCkknESiaTtHwvjkTBxXyWX/vch7r3mAvpUutPe6USMdE4V/77uNq664Ay6l+a5Ekdn1txYT/ddDuauifdw8mGjCQWyq0xLvLWZuK+c8bc/wP3XXURfl65VNxnJBGsWLMBQu9Czphpve69GUSguqaB3WRnzZi8iHE+4G6gNbL3aK/rsxG137ExO0I+wDBSX3nvzqvpw5933kh/KxQgvsj0K0zAwTAMhIJVKYZgWlmWSTqVIJtt6PZrHi9fTsXXYqgeO5N57dyM3GCCVaHatl1HWczB33nUX+aEc0g3zs77a75aMPvw0dj8mj1yfxjcrMmsYZXtU9R/BXXePJDcYQE9FHXsR7Ex0Q6ch3EK8uIBgfnCTXoAnGCSvLISYV09rIvO2rLA18Xj9QdqLa7v5yVD1+CnMc6oIosGSL/7HlK+/JW6YpOMRps1ewkqjhccfuo+y/LYqwH1HHcRhuw/u0C6n15+DvcXMt4/mDVDQGQLpxAIh9yp+dwad5Vp1k2lZtKRTxH0evNqmTwJFVVC9GpZIohuZ9/Evu/r3jrCom/89U958k+ZUGlNPs2rlWlqtFj58922CvrZezujSwRy6+2CXY5UkyS0K4FEUPMDWVi8pKBnZG5SJp8N5GHLIH7h+5D4YlkW8pZ6Hb7uW2ckaLjrvDLp3afveUdClRpaNkKQs5tE0ioI5BFMtGEbbJpftOUYYJkYsjerJxZ9hM9pAJh4bqBRWVFNY0TY3NNpYR5fiPFbES+k3aDD9qrJ7iEWSpDYen4+SihJ8LcuJNscRgo29m3QiQVM4irdbT/Jy3Nt80y6Zl0olSZJ+AzR/kJravnj1BhatWEVqY7kgQcP6lSxYXcegAf0oDGbe7rAy8djM4w8wePgejN51GHmBbP+cKklSO0Xz0XfwMIZ1K+DF555nzuIVJBIJmtau5K3JL7MoGmTf0buQl5N5u8PKoTabBUJFHPfXf7sdhiRJnY5CRc9B/PFPf+TaOx7g3PMvYMwuO1C/dB5TZyxkv8NPYewug/FpmTe7wLHEoygK/Xbak/26FNtaNmabcfhCDN99X/LCXQmomfcHbadpXgYO3xsjXE1hrntjxKovxC6jx1KW6J/R7f3/UVTRmwMOPJCB3UvdDsUVquZhwM57k+hWTmEo875n/BzVH2Kv3x9HbnE5b33wEQtmzyJYVMmfzz2Sg/ffh+rizFx87VjiUVWNsUefwyhDo6DAvcb05JRy3Gn/Qre85Hfs+s1OxeMLctDx57Kv5SG/wL1yLJ5QOSf+bTyG8BPK4Pb+/+g2cC8uuWI4wbzsnHiiefz87th/srfloaAg5HY4jvPlFrLbAeMYusc+tEYTePxB8vPz8HXwAvPOxMGhNoXcglLcrkilqB4Ki8tcjsJ+iqISKizF7dtYUT0UlXRxOYrOzRPIpSzg9p3hHkVROsW16iZFUcnNKyQ3S14+5OQCSZIkyVEy8UiSJEmOkolHkiRJcpRMPJIkSZKjtjm5YG3dGiKtrVimSSwWI627V6Jb13Usy6I1GnUtBiEE6XQaSwii0SiK2rG5WwhBKpXa2N4d/fu/hGEYrrd3NBolnU6jqioejz1zYVRVRdd1YtEofn/mLdbbGsuyME2TZCpl+15RnV06ncbccM9pWubOJtsWIQRpXbd9S5Vt3slNTU0IIfD7/SQSCVcTj9hwc8Ri7u5N3x5HPGHPBk12//4vjcPN9k6mUpSVlrLDkCG2HqdLly6k0mnXry0nCSE2vkjpLt7XnUH7tZ5IJLJ+/yghBF6vvVVWFCF+/lWnpaWl7f+oKFn/B5Gc194DtPvB6PV68fv98hqXpA3a74VQqOMnyWslRAAAAH9JREFUum8z8UiSJElSR5KTCyRJkiRHycQjSZIkOUomHkmSJMlRMvFIkiRJjpKJR5IkSXKUTDySJEmSo2TikSRJkhwlE48kSZLkKJl4JEmSJEfJxCNJkiQ5SiYeSZIkyVEy8UiSJEmOkolHkiRJcpRMPJIkSZKjZOKRJEmSHPV/IV+98cxjtj8AAAAASUVORK5CYII=;" vertex="1" parent="1">
                    <mxGeometry x="93.5" y="1100" width="414" height="568" as="geometry"/>
                </mxCell>
                <mxCell id="597" value="2-Bit Full Adder Truth Table" style="text;html=1;align=center;verticalAlign=middle;resizable=0;points=[];autosize=1;strokeColor=none;fillColor=none;" vertex="1" parent="1">
                    <mxGeometry x="205" y="1080" width="160" height="20" as="geometry"/>
                </mxCell>
            </root>
        </mxGraphModel>
    </diagram>
</mxfile>